G04 #@! TF.GenerationSoftware,KiCad,Pcbnew,6.0.8+dfsg-1~bpo11+1+rpt1*
G04 #@! TF.CreationDate,2024-04-17T15:14:35-06:00*
G04 #@! TF.ProjectId,RetroWiFiModem,52657472-6f57-4694-9669-4d6f64656d2e,0.3*
G04 #@! TF.SameCoordinates,Original*
G04 #@! TF.FileFunction,Legend,Bot*
G04 #@! TF.FilePolarity,Positive*
%FSLAX46Y46*%
G04 Gerber Fmt 4.6, Leading zero omitted, Abs format (unit mm)*
G04 Created by KiCad (PCBNEW 6.0.8+dfsg-1~bpo11+1+rpt1) date 2024-04-17 15:14:35*
%MOMM*%
%LPD*%
G01*
G04 APERTURE LIST*
G04 Aperture macros list*
%AMRoundRect*
0 Rectangle with rounded corners*
0 $1 Rounding radius*
0 $2 $3 $4 $5 $6 $7 $8 $9 X,Y pos of 4 corners*
0 Add a 4 corners polygon primitive as box body*
4,1,4,$2,$3,$4,$5,$6,$7,$8,$9,$2,$3,0*
0 Add four circle primitives for the rounded corners*
1,1,$1+$1,$2,$3*
1,1,$1+$1,$4,$5*
1,1,$1+$1,$6,$7*
1,1,$1+$1,$8,$9*
0 Add four rect primitives between the rounded corners*
20,1,$1+$1,$2,$3,$4,$5,0*
20,1,$1+$1,$4,$5,$6,$7,0*
20,1,$1+$1,$6,$7,$8,$9,0*
20,1,$1+$1,$8,$9,$2,$3,0*%
G04 Aperture macros list end*
%ADD10C,0.300000*%
%ADD11R,1.300000X1.300000*%
%ADD12C,1.300000*%
%ADD13R,2.000000X2.000000*%
%ADD14C,2.000000*%
%ADD15R,1.727200X1.727200*%
%ADD16O,1.727200X1.727200*%
%ADD17C,1.397000*%
%ADD18C,1.524000*%
%ADD19R,3.500000X3.500000*%
%ADD20RoundRect,0.750000X-0.750000X-1.000000X0.750000X-1.000000X0.750000X1.000000X-0.750000X1.000000X0*%
%ADD21RoundRect,0.875000X-0.875000X-0.875000X0.875000X-0.875000X0.875000X0.875000X-0.875000X0.875000X0*%
%ADD22C,1.800000*%
%ADD23R,2.400000X1.600000*%
%ADD24O,2.400000X1.600000*%
%ADD25R,1.600000X1.600000*%
%ADD26O,1.600000X1.600000*%
%ADD27R,1.700000X1.700000*%
%ADD28O,1.700000X1.700000*%
%ADD29C,3.200000*%
G04 APERTURE END LIST*
D10*
X115264285Y-116090000D02*
X115407142Y-116018571D01*
X115621428Y-116018571D01*
X115835714Y-116090000D01*
X115978571Y-116232857D01*
X116050000Y-116375714D01*
X116121428Y-116661428D01*
X116121428Y-116875714D01*
X116050000Y-117161428D01*
X115978571Y-117304285D01*
X115835714Y-117447142D01*
X115621428Y-117518571D01*
X115478571Y-117518571D01*
X115264285Y-117447142D01*
X115192857Y-117375714D01*
X115192857Y-116875714D01*
X115478571Y-116875714D01*
X114550000Y-116518571D02*
X114550000Y-117518571D01*
X114550000Y-116661428D02*
X114478571Y-116590000D01*
X114335714Y-116518571D01*
X114121428Y-116518571D01*
X113978571Y-116590000D01*
X113907142Y-116732857D01*
X113907142Y-117518571D01*
X112550000Y-117518571D02*
X112550000Y-116018571D01*
X112550000Y-117447142D02*
X112692857Y-117518571D01*
X112978571Y-117518571D01*
X113121428Y-117447142D01*
X113192857Y-117375714D01*
X113264285Y-117232857D01*
X113264285Y-116804285D01*
X113192857Y-116661428D01*
X113121428Y-116590000D01*
X112978571Y-116518571D01*
X112692857Y-116518571D01*
X112550000Y-116590000D01*
X148156285Y-133137571D02*
X148656285Y-132423285D01*
X149013428Y-133137571D02*
X149013428Y-131637571D01*
X148442000Y-131637571D01*
X148299142Y-131709000D01*
X148227714Y-131780428D01*
X148156285Y-131923285D01*
X148156285Y-132137571D01*
X148227714Y-132280428D01*
X148299142Y-132351857D01*
X148442000Y-132423285D01*
X149013428Y-132423285D01*
X146942000Y-133066142D02*
X147084857Y-133137571D01*
X147370571Y-133137571D01*
X147513428Y-133066142D01*
X147584857Y-132923285D01*
X147584857Y-132351857D01*
X147513428Y-132209000D01*
X147370571Y-132137571D01*
X147084857Y-132137571D01*
X146942000Y-132209000D01*
X146870571Y-132351857D01*
X146870571Y-132494714D01*
X147584857Y-132637571D01*
X146442000Y-132137571D02*
X145870571Y-132137571D01*
X146227714Y-131637571D02*
X146227714Y-132923285D01*
X146156285Y-133066142D01*
X146013428Y-133137571D01*
X145870571Y-133137571D01*
X145370571Y-133137571D02*
X145370571Y-132137571D01*
X145370571Y-132423285D02*
X145299142Y-132280428D01*
X145227714Y-132209000D01*
X145084857Y-132137571D01*
X144942000Y-132137571D01*
X144227714Y-133137571D02*
X144370571Y-133066142D01*
X144442000Y-132994714D01*
X144513428Y-132851857D01*
X144513428Y-132423285D01*
X144442000Y-132280428D01*
X144370571Y-132209000D01*
X144227714Y-132137571D01*
X144013428Y-132137571D01*
X143870571Y-132209000D01*
X143799142Y-132280428D01*
X143727714Y-132423285D01*
X143727714Y-132851857D01*
X143799142Y-132994714D01*
X143870571Y-133066142D01*
X144013428Y-133137571D01*
X144227714Y-133137571D01*
X142084857Y-131637571D02*
X141727714Y-133137571D01*
X141442000Y-132066142D01*
X141156285Y-133137571D01*
X140799142Y-131637571D01*
X140227714Y-133137571D02*
X140227714Y-132137571D01*
X140227714Y-131637571D02*
X140299142Y-131709000D01*
X140227714Y-131780428D01*
X140156285Y-131709000D01*
X140227714Y-131637571D01*
X140227714Y-131780428D01*
X139013428Y-132351857D02*
X139513428Y-132351857D01*
X139513428Y-133137571D02*
X139513428Y-131637571D01*
X138799142Y-131637571D01*
X138227714Y-133137571D02*
X138227714Y-132137571D01*
X138227714Y-131637571D02*
X138299142Y-131709000D01*
X138227714Y-131780428D01*
X138156285Y-131709000D01*
X138227714Y-131637571D01*
X138227714Y-131780428D01*
X136370571Y-133137571D02*
X136370571Y-131637571D01*
X135870571Y-132709000D01*
X135370571Y-131637571D01*
X135370571Y-133137571D01*
X134442000Y-133137571D02*
X134584857Y-133066142D01*
X134656285Y-132994714D01*
X134727714Y-132851857D01*
X134727714Y-132423285D01*
X134656285Y-132280428D01*
X134584857Y-132209000D01*
X134442000Y-132137571D01*
X134227714Y-132137571D01*
X134084857Y-132209000D01*
X134013428Y-132280428D01*
X133942000Y-132423285D01*
X133942000Y-132851857D01*
X134013428Y-132994714D01*
X134084857Y-133066142D01*
X134227714Y-133137571D01*
X134442000Y-133137571D01*
X132656285Y-133137571D02*
X132656285Y-131637571D01*
X132656285Y-133066142D02*
X132799142Y-133137571D01*
X133084857Y-133137571D01*
X133227714Y-133066142D01*
X133299142Y-132994714D01*
X133370571Y-132851857D01*
X133370571Y-132423285D01*
X133299142Y-132280428D01*
X133227714Y-132209000D01*
X133084857Y-132137571D01*
X132799142Y-132137571D01*
X132656285Y-132209000D01*
X131370571Y-133066142D02*
X131513428Y-133137571D01*
X131799142Y-133137571D01*
X131942000Y-133066142D01*
X132013428Y-132923285D01*
X132013428Y-132351857D01*
X131942000Y-132209000D01*
X131799142Y-132137571D01*
X131513428Y-132137571D01*
X131370571Y-132209000D01*
X131299142Y-132351857D01*
X131299142Y-132494714D01*
X132013428Y-132637571D01*
X130656285Y-133137571D02*
X130656285Y-132137571D01*
X130656285Y-132280428D02*
X130584857Y-132209000D01*
X130442000Y-132137571D01*
X130227714Y-132137571D01*
X130084857Y-132209000D01*
X130013428Y-132351857D01*
X130013428Y-133137571D01*
X130013428Y-132351857D02*
X129942000Y-132209000D01*
X129799142Y-132137571D01*
X129584857Y-132137571D01*
X129442000Y-132209000D01*
X129370571Y-132351857D01*
X129370571Y-133137571D01*
X143442000Y-135552571D02*
X143442000Y-134052571D01*
X142870571Y-134052571D01*
X142727714Y-134124000D01*
X142656285Y-134195428D01*
X142584857Y-134338285D01*
X142584857Y-134552571D01*
X142656285Y-134695428D01*
X142727714Y-134766857D01*
X142870571Y-134838285D01*
X143442000Y-134838285D01*
X141084857Y-135409714D02*
X141156285Y-135481142D01*
X141370571Y-135552571D01*
X141513428Y-135552571D01*
X141727714Y-135481142D01*
X141870571Y-135338285D01*
X141942000Y-135195428D01*
X142013428Y-134909714D01*
X142013428Y-134695428D01*
X141942000Y-134409714D01*
X141870571Y-134266857D01*
X141727714Y-134124000D01*
X141513428Y-134052571D01*
X141370571Y-134052571D01*
X141156285Y-134124000D01*
X141084857Y-134195428D01*
X139942000Y-134766857D02*
X139727714Y-134838285D01*
X139656285Y-134909714D01*
X139584857Y-135052571D01*
X139584857Y-135266857D01*
X139656285Y-135409714D01*
X139727714Y-135481142D01*
X139870571Y-135552571D01*
X140442000Y-135552571D01*
X140442000Y-134052571D01*
X139942000Y-134052571D01*
X139799142Y-134124000D01*
X139727714Y-134195428D01*
X139656285Y-134338285D01*
X139656285Y-134481142D01*
X139727714Y-134624000D01*
X139799142Y-134695428D01*
X139942000Y-134766857D01*
X140442000Y-134766857D01*
X137870571Y-134195428D02*
X137799142Y-134124000D01*
X137656285Y-134052571D01*
X137299142Y-134052571D01*
X137156285Y-134124000D01*
X137084857Y-134195428D01*
X137013428Y-134338285D01*
X137013428Y-134481142D01*
X137084857Y-134695428D01*
X137942000Y-135552571D01*
X137013428Y-135552571D01*
X136370571Y-135409714D02*
X136299142Y-135481142D01*
X136370571Y-135552571D01*
X136442000Y-135481142D01*
X136370571Y-135409714D01*
X136370571Y-135552571D01*
X135727714Y-134195428D02*
X135656285Y-134124000D01*
X135513428Y-134052571D01*
X135156285Y-134052571D01*
X135013428Y-134124000D01*
X134942000Y-134195428D01*
X134870571Y-134338285D01*
X134870571Y-134481142D01*
X134942000Y-134695428D01*
X135799142Y-135552571D01*
X134870571Y-135552571D01*
X147227714Y-137539000D02*
X146513428Y-137539000D01*
X147370571Y-137967571D02*
X146870571Y-136467571D01*
X146370571Y-137967571D01*
X145870571Y-136967571D02*
X145870571Y-138467571D01*
X145870571Y-137039000D02*
X145727714Y-136967571D01*
X145442000Y-136967571D01*
X145299142Y-137039000D01*
X145227714Y-137110428D01*
X145156285Y-137253285D01*
X145156285Y-137681857D01*
X145227714Y-137824714D01*
X145299142Y-137896142D01*
X145442000Y-137967571D01*
X145727714Y-137967571D01*
X145870571Y-137896142D01*
X144513428Y-137967571D02*
X144513428Y-136967571D01*
X144513428Y-137253285D02*
X144442000Y-137110428D01*
X144370571Y-137039000D01*
X144227714Y-136967571D01*
X144084857Y-136967571D01*
X143584857Y-137967571D02*
X143584857Y-136967571D01*
X143584857Y-136467571D02*
X143656285Y-136539000D01*
X143584857Y-136610428D01*
X143513428Y-136539000D01*
X143584857Y-136467571D01*
X143584857Y-136610428D01*
X142656285Y-137967571D02*
X142799142Y-137896142D01*
X142870571Y-137753285D01*
X142870571Y-136467571D01*
X140156285Y-137967571D02*
X141013428Y-137967571D01*
X140584857Y-137967571D02*
X140584857Y-136467571D01*
X140727714Y-136681857D01*
X140870571Y-136824714D01*
X141013428Y-136896142D01*
X139656285Y-136467571D02*
X138656285Y-136467571D01*
X139299142Y-137967571D01*
X138013428Y-137896142D02*
X138013428Y-137967571D01*
X138084857Y-138110428D01*
X138156285Y-138181857D01*
X136299142Y-136610428D02*
X136227714Y-136539000D01*
X136084857Y-136467571D01*
X135727714Y-136467571D01*
X135584857Y-136539000D01*
X135513428Y-136610428D01*
X135442000Y-136753285D01*
X135442000Y-136896142D01*
X135513428Y-137110428D01*
X136370571Y-137967571D01*
X135442000Y-137967571D01*
X134513428Y-136467571D02*
X134370571Y-136467571D01*
X134227714Y-136539000D01*
X134156285Y-136610428D01*
X134084857Y-136753285D01*
X134013428Y-137039000D01*
X134013428Y-137396142D01*
X134084857Y-137681857D01*
X134156285Y-137824714D01*
X134227714Y-137896142D01*
X134370571Y-137967571D01*
X134513428Y-137967571D01*
X134656285Y-137896142D01*
X134727714Y-137824714D01*
X134799142Y-137681857D01*
X134870571Y-137396142D01*
X134870571Y-137039000D01*
X134799142Y-136753285D01*
X134727714Y-136610428D01*
X134656285Y-136539000D01*
X134513428Y-136467571D01*
X133442000Y-136610428D02*
X133370571Y-136539000D01*
X133227714Y-136467571D01*
X132870571Y-136467571D01*
X132727714Y-136539000D01*
X132656285Y-136610428D01*
X132584857Y-136753285D01*
X132584857Y-136896142D01*
X132656285Y-137110428D01*
X133513428Y-137967571D01*
X132584857Y-137967571D01*
X131299142Y-136967571D02*
X131299142Y-137967571D01*
X131656285Y-136396142D02*
X132013428Y-137467571D01*
X131084857Y-137467571D01*
X122578571Y-116947142D02*
X121435714Y-116947142D01*
X122007142Y-117518571D02*
X122007142Y-116375714D01*
X120007142Y-116018571D02*
X120721428Y-116018571D01*
X120792857Y-116732857D01*
X120721428Y-116661428D01*
X120578571Y-116590000D01*
X120221428Y-116590000D01*
X120078571Y-116661428D01*
X120007142Y-116732857D01*
X119935714Y-116875714D01*
X119935714Y-117232857D01*
X120007142Y-117375714D01*
X120078571Y-117447142D01*
X120221428Y-117518571D01*
X120578571Y-117518571D01*
X120721428Y-117447142D01*
X120792857Y-117375714D01*
X119507142Y-116018571D02*
X119007142Y-117518571D01*
X118507142Y-116018571D01*
%LPC*%
D11*
X127508000Y-80899000D03*
D12*
X127508000Y-83399000D03*
D11*
X131064000Y-84709000D03*
D12*
X131064000Y-82209000D03*
D11*
X143510000Y-78105000D03*
D12*
X146010000Y-78105000D03*
D11*
X149860000Y-83439000D03*
D12*
X149860000Y-80939000D03*
D11*
X180340000Y-123825000D03*
D12*
X177840000Y-123825000D03*
D11*
X156972000Y-97409000D03*
D12*
X159472000Y-97409000D03*
D13*
X205740000Y-130744000D03*
D14*
X205740000Y-133284000D03*
D13*
X205740000Y-124140000D03*
D14*
X205740000Y-126680000D03*
D13*
X205740000Y-117536000D03*
D14*
X205740000Y-120076000D03*
D13*
X205740000Y-110932000D03*
D14*
X205740000Y-113472000D03*
D13*
X205740000Y-104328000D03*
D14*
X205740000Y-106868000D03*
D13*
X205740000Y-97724000D03*
D14*
X205740000Y-100264000D03*
D13*
X205740000Y-91120000D03*
D14*
X205740000Y-93660000D03*
D13*
X205740000Y-84516000D03*
D14*
X205740000Y-87056000D03*
D15*
X128905000Y-101965000D03*
D16*
X126365000Y-101965000D03*
X128905000Y-99425000D03*
X126365000Y-99425000D03*
X128905000Y-96885000D03*
X126365000Y-96885000D03*
X128905000Y-94345000D03*
X126365000Y-94345000D03*
X128905000Y-91805000D03*
X126365000Y-91805000D03*
D17*
X153035000Y-77978000D03*
X153035000Y-85598000D03*
D11*
X186055000Y-111760000D03*
D12*
X186055000Y-114260000D03*
D18*
X156972000Y-92329000D03*
X159512000Y-92329000D03*
X162052000Y-92329000D03*
D19*
X119665000Y-122232500D03*
D20*
X113665000Y-122232500D03*
D21*
X116665000Y-126932500D03*
D22*
X142240000Y-125730000D03*
X144780000Y-125730000D03*
X147320000Y-125730000D03*
X149860000Y-125730000D03*
X152400000Y-125730000D03*
X154940000Y-125730000D03*
X157480000Y-125730000D03*
X160020000Y-125730000D03*
X160020000Y-102870000D03*
X157480000Y-102870000D03*
X154940000Y-102870000D03*
X152400000Y-102870000D03*
X149860000Y-102870000D03*
X147320000Y-102870000D03*
X144780000Y-102870000D03*
X142240000Y-102870000D03*
D23*
X193103500Y-108585000D03*
D24*
X193103500Y-111125000D03*
X193103500Y-113665000D03*
X193103500Y-116205000D03*
X193103500Y-118745000D03*
X193103500Y-121285000D03*
X193103500Y-123825000D03*
X193103500Y-126365000D03*
X200723500Y-126365000D03*
X200723500Y-123825000D03*
X200723500Y-121285000D03*
X200723500Y-118745000D03*
X200723500Y-116205000D03*
X200723500Y-113665000D03*
X200723500Y-111125000D03*
X200723500Y-108585000D03*
D18*
X170180000Y-90805000D03*
X170180000Y-93345000D03*
X170180000Y-95885000D03*
X170180000Y-98425000D03*
X170180000Y-100965000D03*
X170180000Y-103505000D03*
X170180000Y-106045000D03*
X170180000Y-108585000D03*
X188214000Y-108585000D03*
X188214000Y-106045000D03*
X188214000Y-103505000D03*
X188214000Y-100965000D03*
X188214000Y-98425000D03*
X188214000Y-95885000D03*
X188214000Y-93345000D03*
X188214000Y-90805000D03*
D25*
X184785000Y-87630000D03*
D26*
X177165000Y-87630000D03*
D27*
X175895000Y-83185000D03*
D28*
X173355000Y-83185000D03*
D17*
X164465000Y-89916000D03*
X164465000Y-97536000D03*
X171450000Y-120015000D03*
X171450000Y-112395000D03*
D29*
X159450000Y-85770000D03*
X189450000Y-85770000D03*
X119450000Y-132020000D03*
X159450000Y-132020000D03*
X119450000Y-85770000D03*
X189450000Y-132020000D03*
M02*
