G04 #@! TF.GenerationSoftware,KiCad,Pcbnew,5.1.12*
G04 #@! TF.CreationDate,2023-02-14T20:37:59-07:00*
G04 #@! TF.ProjectId,RetroWiFiModem,52657472-6f57-4694-9669-4d6f64656d2e,0.3*
G04 #@! TF.SameCoordinates,Original*
G04 #@! TF.FileFunction,Soldermask,Top*
G04 #@! TF.FilePolarity,Negative*
%FSLAX46Y46*%
G04 Gerber Fmt 4.6, Leading zero omitted, Abs format (unit mm)*
G04 Created by KiCad (PCBNEW 5.1.12) date 2023-02-14 20:37:59*
%MOMM*%
%LPD*%
G01*
G04 APERTURE LIST*
%ADD10C,1.524000*%
%ADD11C,1.300000*%
%ADD12R,1.300000X1.300000*%
%ADD13C,1.397000*%
%ADD14C,1.800000*%
%ADD15O,1.727200X1.727200*%
%ADD16R,1.727200X1.727200*%
%ADD17R,3.500120X3.500120*%
%ADD18C,2.000000*%
%ADD19R,2.000000X2.000000*%
%ADD20R,1.700000X1.700000*%
%ADD21O,1.700000X1.700000*%
%ADD22O,2.400000X1.600000*%
%ADD23R,2.400000X1.600000*%
%ADD24C,3.200000*%
%ADD25R,2.000000X0.600000*%
%ADD26R,1.600000X1.600000*%
%ADD27O,1.600000X1.600000*%
G04 APERTURE END LIST*
D10*
X188214000Y-90805000D03*
X188214000Y-93345000D03*
X188214000Y-95885000D03*
X188214000Y-98425000D03*
X188214000Y-100965000D03*
X188214000Y-103505000D03*
X188214000Y-106045000D03*
X188214000Y-108585000D03*
X170180000Y-108585000D03*
X170180000Y-106045000D03*
X170180000Y-103505000D03*
X170180000Y-100965000D03*
X170180000Y-98425000D03*
X170180000Y-95885000D03*
X170180000Y-93345000D03*
X170180000Y-90805000D03*
D11*
X186055000Y-114260000D03*
D12*
X186055000Y-111760000D03*
D11*
X159472000Y-97409000D03*
D12*
X156972000Y-97409000D03*
D11*
X177840000Y-123825000D03*
D12*
X180340000Y-123825000D03*
D11*
X149860000Y-80939000D03*
D12*
X149860000Y-83439000D03*
D11*
X146010000Y-78105000D03*
D12*
X143510000Y-78105000D03*
D11*
X131064000Y-82209000D03*
D12*
X131064000Y-84709000D03*
D11*
X127508000Y-83399000D03*
D12*
X127508000Y-80899000D03*
D13*
X171450000Y-112395000D03*
X171450000Y-120015000D03*
X153035000Y-85598000D03*
X153035000Y-77978000D03*
X164465000Y-97536000D03*
X164465000Y-89916000D03*
D14*
X160020000Y-125730000D03*
X160020000Y-102870000D03*
X157480000Y-125730000D03*
X157480000Y-102870000D03*
X154940000Y-125730000D03*
X154940000Y-102870000D03*
X152400000Y-125730000D03*
X152400000Y-102870000D03*
X149860000Y-125730000D03*
X149860000Y-102870000D03*
X147320000Y-125730000D03*
X147320000Y-102870000D03*
X144780000Y-125730000D03*
X144780000Y-102870000D03*
X142240000Y-125730000D03*
X142240000Y-102870000D03*
D15*
X126365000Y-91805000D03*
X128905000Y-91805000D03*
X126365000Y-94345000D03*
X128905000Y-94345000D03*
X126365000Y-96885000D03*
X128905000Y-96885000D03*
X126365000Y-99425000D03*
X128905000Y-99425000D03*
X126365000Y-101965000D03*
D16*
X128905000Y-101965000D03*
D17*
X116610400Y-126929000D03*
X113610660Y-122230000D03*
X119610140Y-122230000D03*
D18*
X205740000Y-133284000D03*
D19*
X205740000Y-130744000D03*
D18*
X205740000Y-126680000D03*
D19*
X205740000Y-124140000D03*
D18*
X205740000Y-120076000D03*
D19*
X205740000Y-117536000D03*
D18*
X205740000Y-113472000D03*
D19*
X205740000Y-110932000D03*
D18*
X205740000Y-106868000D03*
D19*
X205740000Y-104328000D03*
D18*
X205740000Y-100264000D03*
D19*
X205740000Y-97724000D03*
D18*
X205740000Y-93660000D03*
D19*
X205740000Y-91120000D03*
D18*
X205740000Y-87056000D03*
D19*
X205740000Y-84516000D03*
D20*
X175895000Y-83185000D03*
D21*
X173355000Y-83185000D03*
D22*
X200723500Y-108585000D03*
X193103500Y-126365000D03*
X200723500Y-111125000D03*
X193103500Y-123825000D03*
X200723500Y-113665000D03*
X193103500Y-121285000D03*
X200723500Y-116205000D03*
X193103500Y-118745000D03*
X200723500Y-118745000D03*
X193103500Y-116205000D03*
X200723500Y-121285000D03*
X193103500Y-113665000D03*
X200723500Y-123825000D03*
X193103500Y-111125000D03*
X200723500Y-126365000D03*
D23*
X193103500Y-108585000D03*
D10*
X156972000Y-92329000D03*
X162052000Y-92329000D03*
X159512000Y-92329000D03*
G36*
G01*
X181586000Y-112545000D02*
X181586000Y-112245000D01*
G75*
G02*
X181736000Y-112095000I150000J0D01*
G01*
X183386000Y-112095000D01*
G75*
G02*
X183536000Y-112245000I0J-150000D01*
G01*
X183536000Y-112545000D01*
G75*
G02*
X183386000Y-112695000I-150000J0D01*
G01*
X181736000Y-112695000D01*
G75*
G02*
X181586000Y-112545000I0J150000D01*
G01*
G37*
G36*
G01*
X181586000Y-113815000D02*
X181586000Y-113515000D01*
G75*
G02*
X181736000Y-113365000I150000J0D01*
G01*
X183386000Y-113365000D01*
G75*
G02*
X183536000Y-113515000I0J-150000D01*
G01*
X183536000Y-113815000D01*
G75*
G02*
X183386000Y-113965000I-150000J0D01*
G01*
X181736000Y-113965000D01*
G75*
G02*
X181586000Y-113815000I0J150000D01*
G01*
G37*
G36*
G01*
X181586000Y-115085000D02*
X181586000Y-114785000D01*
G75*
G02*
X181736000Y-114635000I150000J0D01*
G01*
X183386000Y-114635000D01*
G75*
G02*
X183536000Y-114785000I0J-150000D01*
G01*
X183536000Y-115085000D01*
G75*
G02*
X183386000Y-115235000I-150000J0D01*
G01*
X181736000Y-115235000D01*
G75*
G02*
X181586000Y-115085000I0J150000D01*
G01*
G37*
G36*
G01*
X181586000Y-116355000D02*
X181586000Y-116055000D01*
G75*
G02*
X181736000Y-115905000I150000J0D01*
G01*
X183386000Y-115905000D01*
G75*
G02*
X183536000Y-116055000I0J-150000D01*
G01*
X183536000Y-116355000D01*
G75*
G02*
X183386000Y-116505000I-150000J0D01*
G01*
X181736000Y-116505000D01*
G75*
G02*
X181586000Y-116355000I0J150000D01*
G01*
G37*
G36*
G01*
X181586000Y-117625000D02*
X181586000Y-117325000D01*
G75*
G02*
X181736000Y-117175000I150000J0D01*
G01*
X183386000Y-117175000D01*
G75*
G02*
X183536000Y-117325000I0J-150000D01*
G01*
X183536000Y-117625000D01*
G75*
G02*
X183386000Y-117775000I-150000J0D01*
G01*
X181736000Y-117775000D01*
G75*
G02*
X181586000Y-117625000I0J150000D01*
G01*
G37*
G36*
G01*
X181586000Y-118895000D02*
X181586000Y-118595000D01*
G75*
G02*
X181736000Y-118445000I150000J0D01*
G01*
X183386000Y-118445000D01*
G75*
G02*
X183536000Y-118595000I0J-150000D01*
G01*
X183536000Y-118895000D01*
G75*
G02*
X183386000Y-119045000I-150000J0D01*
G01*
X181736000Y-119045000D01*
G75*
G02*
X181586000Y-118895000I0J150000D01*
G01*
G37*
G36*
G01*
X181586000Y-120165000D02*
X181586000Y-119865000D01*
G75*
G02*
X181736000Y-119715000I150000J0D01*
G01*
X183386000Y-119715000D01*
G75*
G02*
X183536000Y-119865000I0J-150000D01*
G01*
X183536000Y-120165000D01*
G75*
G02*
X183386000Y-120315000I-150000J0D01*
G01*
X181736000Y-120315000D01*
G75*
G02*
X181586000Y-120165000I0J150000D01*
G01*
G37*
G36*
G01*
X176636000Y-120165000D02*
X176636000Y-119865000D01*
G75*
G02*
X176786000Y-119715000I150000J0D01*
G01*
X178436000Y-119715000D01*
G75*
G02*
X178586000Y-119865000I0J-150000D01*
G01*
X178586000Y-120165000D01*
G75*
G02*
X178436000Y-120315000I-150000J0D01*
G01*
X176786000Y-120315000D01*
G75*
G02*
X176636000Y-120165000I0J150000D01*
G01*
G37*
G36*
G01*
X176636000Y-118895000D02*
X176636000Y-118595000D01*
G75*
G02*
X176786000Y-118445000I150000J0D01*
G01*
X178436000Y-118445000D01*
G75*
G02*
X178586000Y-118595000I0J-150000D01*
G01*
X178586000Y-118895000D01*
G75*
G02*
X178436000Y-119045000I-150000J0D01*
G01*
X176786000Y-119045000D01*
G75*
G02*
X176636000Y-118895000I0J150000D01*
G01*
G37*
G36*
G01*
X176636000Y-117625000D02*
X176636000Y-117325000D01*
G75*
G02*
X176786000Y-117175000I150000J0D01*
G01*
X178436000Y-117175000D01*
G75*
G02*
X178586000Y-117325000I0J-150000D01*
G01*
X178586000Y-117625000D01*
G75*
G02*
X178436000Y-117775000I-150000J0D01*
G01*
X176786000Y-117775000D01*
G75*
G02*
X176636000Y-117625000I0J150000D01*
G01*
G37*
G36*
G01*
X176636000Y-116355000D02*
X176636000Y-116055000D01*
G75*
G02*
X176786000Y-115905000I150000J0D01*
G01*
X178436000Y-115905000D01*
G75*
G02*
X178586000Y-116055000I0J-150000D01*
G01*
X178586000Y-116355000D01*
G75*
G02*
X178436000Y-116505000I-150000J0D01*
G01*
X176786000Y-116505000D01*
G75*
G02*
X176636000Y-116355000I0J150000D01*
G01*
G37*
G36*
G01*
X176636000Y-115085000D02*
X176636000Y-114785000D01*
G75*
G02*
X176786000Y-114635000I150000J0D01*
G01*
X178436000Y-114635000D01*
G75*
G02*
X178586000Y-114785000I0J-150000D01*
G01*
X178586000Y-115085000D01*
G75*
G02*
X178436000Y-115235000I-150000J0D01*
G01*
X176786000Y-115235000D01*
G75*
G02*
X176636000Y-115085000I0J150000D01*
G01*
G37*
G36*
G01*
X176636000Y-113815000D02*
X176636000Y-113515000D01*
G75*
G02*
X176786000Y-113365000I150000J0D01*
G01*
X178436000Y-113365000D01*
G75*
G02*
X178586000Y-113515000I0J-150000D01*
G01*
X178586000Y-113815000D01*
G75*
G02*
X178436000Y-113965000I-150000J0D01*
G01*
X176786000Y-113965000D01*
G75*
G02*
X176636000Y-113815000I0J150000D01*
G01*
G37*
G36*
G01*
X176636000Y-112545000D02*
X176636000Y-112245000D01*
G75*
G02*
X176786000Y-112095000I150000J0D01*
G01*
X178436000Y-112095000D01*
G75*
G02*
X178586000Y-112245000I0J-150000D01*
G01*
X178586000Y-112545000D01*
G75*
G02*
X178436000Y-112695000I-150000J0D01*
G01*
X176786000Y-112695000D01*
G75*
G02*
X176636000Y-112545000I0J150000D01*
G01*
G37*
G36*
G01*
X179520000Y-126515000D02*
X179520000Y-126215000D01*
G75*
G02*
X179670000Y-126065000I150000J0D01*
G01*
X181420000Y-126065000D01*
G75*
G02*
X181570000Y-126215000I0J-150000D01*
G01*
X181570000Y-126515000D01*
G75*
G02*
X181420000Y-126665000I-150000J0D01*
G01*
X179670000Y-126665000D01*
G75*
G02*
X179520000Y-126515000I0J150000D01*
G01*
G37*
G36*
G01*
X179520000Y-127785000D02*
X179520000Y-127485000D01*
G75*
G02*
X179670000Y-127335000I150000J0D01*
G01*
X181420000Y-127335000D01*
G75*
G02*
X181570000Y-127485000I0J-150000D01*
G01*
X181570000Y-127785000D01*
G75*
G02*
X181420000Y-127935000I-150000J0D01*
G01*
X179670000Y-127935000D01*
G75*
G02*
X179520000Y-127785000I0J150000D01*
G01*
G37*
G36*
G01*
X179520000Y-129055000D02*
X179520000Y-128755000D01*
G75*
G02*
X179670000Y-128605000I150000J0D01*
G01*
X181420000Y-128605000D01*
G75*
G02*
X181570000Y-128755000I0J-150000D01*
G01*
X181570000Y-129055000D01*
G75*
G02*
X181420000Y-129205000I-150000J0D01*
G01*
X179670000Y-129205000D01*
G75*
G02*
X179520000Y-129055000I0J150000D01*
G01*
G37*
G36*
G01*
X179520000Y-130325000D02*
X179520000Y-130025000D01*
G75*
G02*
X179670000Y-129875000I150000J0D01*
G01*
X181420000Y-129875000D01*
G75*
G02*
X181570000Y-130025000I0J-150000D01*
G01*
X181570000Y-130325000D01*
G75*
G02*
X181420000Y-130475000I-150000J0D01*
G01*
X179670000Y-130475000D01*
G75*
G02*
X179520000Y-130325000I0J150000D01*
G01*
G37*
G36*
G01*
X179520000Y-131595000D02*
X179520000Y-131295000D01*
G75*
G02*
X179670000Y-131145000I150000J0D01*
G01*
X181420000Y-131145000D01*
G75*
G02*
X181570000Y-131295000I0J-150000D01*
G01*
X181570000Y-131595000D01*
G75*
G02*
X181420000Y-131745000I-150000J0D01*
G01*
X179670000Y-131745000D01*
G75*
G02*
X179520000Y-131595000I0J150000D01*
G01*
G37*
G36*
G01*
X179520000Y-132865000D02*
X179520000Y-132565000D01*
G75*
G02*
X179670000Y-132415000I150000J0D01*
G01*
X181420000Y-132415000D01*
G75*
G02*
X181570000Y-132565000I0J-150000D01*
G01*
X181570000Y-132865000D01*
G75*
G02*
X181420000Y-133015000I-150000J0D01*
G01*
X179670000Y-133015000D01*
G75*
G02*
X179520000Y-132865000I0J150000D01*
G01*
G37*
G36*
G01*
X179520000Y-134135000D02*
X179520000Y-133835000D01*
G75*
G02*
X179670000Y-133685000I150000J0D01*
G01*
X181420000Y-133685000D01*
G75*
G02*
X181570000Y-133835000I0J-150000D01*
G01*
X181570000Y-134135000D01*
G75*
G02*
X181420000Y-134285000I-150000J0D01*
G01*
X179670000Y-134285000D01*
G75*
G02*
X179520000Y-134135000I0J150000D01*
G01*
G37*
G36*
G01*
X179520000Y-135405000D02*
X179520000Y-135105000D01*
G75*
G02*
X179670000Y-134955000I150000J0D01*
G01*
X181420000Y-134955000D01*
G75*
G02*
X181570000Y-135105000I0J-150000D01*
G01*
X181570000Y-135405000D01*
G75*
G02*
X181420000Y-135555000I-150000J0D01*
G01*
X179670000Y-135555000D01*
G75*
G02*
X179520000Y-135405000I0J150000D01*
G01*
G37*
G36*
G01*
X179520000Y-136675000D02*
X179520000Y-136375000D01*
G75*
G02*
X179670000Y-136225000I150000J0D01*
G01*
X181420000Y-136225000D01*
G75*
G02*
X181570000Y-136375000I0J-150000D01*
G01*
X181570000Y-136675000D01*
G75*
G02*
X181420000Y-136825000I-150000J0D01*
G01*
X179670000Y-136825000D01*
G75*
G02*
X179520000Y-136675000I0J150000D01*
G01*
G37*
G36*
G01*
X179520000Y-137945000D02*
X179520000Y-137645000D01*
G75*
G02*
X179670000Y-137495000I150000J0D01*
G01*
X181420000Y-137495000D01*
G75*
G02*
X181570000Y-137645000I0J-150000D01*
G01*
X181570000Y-137945000D01*
G75*
G02*
X181420000Y-138095000I-150000J0D01*
G01*
X179670000Y-138095000D01*
G75*
G02*
X179520000Y-137945000I0J150000D01*
G01*
G37*
G36*
G01*
X170220000Y-137945000D02*
X170220000Y-137645000D01*
G75*
G02*
X170370000Y-137495000I150000J0D01*
G01*
X172120000Y-137495000D01*
G75*
G02*
X172270000Y-137645000I0J-150000D01*
G01*
X172270000Y-137945000D01*
G75*
G02*
X172120000Y-138095000I-150000J0D01*
G01*
X170370000Y-138095000D01*
G75*
G02*
X170220000Y-137945000I0J150000D01*
G01*
G37*
G36*
G01*
X170220000Y-136675000D02*
X170220000Y-136375000D01*
G75*
G02*
X170370000Y-136225000I150000J0D01*
G01*
X172120000Y-136225000D01*
G75*
G02*
X172270000Y-136375000I0J-150000D01*
G01*
X172270000Y-136675000D01*
G75*
G02*
X172120000Y-136825000I-150000J0D01*
G01*
X170370000Y-136825000D01*
G75*
G02*
X170220000Y-136675000I0J150000D01*
G01*
G37*
G36*
G01*
X170220000Y-135405000D02*
X170220000Y-135105000D01*
G75*
G02*
X170370000Y-134955000I150000J0D01*
G01*
X172120000Y-134955000D01*
G75*
G02*
X172270000Y-135105000I0J-150000D01*
G01*
X172270000Y-135405000D01*
G75*
G02*
X172120000Y-135555000I-150000J0D01*
G01*
X170370000Y-135555000D01*
G75*
G02*
X170220000Y-135405000I0J150000D01*
G01*
G37*
G36*
G01*
X170220000Y-134135000D02*
X170220000Y-133835000D01*
G75*
G02*
X170370000Y-133685000I150000J0D01*
G01*
X172120000Y-133685000D01*
G75*
G02*
X172270000Y-133835000I0J-150000D01*
G01*
X172270000Y-134135000D01*
G75*
G02*
X172120000Y-134285000I-150000J0D01*
G01*
X170370000Y-134285000D01*
G75*
G02*
X170220000Y-134135000I0J150000D01*
G01*
G37*
G36*
G01*
X170220000Y-132865000D02*
X170220000Y-132565000D01*
G75*
G02*
X170370000Y-132415000I150000J0D01*
G01*
X172120000Y-132415000D01*
G75*
G02*
X172270000Y-132565000I0J-150000D01*
G01*
X172270000Y-132865000D01*
G75*
G02*
X172120000Y-133015000I-150000J0D01*
G01*
X170370000Y-133015000D01*
G75*
G02*
X170220000Y-132865000I0J150000D01*
G01*
G37*
G36*
G01*
X170220000Y-131595000D02*
X170220000Y-131295000D01*
G75*
G02*
X170370000Y-131145000I150000J0D01*
G01*
X172120000Y-131145000D01*
G75*
G02*
X172270000Y-131295000I0J-150000D01*
G01*
X172270000Y-131595000D01*
G75*
G02*
X172120000Y-131745000I-150000J0D01*
G01*
X170370000Y-131745000D01*
G75*
G02*
X170220000Y-131595000I0J150000D01*
G01*
G37*
G36*
G01*
X170220000Y-130325000D02*
X170220000Y-130025000D01*
G75*
G02*
X170370000Y-129875000I150000J0D01*
G01*
X172120000Y-129875000D01*
G75*
G02*
X172270000Y-130025000I0J-150000D01*
G01*
X172270000Y-130325000D01*
G75*
G02*
X172120000Y-130475000I-150000J0D01*
G01*
X170370000Y-130475000D01*
G75*
G02*
X170220000Y-130325000I0J150000D01*
G01*
G37*
G36*
G01*
X170220000Y-129055000D02*
X170220000Y-128755000D01*
G75*
G02*
X170370000Y-128605000I150000J0D01*
G01*
X172120000Y-128605000D01*
G75*
G02*
X172270000Y-128755000I0J-150000D01*
G01*
X172270000Y-129055000D01*
G75*
G02*
X172120000Y-129205000I-150000J0D01*
G01*
X170370000Y-129205000D01*
G75*
G02*
X170220000Y-129055000I0J150000D01*
G01*
G37*
G36*
G01*
X170220000Y-127785000D02*
X170220000Y-127485000D01*
G75*
G02*
X170370000Y-127335000I150000J0D01*
G01*
X172120000Y-127335000D01*
G75*
G02*
X172270000Y-127485000I0J-150000D01*
G01*
X172270000Y-127785000D01*
G75*
G02*
X172120000Y-127935000I-150000J0D01*
G01*
X170370000Y-127935000D01*
G75*
G02*
X170220000Y-127785000I0J150000D01*
G01*
G37*
G36*
G01*
X170220000Y-126515000D02*
X170220000Y-126215000D01*
G75*
G02*
X170370000Y-126065000I150000J0D01*
G01*
X172120000Y-126065000D01*
G75*
G02*
X172270000Y-126215000I0J-150000D01*
G01*
X172270000Y-126515000D01*
G75*
G02*
X172120000Y-126665000I-150000J0D01*
G01*
X170370000Y-126665000D01*
G75*
G02*
X170220000Y-126515000I0J150000D01*
G01*
G37*
D24*
X119450000Y-85770000D03*
X119450000Y-132020000D03*
X159450000Y-132020000D03*
X159450000Y-85770000D03*
X189450000Y-85770000D03*
X189450000Y-132020000D03*
D25*
X136778000Y-80899000D03*
X136778000Y-82169000D03*
X136778000Y-83439000D03*
X136778000Y-84709000D03*
X136778000Y-85979000D03*
X136778000Y-87249000D03*
X136778000Y-88519000D03*
X136778000Y-89789000D03*
X136778000Y-91059000D03*
X136778000Y-92329000D03*
X136778000Y-93599000D03*
X136778000Y-94869000D03*
X136778000Y-96139000D03*
X136778000Y-97409000D03*
X146178000Y-97409000D03*
X146178000Y-96139000D03*
X146178000Y-94869000D03*
X146178000Y-93599000D03*
X146178000Y-92329000D03*
X146178000Y-91059000D03*
X146178000Y-89789000D03*
X146178000Y-88519000D03*
X146178000Y-87249000D03*
X146178000Y-85979000D03*
X146178000Y-84709000D03*
X146178000Y-83439000D03*
X146178000Y-82169000D03*
X146178000Y-80899000D03*
D26*
X184785000Y-87630000D03*
D27*
X177165000Y-87630000D03*
M02*
