%FSLAX45Y45*%
G04 Gerber Fmt 4.5, Leading zero omitted, Abs format (unit mm)*
G04 Created by KiCad (PCBNEW 5.1.12) date 2023-02-14 20:38:05*
%MOMM*%
%LPD*%
G01*
G04 APERTURE LIST*
%TA.AperFunction,Profile*%
%ADD10C,0.150000*%
%TD*%
%ADD11C,0.200000*%
%ADD12C,0.300000*%
G04 APERTURE END LIST*
D10*
X10970000Y-7583000D02*
X16248500Y-7583000D01*
X16248500Y-7583000D02*
X16248500Y-8097500D01*
X16248500Y-8097500D02*
G75*
G03*
X16911500Y-8097500I331500J0D01*
G01*
X16911500Y-8097500D02*
X16911500Y-7583000D01*
X16911500Y-7583000D02*
X20970000Y-7583000D01*
X20970000Y-7583000D02*
X20970000Y-14197000D01*
X20970000Y-14197000D02*
X16911500Y-14197000D01*
X16911500Y-14197000D02*
X16911500Y-13682500D01*
X16911500Y-13682500D02*
G75*
G03*
X16248500Y-13682500I-331500J0D01*
G01*
X16248500Y-13682500D02*
X16248500Y-14197000D01*
X16248500Y-14197000D02*
X10970000Y-14197000D01*
X10970000Y-14197000D02*
X10970000Y-11262900D01*
X10970000Y-11262900D02*
X11198060Y-11262900D01*
X11198060Y-11262900D02*
X11198060Y-10649890D01*
X11198060Y-10649890D02*
X11683200Y-10649890D01*
X11683200Y-10649890D02*
X11683200Y-8727110D01*
X11683200Y-8727110D02*
X11198060Y-8727110D01*
X11198060Y-8727110D02*
X11198060Y-8114100D01*
X11198060Y-8114100D02*
X10970000Y-8114100D01*
X10970000Y-8114100D02*
X10970000Y-7583000D01*
D11*
X12451400Y-8704900D02*
X12491400Y-8744900D01*
X12491400Y-8704900D02*
X12451400Y-8744900D01*
X13162600Y-8577900D02*
X13202600Y-8617900D01*
X13202600Y-8577900D02*
X13162600Y-8617900D01*
X13226100Y-8831900D02*
X13266100Y-8871900D01*
X13266100Y-8831900D02*
X13226100Y-8871900D01*
X13226100Y-10178100D02*
X13266100Y-10218100D01*
X13266100Y-10178100D02*
X13226100Y-10218100D01*
X13327700Y-8958900D02*
X13367700Y-8998900D01*
X13367700Y-8958900D02*
X13327700Y-8998900D01*
X13327700Y-9670100D02*
X13367700Y-9710100D01*
X13367700Y-9670100D02*
X13327700Y-9710100D01*
X13391200Y-9085900D02*
X13431200Y-9125900D01*
X13431200Y-9085900D02*
X13391200Y-9125900D01*
X13391200Y-10051100D02*
X13431200Y-10091100D01*
X13431200Y-10051100D02*
X13391200Y-10091100D01*
X13480100Y-9212900D02*
X13520100Y-9252900D01*
X13520100Y-9212900D02*
X13480100Y-9252900D01*
X13480100Y-10343200D02*
X13520100Y-10383200D01*
X13520100Y-10343200D02*
X13480100Y-10383200D01*
X13835700Y-9593900D02*
X13875700Y-9633900D01*
X13875700Y-9593900D02*
X13835700Y-9633900D01*
X13835700Y-9835200D02*
X13875700Y-9875200D01*
X13875700Y-9835200D02*
X13835700Y-9875200D01*
X13911900Y-9339900D02*
X13951900Y-9379900D01*
X13951900Y-9339900D02*
X13911900Y-9379900D01*
X13924600Y-11575100D02*
X13964600Y-11615100D01*
X13964600Y-11575100D02*
X13924600Y-11615100D01*
X14331000Y-8311200D02*
X14371000Y-8351200D01*
X14371000Y-8311200D02*
X14331000Y-8351200D01*
X14331000Y-9720900D02*
X14371000Y-9760900D01*
X14371000Y-9720900D02*
X14331000Y-9760900D01*
X14407200Y-8196900D02*
X14447200Y-8236900D01*
X14447200Y-8196900D02*
X14407200Y-8236900D01*
X14458000Y-8704900D02*
X14498000Y-8744900D01*
X14498000Y-8704900D02*
X14458000Y-8744900D01*
X14458000Y-11727500D02*
X14498000Y-11767500D01*
X14498000Y-11727500D02*
X14458000Y-11767500D01*
X14585000Y-11346500D02*
X14625000Y-11386500D01*
X14625000Y-11346500D02*
X14585000Y-11386500D01*
X14712000Y-11664000D02*
X14752000Y-11704000D01*
X14752000Y-11664000D02*
X14712000Y-11704000D01*
X14788200Y-9085900D02*
X14828200Y-9125900D01*
X14828200Y-9085900D02*
X14788200Y-9125900D01*
X14839000Y-11791000D02*
X14879000Y-11831000D01*
X14879000Y-11791000D02*
X14839000Y-11831000D01*
X14877100Y-8958900D02*
X14917100Y-8998900D01*
X14917100Y-8958900D02*
X14877100Y-8998900D01*
X14966000Y-9466900D02*
X15006000Y-9506900D01*
X15006000Y-9466900D02*
X14966000Y-9506900D01*
X14966000Y-11410000D02*
X15006000Y-11450000D01*
X15006000Y-11410000D02*
X14966000Y-11450000D01*
X14966000Y-11575100D02*
X15006000Y-11615100D01*
X15006000Y-11575100D02*
X14966000Y-11615100D01*
X15093000Y-8831900D02*
X15133000Y-8871900D01*
X15133000Y-8831900D02*
X15093000Y-8871900D01*
X15093000Y-12045000D02*
X15133000Y-12085000D01*
X15133000Y-12045000D02*
X15093000Y-12085000D01*
X15220000Y-9835200D02*
X15260000Y-9875200D01*
X15260000Y-9835200D02*
X15220000Y-9875200D01*
X15220000Y-11219500D02*
X15260000Y-11259500D01*
X15260000Y-11219500D02*
X15220000Y-11259500D01*
X15347000Y-9212900D02*
X15387000Y-9252900D01*
X15387000Y-9212900D02*
X15347000Y-9252900D01*
X15423200Y-8717600D02*
X15463200Y-8757600D01*
X15463200Y-8717600D02*
X15423200Y-8757600D01*
X15474000Y-12045000D02*
X15514000Y-12085000D01*
X15514000Y-12045000D02*
X15474000Y-12085000D01*
X15537500Y-8298500D02*
X15577500Y-8338500D01*
X15577500Y-8298500D02*
X15537500Y-8338500D01*
X15601000Y-11473500D02*
X15641000Y-11513500D01*
X15641000Y-11473500D02*
X15601000Y-11513500D01*
X15728000Y-11791000D02*
X15768000Y-11831000D01*
X15768000Y-11791000D02*
X15728000Y-11831000D01*
X15982000Y-11537000D02*
X16022000Y-11577000D01*
X16022000Y-11537000D02*
X15982000Y-11577000D01*
X16299500Y-11092500D02*
X16339500Y-11132500D01*
X16339500Y-11092500D02*
X16299500Y-11132500D01*
X16744000Y-11346500D02*
X16784000Y-11386500D01*
X16784000Y-11346500D02*
X16744000Y-11386500D01*
X16871000Y-12045000D02*
X16911000Y-12085000D01*
X16911000Y-12045000D02*
X16871000Y-12085000D01*
X16871000Y-13251500D02*
X16911000Y-13291500D01*
X16911000Y-13251500D02*
X16871000Y-13291500D01*
X17315500Y-11092500D02*
X17355500Y-11132500D01*
X17355500Y-11092500D02*
X17315500Y-11132500D01*
X17315500Y-11791000D02*
X17355500Y-11831000D01*
X17355500Y-11791000D02*
X17315500Y-11831000D01*
X17315500Y-12997500D02*
X17355500Y-13037500D01*
X17355500Y-12997500D02*
X17315500Y-13037500D01*
X17379000Y-11727500D02*
X17419000Y-11767500D01*
X17419000Y-11727500D02*
X17379000Y-11767500D01*
X17379000Y-13505500D02*
X17419000Y-13545500D01*
X17419000Y-13505500D02*
X17379000Y-13545500D01*
X17442500Y-11219500D02*
X17482500Y-11259500D01*
X17482500Y-11219500D02*
X17442500Y-11259500D01*
X17442500Y-11537000D02*
X17482500Y-11577000D01*
X17482500Y-11537000D02*
X17442500Y-11577000D01*
X17442500Y-11664000D02*
X17482500Y-11704000D01*
X17482500Y-11664000D02*
X17442500Y-11704000D01*
X17442500Y-13632500D02*
X17482500Y-13672500D01*
X17482500Y-13632500D02*
X17442500Y-13672500D01*
X17506000Y-11410000D02*
X17546000Y-11450000D01*
X17546000Y-11410000D02*
X17506000Y-11450000D01*
X17506000Y-13251500D02*
X17546000Y-13291500D01*
X17546000Y-13251500D02*
X17506000Y-13291500D01*
X17569500Y-11473500D02*
X17609500Y-11513500D01*
X17609500Y-11473500D02*
X17569500Y-11513500D01*
X17569500Y-13124500D02*
X17609500Y-13164500D01*
X17609500Y-13124500D02*
X17569500Y-13164500D01*
X18204500Y-12870500D02*
X18244500Y-12910500D01*
X18244500Y-12870500D02*
X18204500Y-12910500D01*
X18204500Y-12997500D02*
X18244500Y-13037500D01*
X18244500Y-12997500D02*
X18204500Y-13037500D01*
X18331500Y-13124500D02*
X18371500Y-13164500D01*
X18371500Y-13124500D02*
X18331500Y-13164500D01*
X18395000Y-13251500D02*
X18435000Y-13291500D01*
X18435000Y-13251500D02*
X18395000Y-13291500D01*
X18458500Y-13378500D02*
X18498500Y-13418500D01*
X18498500Y-13378500D02*
X18458500Y-13418500D01*
X19284000Y-13759500D02*
X19324000Y-13799500D01*
X19324000Y-13759500D02*
X19284000Y-13799500D01*
X19474500Y-13632500D02*
X19514500Y-13672500D01*
X19514500Y-13632500D02*
X19474500Y-13672500D01*
X19538000Y-13569000D02*
X19578000Y-13609000D01*
X19578000Y-13569000D02*
X19538000Y-13609000D01*
X17056100Y-9080500D02*
G75*
G03*
X17056100Y-9080500I-38100J0D01*
G01*
X17056100Y-9334500D02*
G75*
G03*
X17056100Y-9334500I-38100J0D01*
G01*
X17056100Y-9588500D02*
G75*
G03*
X17056100Y-9588500I-38100J0D01*
G01*
X17056100Y-9842500D02*
G75*
G03*
X17056100Y-9842500I-38100J0D01*
G01*
X17056100Y-10096500D02*
G75*
G03*
X17056100Y-10096500I-38100J0D01*
G01*
X17056100Y-10350500D02*
G75*
G03*
X17056100Y-10350500I-38100J0D01*
G01*
X17056100Y-10604500D02*
G75*
G03*
X17056100Y-10604500I-38100J0D01*
G01*
X17056100Y-10858500D02*
G75*
G03*
X17056100Y-10858500I-38100J0D01*
G01*
X18859500Y-9080500D02*
G75*
G03*
X18859500Y-9080500I-38100J0D01*
G01*
X18859500Y-9334500D02*
G75*
G03*
X18859500Y-9334500I-38100J0D01*
G01*
X18859500Y-9588500D02*
G75*
G03*
X18859500Y-9588500I-38100J0D01*
G01*
X18859500Y-9842500D02*
G75*
G03*
X18859500Y-9842500I-38100J0D01*
G01*
X18859500Y-10096500D02*
G75*
G03*
X18859500Y-10096500I-38100J0D01*
G01*
X18859500Y-10350500D02*
G75*
G03*
X18859500Y-10350500I-38100J0D01*
G01*
X18859500Y-10604500D02*
G75*
G03*
X18859500Y-10604500I-38100J0D01*
G01*
X18859500Y-10858500D02*
G75*
G03*
X18859500Y-10858500I-38100J0D01*
G01*
X12750800Y-8049900D02*
X12750800Y-8129900D01*
X12710800Y-8089900D02*
X12790800Y-8089900D01*
X12750800Y-8299900D02*
X12750800Y-8379900D01*
X12710800Y-8339900D02*
X12790800Y-8339900D01*
X13106400Y-8180900D02*
X13106400Y-8260900D01*
X13066400Y-8220900D02*
X13146400Y-8220900D01*
X13106400Y-8430900D02*
X13106400Y-8510900D01*
X13066400Y-8470900D02*
X13146400Y-8470900D01*
X14351000Y-7770500D02*
X14351000Y-7850500D01*
X14311000Y-7810500D02*
X14391000Y-7810500D01*
X14601000Y-7770500D02*
X14601000Y-7850500D01*
X14561000Y-7810500D02*
X14641000Y-7810500D01*
X14986000Y-8053900D02*
X14986000Y-8133900D01*
X14946000Y-8093900D02*
X15026000Y-8093900D01*
X14986000Y-8303900D02*
X14986000Y-8383900D01*
X14946000Y-8343900D02*
X15026000Y-8343900D01*
X15303500Y-7757800D02*
X15303500Y-7837800D01*
X15263500Y-7797800D02*
X15343500Y-7797800D01*
X15303500Y-8519800D02*
X15303500Y-8599800D01*
X15263500Y-8559800D02*
X15343500Y-8559800D01*
X15697200Y-9192900D02*
X15697200Y-9272900D01*
X15657200Y-9232900D02*
X15737200Y-9232900D01*
X15697200Y-9700900D02*
X15697200Y-9780900D01*
X15657200Y-9740900D02*
X15737200Y-9740900D01*
X15947200Y-9700900D02*
X15947200Y-9780900D01*
X15907200Y-9740900D02*
X15987200Y-9740900D01*
X15951200Y-9192900D02*
X15951200Y-9272900D01*
X15911200Y-9232900D02*
X15991200Y-9232900D01*
X16205200Y-9192900D02*
X16205200Y-9272900D01*
X16165200Y-9232900D02*
X16245200Y-9232900D01*
X16446500Y-8951600D02*
X16446500Y-9031600D01*
X16406500Y-8991600D02*
X16486500Y-8991600D01*
X16446500Y-9713600D02*
X16446500Y-9793600D01*
X16406500Y-9753600D02*
X16486500Y-9753600D01*
X17145000Y-11199500D02*
X17145000Y-11279500D01*
X17105000Y-11239500D02*
X17185000Y-11239500D01*
X17145000Y-11961500D02*
X17145000Y-12041500D01*
X17105000Y-12001500D02*
X17185000Y-12001500D01*
X17716500Y-8723000D02*
X17716500Y-8803000D01*
X17676500Y-8763000D02*
X17756500Y-8763000D01*
X17784000Y-12342500D02*
X17784000Y-12422500D01*
X17744000Y-12382500D02*
X17824000Y-12382500D01*
X18034000Y-12342500D02*
X18034000Y-12422500D01*
X17994000Y-12382500D02*
X18074000Y-12382500D01*
X18478500Y-8723000D02*
X18478500Y-8803000D01*
X18438500Y-8763000D02*
X18518500Y-8763000D01*
X18605500Y-11136000D02*
X18605500Y-11216000D01*
X18565500Y-11176000D02*
X18645500Y-11176000D01*
X18605500Y-11386000D02*
X18605500Y-11466000D01*
X18565500Y-11426000D02*
X18645500Y-11426000D01*
X19310350Y-10818500D02*
X19310350Y-10898500D01*
X19270350Y-10858500D02*
X19350350Y-10858500D01*
X19310350Y-11072500D02*
X19310350Y-11152500D01*
X19270350Y-11112500D02*
X19350350Y-11112500D01*
X19310350Y-11326500D02*
X19310350Y-11406500D01*
X19270350Y-11366500D02*
X19350350Y-11366500D01*
X19310350Y-11580500D02*
X19310350Y-11660500D01*
X19270350Y-11620500D02*
X19350350Y-11620500D01*
X19310350Y-11834500D02*
X19310350Y-11914500D01*
X19270350Y-11874500D02*
X19350350Y-11874500D01*
X19310350Y-12088500D02*
X19310350Y-12168500D01*
X19270350Y-12128500D02*
X19350350Y-12128500D01*
X19310350Y-12342500D02*
X19310350Y-12422500D01*
X19270350Y-12382500D02*
X19350350Y-12382500D01*
X19310350Y-12596500D02*
X19310350Y-12676500D01*
X19270350Y-12636500D02*
X19350350Y-12636500D01*
X20072350Y-10818500D02*
X20072350Y-10898500D01*
X20032350Y-10858500D02*
X20112350Y-10858500D01*
X20072350Y-11072500D02*
X20072350Y-11152500D01*
X20032350Y-11112500D02*
X20112350Y-11112500D01*
X20072350Y-11326500D02*
X20072350Y-11406500D01*
X20032350Y-11366500D02*
X20112350Y-11366500D01*
X20072350Y-11580500D02*
X20072350Y-11660500D01*
X20032350Y-11620500D02*
X20112350Y-11620500D01*
X20072350Y-11834500D02*
X20072350Y-11914500D01*
X20032350Y-11874500D02*
X20112350Y-11874500D01*
X20072350Y-12088500D02*
X20072350Y-12168500D01*
X20032350Y-12128500D02*
X20112350Y-12128500D01*
X20072350Y-12342500D02*
X20072350Y-12422500D01*
X20032350Y-12382500D02*
X20112350Y-12382500D01*
X20072350Y-12596500D02*
X20072350Y-12676500D01*
X20032350Y-12636500D02*
X20112350Y-12636500D01*
X11396422Y-12258356D02*
X11396422Y-12187644D01*
X11325710Y-12187644D01*
X11325710Y-12258356D01*
X11396422Y-12258356D01*
X11321066Y-12123000D02*
X11321066Y-12323000D01*
X11401066Y-12123000D02*
X11401066Y-12323000D01*
X11321066Y-12323000D02*
G75*
G03*
X11401066Y-12323000I40000J0D01*
G01*
X11401066Y-12123000D02*
G75*
G03*
X11321066Y-12123000I-40000J0D01*
G01*
X11696396Y-12728256D02*
X11696396Y-12657544D01*
X11625684Y-12657544D01*
X11625684Y-12728256D01*
X11696396Y-12728256D01*
X11561040Y-12732900D02*
X11761040Y-12732900D01*
X11561040Y-12652900D02*
X11761040Y-12652900D01*
X11761040Y-12732900D02*
G75*
G03*
X11761040Y-12652900I0J40000D01*
G01*
X11561040Y-12652900D02*
G75*
G03*
X11561040Y-12732900I0J-40000D01*
G01*
X11996370Y-12258356D02*
X11996370Y-12187644D01*
X11925658Y-12187644D01*
X11925658Y-12258356D01*
X11996370Y-12258356D01*
X11921014Y-12123000D02*
X11921014Y-12323000D01*
X12001014Y-12123000D02*
X12001014Y-12323000D01*
X11921014Y-12323000D02*
G75*
G03*
X12001014Y-12323000I40000J0D01*
G01*
X12001014Y-12123000D02*
G75*
G03*
X11921014Y-12123000I-40000J0D01*
G01*
X12671856Y-9215856D02*
X12671856Y-9145144D01*
X12601144Y-9145144D01*
X12601144Y-9215856D01*
X12671856Y-9215856D01*
X12671856Y-9469856D02*
X12671856Y-9399144D01*
X12601144Y-9399144D01*
X12601144Y-9469856D01*
X12671856Y-9469856D01*
X12671856Y-9723856D02*
X12671856Y-9653144D01*
X12601144Y-9653144D01*
X12601144Y-9723856D01*
X12671856Y-9723856D01*
X12671856Y-9977856D02*
X12671856Y-9907144D01*
X12601144Y-9907144D01*
X12601144Y-9977856D01*
X12671856Y-9977856D01*
X12671856Y-10231856D02*
X12671856Y-10161144D01*
X12601144Y-10161144D01*
X12601144Y-10231856D01*
X12671856Y-10231856D01*
X12925856Y-9215856D02*
X12925856Y-9145144D01*
X12855144Y-9145144D01*
X12855144Y-9215856D01*
X12925856Y-9215856D01*
X12925856Y-9469856D02*
X12925856Y-9399144D01*
X12855144Y-9399144D01*
X12855144Y-9469856D01*
X12925856Y-9469856D01*
X12925856Y-9723856D02*
X12925856Y-9653144D01*
X12855144Y-9653144D01*
X12855144Y-9723856D01*
X12925856Y-9723856D01*
X12925856Y-9977856D02*
X12925856Y-9907144D01*
X12855144Y-9907144D01*
X12855144Y-9977856D01*
X12925856Y-9977856D01*
X12925856Y-10231856D02*
X12925856Y-10161144D01*
X12855144Y-10161144D01*
X12855144Y-10231856D01*
X12925856Y-10231856D01*
X14259356Y-10322356D02*
X14259356Y-10251644D01*
X14188644Y-10251644D01*
X14188644Y-10322356D01*
X14259356Y-10322356D01*
X14259356Y-12608356D02*
X14259356Y-12537644D01*
X14188644Y-12537644D01*
X14188644Y-12608356D01*
X14259356Y-12608356D01*
X14513356Y-10322356D02*
X14513356Y-10251644D01*
X14442644Y-10251644D01*
X14442644Y-10322356D01*
X14513356Y-10322356D01*
X14513356Y-12608356D02*
X14513356Y-12537644D01*
X14442644Y-12537644D01*
X14442644Y-12608356D01*
X14513356Y-12608356D01*
X14767356Y-10322356D02*
X14767356Y-10251644D01*
X14696644Y-10251644D01*
X14696644Y-10322356D01*
X14767356Y-10322356D01*
X14767356Y-12608356D02*
X14767356Y-12537644D01*
X14696644Y-12537644D01*
X14696644Y-12608356D01*
X14767356Y-12608356D01*
X15021356Y-10322356D02*
X15021356Y-10251644D01*
X14950644Y-10251644D01*
X14950644Y-10322356D01*
X15021356Y-10322356D01*
X15021356Y-12608356D02*
X15021356Y-12537644D01*
X14950644Y-12537644D01*
X14950644Y-12608356D01*
X15021356Y-12608356D01*
X15275356Y-10322356D02*
X15275356Y-10251644D01*
X15204644Y-10251644D01*
X15204644Y-10322356D01*
X15275356Y-10322356D01*
X15275356Y-12608356D02*
X15275356Y-12537644D01*
X15204644Y-12537644D01*
X15204644Y-12608356D01*
X15275356Y-12608356D01*
X15529356Y-10322356D02*
X15529356Y-10251644D01*
X15458644Y-10251644D01*
X15458644Y-10322356D01*
X15529356Y-10322356D01*
X15529356Y-12608356D02*
X15529356Y-12537644D01*
X15458644Y-12537644D01*
X15458644Y-12608356D01*
X15529356Y-12608356D01*
X15783356Y-10322356D02*
X15783356Y-10251644D01*
X15712644Y-10251644D01*
X15712644Y-10322356D01*
X15783356Y-10322356D01*
X15783356Y-12608356D02*
X15783356Y-12537644D01*
X15712644Y-12537644D01*
X15712644Y-12608356D01*
X15783356Y-12608356D01*
X16037356Y-10322356D02*
X16037356Y-10251644D01*
X15966644Y-10251644D01*
X15966644Y-10322356D01*
X16037356Y-10322356D01*
X16037356Y-12608356D02*
X16037356Y-12537644D01*
X15966644Y-12537644D01*
X15966644Y-12608356D01*
X16037356Y-12608356D01*
X17370856Y-8353856D02*
X17370856Y-8283144D01*
X17300144Y-8283144D01*
X17300144Y-8353856D01*
X17370856Y-8353856D01*
X17624856Y-8353856D02*
X17624856Y-8283144D01*
X17554144Y-8283144D01*
X17554144Y-8353856D01*
X17624856Y-8353856D01*
X20609356Y-8486956D02*
X20609356Y-8416244D01*
X20538644Y-8416244D01*
X20538644Y-8486956D01*
X20609356Y-8486956D01*
X20609356Y-8740956D02*
X20609356Y-8670244D01*
X20538644Y-8670244D01*
X20538644Y-8740956D01*
X20609356Y-8740956D01*
X20609356Y-9147356D02*
X20609356Y-9076644D01*
X20538644Y-9076644D01*
X20538644Y-9147356D01*
X20609356Y-9147356D01*
X20609356Y-9401356D02*
X20609356Y-9330644D01*
X20538644Y-9330644D01*
X20538644Y-9401356D01*
X20609356Y-9401356D01*
X20609356Y-9807756D02*
X20609356Y-9737044D01*
X20538644Y-9737044D01*
X20538644Y-9807756D01*
X20609356Y-9807756D01*
X20609356Y-10061756D02*
X20609356Y-9991044D01*
X20538644Y-9991044D01*
X20538644Y-10061756D01*
X20609356Y-10061756D01*
X20609356Y-10468156D02*
X20609356Y-10397444D01*
X20538644Y-10397444D01*
X20538644Y-10468156D01*
X20609356Y-10468156D01*
X20609356Y-10722156D02*
X20609356Y-10651444D01*
X20538644Y-10651444D01*
X20538644Y-10722156D01*
X20609356Y-10722156D01*
X20609356Y-11128556D02*
X20609356Y-11057844D01*
X20538644Y-11057844D01*
X20538644Y-11128556D01*
X20609356Y-11128556D01*
X20609356Y-11382556D02*
X20609356Y-11311844D01*
X20538644Y-11311844D01*
X20538644Y-11382556D01*
X20609356Y-11382556D01*
X20609356Y-11788956D02*
X20609356Y-11718244D01*
X20538644Y-11718244D01*
X20538644Y-11788956D01*
X20609356Y-11788956D01*
X20609356Y-12042956D02*
X20609356Y-11972244D01*
X20538644Y-11972244D01*
X20538644Y-12042956D01*
X20609356Y-12042956D01*
X20609356Y-12449356D02*
X20609356Y-12378644D01*
X20538644Y-12378644D01*
X20538644Y-12449356D01*
X20609356Y-12449356D01*
X20609356Y-12703356D02*
X20609356Y-12632644D01*
X20538644Y-12632644D01*
X20538644Y-12703356D01*
X20609356Y-12703356D01*
X20609356Y-13109756D02*
X20609356Y-13039044D01*
X20538644Y-13039044D01*
X20538644Y-13109756D01*
X20609356Y-13109756D01*
X20609356Y-13363756D02*
X20609356Y-13293044D01*
X20538644Y-13293044D01*
X20538644Y-13363756D01*
X20609356Y-13363756D01*
D12*
X11248928Y-14670214D02*
X11248928Y-14370214D01*
X11320357Y-14370214D01*
X11363214Y-14384500D01*
X11391786Y-14413071D01*
X11406071Y-14441643D01*
X11420357Y-14498786D01*
X11420357Y-14541643D01*
X11406071Y-14598786D01*
X11391786Y-14627357D01*
X11363214Y-14655929D01*
X11320357Y-14670214D01*
X11248928Y-14670214D01*
X11548928Y-14670214D02*
X11548928Y-14470214D01*
X11548928Y-14527357D02*
X11563214Y-14498786D01*
X11577500Y-14484500D01*
X11606071Y-14470214D01*
X11634643Y-14470214D01*
X11734643Y-14670214D02*
X11734643Y-14470214D01*
X11734643Y-14370214D02*
X11720357Y-14384500D01*
X11734643Y-14398786D01*
X11748928Y-14384500D01*
X11734643Y-14370214D01*
X11734643Y-14398786D01*
X11920357Y-14670214D02*
X11891786Y-14655929D01*
X11877500Y-14627357D01*
X11877500Y-14370214D01*
X12077500Y-14670214D02*
X12048928Y-14655929D01*
X12034643Y-14627357D01*
X12034643Y-14370214D01*
X12420357Y-14670214D02*
X12420357Y-14370214D01*
X12520357Y-14584500D01*
X12620357Y-14370214D01*
X12620357Y-14670214D01*
X12891786Y-14670214D02*
X12891786Y-14513071D01*
X12877500Y-14484500D01*
X12848928Y-14470214D01*
X12791786Y-14470214D01*
X12763214Y-14484500D01*
X12891786Y-14655929D02*
X12863214Y-14670214D01*
X12791786Y-14670214D01*
X12763214Y-14655929D01*
X12748928Y-14627357D01*
X12748928Y-14598786D01*
X12763214Y-14570214D01*
X12791786Y-14555929D01*
X12863214Y-14555929D01*
X12891786Y-14541643D01*
X13034643Y-14470214D02*
X13034643Y-14770214D01*
X13034643Y-14484500D02*
X13063214Y-14470214D01*
X13120357Y-14470214D01*
X13148928Y-14484500D01*
X13163214Y-14498786D01*
X13177500Y-14527357D01*
X13177500Y-14613071D01*
X13163214Y-14641643D01*
X13148928Y-14655929D01*
X13120357Y-14670214D01*
X13063214Y-14670214D01*
X13034643Y-14655929D01*
X13306071Y-14641643D02*
X13320357Y-14655929D01*
X13306071Y-14670214D01*
X13291786Y-14655929D01*
X13306071Y-14641643D01*
X13306071Y-14670214D01*
X13306071Y-14484500D02*
X13320357Y-14498786D01*
X13306071Y-14513071D01*
X13291786Y-14498786D01*
X13306071Y-14484500D01*
X13306071Y-14513071D01*
X10922500Y-15144500D02*
X10962500Y-15184500D01*
X10962500Y-15144500D02*
X10922500Y-15184500D01*
X11306071Y-15000214D02*
X11334643Y-15000214D01*
X11363214Y-15014500D01*
X11377500Y-15028786D01*
X11391786Y-15057357D01*
X11406071Y-15114500D01*
X11406071Y-15185929D01*
X11391786Y-15243071D01*
X11377500Y-15271643D01*
X11363214Y-15285929D01*
X11334643Y-15300214D01*
X11306071Y-15300214D01*
X11277500Y-15285929D01*
X11263214Y-15271643D01*
X11248928Y-15243071D01*
X11234643Y-15185929D01*
X11234643Y-15114500D01*
X11248928Y-15057357D01*
X11263214Y-15028786D01*
X11277500Y-15014500D01*
X11306071Y-15000214D01*
X11534643Y-15271643D02*
X11548928Y-15285929D01*
X11534643Y-15300214D01*
X11520357Y-15285929D01*
X11534643Y-15271643D01*
X11534643Y-15300214D01*
X11806071Y-15100214D02*
X11806071Y-15300214D01*
X11734643Y-14985929D02*
X11663214Y-15200214D01*
X11848928Y-15200214D01*
X12020357Y-15000214D02*
X12048928Y-15000214D01*
X12077500Y-15014500D01*
X12091786Y-15028786D01*
X12106071Y-15057357D01*
X12120357Y-15114500D01*
X12120357Y-15185929D01*
X12106071Y-15243071D01*
X12091786Y-15271643D01*
X12077500Y-15285929D01*
X12048928Y-15300214D01*
X12020357Y-15300214D01*
X11991786Y-15285929D01*
X11977500Y-15271643D01*
X11963214Y-15243071D01*
X11948928Y-15185929D01*
X11948928Y-15114500D01*
X11963214Y-15057357D01*
X11977500Y-15028786D01*
X11991786Y-15014500D01*
X12020357Y-15000214D01*
X12306071Y-15000214D02*
X12334643Y-15000214D01*
X12363214Y-15014500D01*
X12377500Y-15028786D01*
X12391786Y-15057357D01*
X12406071Y-15114500D01*
X12406071Y-15185929D01*
X12391786Y-15243071D01*
X12377500Y-15271643D01*
X12363214Y-15285929D01*
X12334643Y-15300214D01*
X12306071Y-15300214D01*
X12277500Y-15285929D01*
X12263214Y-15271643D01*
X12248928Y-15243071D01*
X12234643Y-15185929D01*
X12234643Y-15114500D01*
X12248928Y-15057357D01*
X12263214Y-15028786D01*
X12277500Y-15014500D01*
X12306071Y-15000214D01*
X12534643Y-15300214D02*
X12534643Y-15100214D01*
X12534643Y-15128786D02*
X12548928Y-15114500D01*
X12577500Y-15100214D01*
X12620357Y-15100214D01*
X12648928Y-15114500D01*
X12663214Y-15143071D01*
X12663214Y-15300214D01*
X12663214Y-15143071D02*
X12677500Y-15114500D01*
X12706071Y-15100214D01*
X12748928Y-15100214D01*
X12777500Y-15114500D01*
X12791786Y-15143071D01*
X12791786Y-15300214D01*
X12934643Y-15300214D02*
X12934643Y-15100214D01*
X12934643Y-15128786D02*
X12948928Y-15114500D01*
X12977500Y-15100214D01*
X13020357Y-15100214D01*
X13048928Y-15114500D01*
X13063214Y-15143071D01*
X13063214Y-15300214D01*
X13063214Y-15143071D02*
X13077500Y-15114500D01*
X13106071Y-15100214D01*
X13148928Y-15100214D01*
X13177500Y-15114500D01*
X13191786Y-15143071D01*
X13191786Y-15300214D01*
X13777500Y-14985929D02*
X13520357Y-15371643D01*
X14163214Y-15000214D02*
X14191786Y-15000214D01*
X14220357Y-15014500D01*
X14234643Y-15028786D01*
X14248928Y-15057357D01*
X14263214Y-15114500D01*
X14263214Y-15185929D01*
X14248928Y-15243071D01*
X14234643Y-15271643D01*
X14220357Y-15285929D01*
X14191786Y-15300214D01*
X14163214Y-15300214D01*
X14134643Y-15285929D01*
X14120357Y-15271643D01*
X14106071Y-15243071D01*
X14091786Y-15185929D01*
X14091786Y-15114500D01*
X14106071Y-15057357D01*
X14120357Y-15028786D01*
X14134643Y-15014500D01*
X14163214Y-15000214D01*
X14391786Y-15271643D02*
X14406071Y-15285929D01*
X14391786Y-15300214D01*
X14377500Y-15285929D01*
X14391786Y-15271643D01*
X14391786Y-15300214D01*
X14591786Y-15000214D02*
X14620357Y-15000214D01*
X14648928Y-15014500D01*
X14663214Y-15028786D01*
X14677500Y-15057357D01*
X14691786Y-15114500D01*
X14691786Y-15185929D01*
X14677500Y-15243071D01*
X14663214Y-15271643D01*
X14648928Y-15285929D01*
X14620357Y-15300214D01*
X14591786Y-15300214D01*
X14563214Y-15285929D01*
X14548928Y-15271643D01*
X14534643Y-15243071D01*
X14520357Y-15185929D01*
X14520357Y-15114500D01*
X14534643Y-15057357D01*
X14548928Y-15028786D01*
X14563214Y-15014500D01*
X14591786Y-15000214D01*
X14977500Y-15300214D02*
X14806071Y-15300214D01*
X14891786Y-15300214D02*
X14891786Y-15000214D01*
X14863214Y-15043071D01*
X14834643Y-15071643D01*
X14806071Y-15085929D01*
X15248928Y-15000214D02*
X15106071Y-15000214D01*
X15091786Y-15143071D01*
X15106071Y-15128786D01*
X15134643Y-15114500D01*
X15206071Y-15114500D01*
X15234643Y-15128786D01*
X15248928Y-15143071D01*
X15263214Y-15171643D01*
X15263214Y-15243071D01*
X15248928Y-15271643D01*
X15234643Y-15285929D01*
X15206071Y-15300214D01*
X15134643Y-15300214D01*
X15106071Y-15285929D01*
X15091786Y-15271643D01*
X15363214Y-15000214D02*
X15563214Y-15000214D01*
X15434643Y-15300214D01*
X15663214Y-15000214D02*
X15663214Y-15057357D01*
X15777500Y-15000214D02*
X15777500Y-15057357D01*
X16220357Y-15414500D02*
X16206071Y-15400214D01*
X16177500Y-15357357D01*
X16163214Y-15328786D01*
X16148928Y-15285929D01*
X16134643Y-15214500D01*
X16134643Y-15157357D01*
X16148928Y-15085929D01*
X16163214Y-15043071D01*
X16177500Y-15014500D01*
X16206071Y-14971643D01*
X16220357Y-14957357D01*
X16463214Y-15000214D02*
X16406071Y-15000214D01*
X16377500Y-15014500D01*
X16363214Y-15028786D01*
X16334643Y-15071643D01*
X16320357Y-15128786D01*
X16320357Y-15243071D01*
X16334643Y-15271643D01*
X16348928Y-15285929D01*
X16377500Y-15300214D01*
X16434643Y-15300214D01*
X16463214Y-15285929D01*
X16477500Y-15271643D01*
X16491786Y-15243071D01*
X16491786Y-15171643D01*
X16477500Y-15143071D01*
X16463214Y-15128786D01*
X16434643Y-15114500D01*
X16377500Y-15114500D01*
X16348928Y-15128786D01*
X16334643Y-15143071D01*
X16320357Y-15171643D01*
X16591786Y-15000214D02*
X16777500Y-15000214D01*
X16677500Y-15114500D01*
X16720357Y-15114500D01*
X16748928Y-15128786D01*
X16763214Y-15143071D01*
X16777500Y-15171643D01*
X16777500Y-15243071D01*
X16763214Y-15271643D01*
X16748928Y-15285929D01*
X16720357Y-15300214D01*
X16634643Y-15300214D01*
X16606071Y-15285929D01*
X16591786Y-15271643D01*
X17134643Y-15300214D02*
X17134643Y-15000214D01*
X17263214Y-15300214D02*
X17263214Y-15143071D01*
X17248928Y-15114500D01*
X17220357Y-15100214D01*
X17177500Y-15100214D01*
X17148928Y-15114500D01*
X17134643Y-15128786D01*
X17448928Y-15300214D02*
X17420357Y-15285929D01*
X17406071Y-15271643D01*
X17391786Y-15243071D01*
X17391786Y-15157357D01*
X17406071Y-15128786D01*
X17420357Y-15114500D01*
X17448928Y-15100214D01*
X17491786Y-15100214D01*
X17520357Y-15114500D01*
X17534643Y-15128786D01*
X17548928Y-15157357D01*
X17548928Y-15243071D01*
X17534643Y-15271643D01*
X17520357Y-15285929D01*
X17491786Y-15300214D01*
X17448928Y-15300214D01*
X17720357Y-15300214D02*
X17691786Y-15285929D01*
X17677500Y-15257357D01*
X17677500Y-15000214D01*
X17948928Y-15285929D02*
X17920357Y-15300214D01*
X17863214Y-15300214D01*
X17834643Y-15285929D01*
X17820357Y-15257357D01*
X17820357Y-15143071D01*
X17834643Y-15114500D01*
X17863214Y-15100214D01*
X17920357Y-15100214D01*
X17948928Y-15114500D01*
X17963214Y-15143071D01*
X17963214Y-15171643D01*
X17820357Y-15200214D01*
X18077500Y-15285929D02*
X18106071Y-15300214D01*
X18163214Y-15300214D01*
X18191786Y-15285929D01*
X18206071Y-15257357D01*
X18206071Y-15243071D01*
X18191786Y-15214500D01*
X18163214Y-15200214D01*
X18120357Y-15200214D01*
X18091786Y-15185929D01*
X18077500Y-15157357D01*
X18077500Y-15143071D01*
X18091786Y-15114500D01*
X18120357Y-15100214D01*
X18163214Y-15100214D01*
X18191786Y-15114500D01*
X18306071Y-15414500D02*
X18320357Y-15400214D01*
X18348928Y-15357357D01*
X18363214Y-15328786D01*
X18377500Y-15285929D01*
X18391786Y-15214500D01*
X18391786Y-15157357D01*
X18377500Y-15085929D01*
X18363214Y-15043071D01*
X18348928Y-15014500D01*
X18320357Y-14971643D01*
X18306071Y-14957357D01*
X10962500Y-15560500D02*
G75*
G03*
X10962500Y-15560500I-38100J0D01*
G01*
X11306071Y-15396214D02*
X11334643Y-15396214D01*
X11363214Y-15410500D01*
X11377500Y-15424786D01*
X11391786Y-15453357D01*
X11406071Y-15510500D01*
X11406071Y-15581929D01*
X11391786Y-15639071D01*
X11377500Y-15667643D01*
X11363214Y-15681929D01*
X11334643Y-15696214D01*
X11306071Y-15696214D01*
X11277500Y-15681929D01*
X11263214Y-15667643D01*
X11248928Y-15639071D01*
X11234643Y-15581929D01*
X11234643Y-15510500D01*
X11248928Y-15453357D01*
X11263214Y-15424786D01*
X11277500Y-15410500D01*
X11306071Y-15396214D01*
X11534643Y-15667643D02*
X11548928Y-15681929D01*
X11534643Y-15696214D01*
X11520357Y-15681929D01*
X11534643Y-15667643D01*
X11534643Y-15696214D01*
X11648928Y-15396214D02*
X11848928Y-15396214D01*
X11720357Y-15696214D01*
X12091786Y-15396214D02*
X12034643Y-15396214D01*
X12006071Y-15410500D01*
X11991786Y-15424786D01*
X11963214Y-15467643D01*
X11948928Y-15524786D01*
X11948928Y-15639071D01*
X11963214Y-15667643D01*
X11977500Y-15681929D01*
X12006071Y-15696214D01*
X12063214Y-15696214D01*
X12091786Y-15681929D01*
X12106071Y-15667643D01*
X12120357Y-15639071D01*
X12120357Y-15567643D01*
X12106071Y-15539071D01*
X12091786Y-15524786D01*
X12063214Y-15510500D01*
X12006071Y-15510500D01*
X11977500Y-15524786D01*
X11963214Y-15539071D01*
X11948928Y-15567643D01*
X12234643Y-15424786D02*
X12248928Y-15410500D01*
X12277500Y-15396214D01*
X12348928Y-15396214D01*
X12377500Y-15410500D01*
X12391786Y-15424786D01*
X12406071Y-15453357D01*
X12406071Y-15481929D01*
X12391786Y-15524786D01*
X12220357Y-15696214D01*
X12406071Y-15696214D01*
X12534643Y-15696214D02*
X12534643Y-15496214D01*
X12534643Y-15524786D02*
X12548928Y-15510500D01*
X12577500Y-15496214D01*
X12620357Y-15496214D01*
X12648928Y-15510500D01*
X12663214Y-15539071D01*
X12663214Y-15696214D01*
X12663214Y-15539071D02*
X12677500Y-15510500D01*
X12706071Y-15496214D01*
X12748928Y-15496214D01*
X12777500Y-15510500D01*
X12791786Y-15539071D01*
X12791786Y-15696214D01*
X12934643Y-15696214D02*
X12934643Y-15496214D01*
X12934643Y-15524786D02*
X12948928Y-15510500D01*
X12977500Y-15496214D01*
X13020357Y-15496214D01*
X13048928Y-15510500D01*
X13063214Y-15539071D01*
X13063214Y-15696214D01*
X13063214Y-15539071D02*
X13077500Y-15510500D01*
X13106071Y-15496214D01*
X13148928Y-15496214D01*
X13177500Y-15510500D01*
X13191786Y-15539071D01*
X13191786Y-15696214D01*
X13777500Y-15381929D02*
X13520357Y-15767643D01*
X14163214Y-15396214D02*
X14191786Y-15396214D01*
X14220357Y-15410500D01*
X14234643Y-15424786D01*
X14248928Y-15453357D01*
X14263214Y-15510500D01*
X14263214Y-15581929D01*
X14248928Y-15639071D01*
X14234643Y-15667643D01*
X14220357Y-15681929D01*
X14191786Y-15696214D01*
X14163214Y-15696214D01*
X14134643Y-15681929D01*
X14120357Y-15667643D01*
X14106071Y-15639071D01*
X14091786Y-15581929D01*
X14091786Y-15510500D01*
X14106071Y-15453357D01*
X14120357Y-15424786D01*
X14134643Y-15410500D01*
X14163214Y-15396214D01*
X14391786Y-15667643D02*
X14406071Y-15681929D01*
X14391786Y-15696214D01*
X14377500Y-15681929D01*
X14391786Y-15667643D01*
X14391786Y-15696214D01*
X14591786Y-15396214D02*
X14620357Y-15396214D01*
X14648928Y-15410500D01*
X14663214Y-15424786D01*
X14677500Y-15453357D01*
X14691786Y-15510500D01*
X14691786Y-15581929D01*
X14677500Y-15639071D01*
X14663214Y-15667643D01*
X14648928Y-15681929D01*
X14620357Y-15696214D01*
X14591786Y-15696214D01*
X14563214Y-15681929D01*
X14548928Y-15667643D01*
X14534643Y-15639071D01*
X14520357Y-15581929D01*
X14520357Y-15510500D01*
X14534643Y-15453357D01*
X14548928Y-15424786D01*
X14563214Y-15410500D01*
X14591786Y-15396214D01*
X14791786Y-15396214D02*
X14977500Y-15396214D01*
X14877500Y-15510500D01*
X14920357Y-15510500D01*
X14948928Y-15524786D01*
X14963214Y-15539071D01*
X14977500Y-15567643D01*
X14977500Y-15639071D01*
X14963214Y-15667643D01*
X14948928Y-15681929D01*
X14920357Y-15696214D01*
X14834643Y-15696214D01*
X14806071Y-15681929D01*
X14791786Y-15667643D01*
X15163214Y-15396214D02*
X15191786Y-15396214D01*
X15220357Y-15410500D01*
X15234643Y-15424786D01*
X15248928Y-15453357D01*
X15263214Y-15510500D01*
X15263214Y-15581929D01*
X15248928Y-15639071D01*
X15234643Y-15667643D01*
X15220357Y-15681929D01*
X15191786Y-15696214D01*
X15163214Y-15696214D01*
X15134643Y-15681929D01*
X15120357Y-15667643D01*
X15106071Y-15639071D01*
X15091786Y-15581929D01*
X15091786Y-15510500D01*
X15106071Y-15453357D01*
X15120357Y-15424786D01*
X15134643Y-15410500D01*
X15163214Y-15396214D01*
X15448928Y-15396214D02*
X15477500Y-15396214D01*
X15506071Y-15410500D01*
X15520357Y-15424786D01*
X15534643Y-15453357D01*
X15548928Y-15510500D01*
X15548928Y-15581929D01*
X15534643Y-15639071D01*
X15520357Y-15667643D01*
X15506071Y-15681929D01*
X15477500Y-15696214D01*
X15448928Y-15696214D01*
X15420357Y-15681929D01*
X15406071Y-15667643D01*
X15391786Y-15639071D01*
X15377500Y-15581929D01*
X15377500Y-15510500D01*
X15391786Y-15453357D01*
X15406071Y-15424786D01*
X15420357Y-15410500D01*
X15448928Y-15396214D01*
X15663214Y-15396214D02*
X15663214Y-15453357D01*
X15777500Y-15396214D02*
X15777500Y-15453357D01*
X16220357Y-15810500D02*
X16206071Y-15796214D01*
X16177500Y-15753357D01*
X16163214Y-15724786D01*
X16148928Y-15681929D01*
X16134643Y-15610500D01*
X16134643Y-15553357D01*
X16148928Y-15481929D01*
X16163214Y-15439071D01*
X16177500Y-15410500D01*
X16206071Y-15367643D01*
X16220357Y-15353357D01*
X16491786Y-15696214D02*
X16320357Y-15696214D01*
X16406071Y-15696214D02*
X16406071Y-15396214D01*
X16377500Y-15439071D01*
X16348928Y-15467643D01*
X16320357Y-15481929D01*
X16748928Y-15396214D02*
X16691786Y-15396214D01*
X16663214Y-15410500D01*
X16648928Y-15424786D01*
X16620357Y-15467643D01*
X16606071Y-15524786D01*
X16606071Y-15639071D01*
X16620357Y-15667643D01*
X16634643Y-15681929D01*
X16663214Y-15696214D01*
X16720357Y-15696214D01*
X16748928Y-15681929D01*
X16763214Y-15667643D01*
X16777500Y-15639071D01*
X16777500Y-15567643D01*
X16763214Y-15539071D01*
X16748928Y-15524786D01*
X16720357Y-15510500D01*
X16663214Y-15510500D01*
X16634643Y-15524786D01*
X16620357Y-15539071D01*
X16606071Y-15567643D01*
X17134643Y-15696214D02*
X17134643Y-15396214D01*
X17263214Y-15696214D02*
X17263214Y-15539071D01*
X17248928Y-15510500D01*
X17220357Y-15496214D01*
X17177500Y-15496214D01*
X17148928Y-15510500D01*
X17134643Y-15524786D01*
X17448928Y-15696214D02*
X17420357Y-15681929D01*
X17406071Y-15667643D01*
X17391786Y-15639071D01*
X17391786Y-15553357D01*
X17406071Y-15524786D01*
X17420357Y-15510500D01*
X17448928Y-15496214D01*
X17491786Y-15496214D01*
X17520357Y-15510500D01*
X17534643Y-15524786D01*
X17548928Y-15553357D01*
X17548928Y-15639071D01*
X17534643Y-15667643D01*
X17520357Y-15681929D01*
X17491786Y-15696214D01*
X17448928Y-15696214D01*
X17720357Y-15696214D02*
X17691786Y-15681929D01*
X17677500Y-15653357D01*
X17677500Y-15396214D01*
X17948928Y-15681929D02*
X17920357Y-15696214D01*
X17863214Y-15696214D01*
X17834643Y-15681929D01*
X17820357Y-15653357D01*
X17820357Y-15539071D01*
X17834643Y-15510500D01*
X17863214Y-15496214D01*
X17920357Y-15496214D01*
X17948928Y-15510500D01*
X17963214Y-15539071D01*
X17963214Y-15567643D01*
X17820357Y-15596214D01*
X18077500Y-15681929D02*
X18106071Y-15696214D01*
X18163214Y-15696214D01*
X18191786Y-15681929D01*
X18206071Y-15653357D01*
X18206071Y-15639071D01*
X18191786Y-15610500D01*
X18163214Y-15596214D01*
X18120357Y-15596214D01*
X18091786Y-15581929D01*
X18077500Y-15553357D01*
X18077500Y-15539071D01*
X18091786Y-15510500D01*
X18120357Y-15496214D01*
X18163214Y-15496214D01*
X18191786Y-15510500D01*
X18306071Y-15810500D02*
X18320357Y-15796214D01*
X18348928Y-15753357D01*
X18363214Y-15724786D01*
X18377500Y-15681929D01*
X18391786Y-15610500D01*
X18391786Y-15553357D01*
X18377500Y-15481929D01*
X18363214Y-15439071D01*
X18348928Y-15410500D01*
X18320357Y-15367643D01*
X18306071Y-15353357D01*
X10922500Y-15916500D02*
X10922500Y-15996500D01*
X10882500Y-15956500D02*
X10962500Y-15956500D01*
X11306071Y-15792214D02*
X11334643Y-15792214D01*
X11363214Y-15806500D01*
X11377500Y-15820786D01*
X11391786Y-15849357D01*
X11406071Y-15906500D01*
X11406071Y-15977929D01*
X11391786Y-16035071D01*
X11377500Y-16063643D01*
X11363214Y-16077929D01*
X11334643Y-16092214D01*
X11306071Y-16092214D01*
X11277500Y-16077929D01*
X11263214Y-16063643D01*
X11248928Y-16035071D01*
X11234643Y-15977929D01*
X11234643Y-15906500D01*
X11248928Y-15849357D01*
X11263214Y-15820786D01*
X11277500Y-15806500D01*
X11306071Y-15792214D01*
X11534643Y-16063643D02*
X11548928Y-16077929D01*
X11534643Y-16092214D01*
X11520357Y-16077929D01*
X11534643Y-16063643D01*
X11534643Y-16092214D01*
X11720357Y-15920786D02*
X11691786Y-15906500D01*
X11677500Y-15892214D01*
X11663214Y-15863643D01*
X11663214Y-15849357D01*
X11677500Y-15820786D01*
X11691786Y-15806500D01*
X11720357Y-15792214D01*
X11777500Y-15792214D01*
X11806071Y-15806500D01*
X11820357Y-15820786D01*
X11834643Y-15849357D01*
X11834643Y-15863643D01*
X11820357Y-15892214D01*
X11806071Y-15906500D01*
X11777500Y-15920786D01*
X11720357Y-15920786D01*
X11691786Y-15935071D01*
X11677500Y-15949357D01*
X11663214Y-15977929D01*
X11663214Y-16035071D01*
X11677500Y-16063643D01*
X11691786Y-16077929D01*
X11720357Y-16092214D01*
X11777500Y-16092214D01*
X11806071Y-16077929D01*
X11820357Y-16063643D01*
X11834643Y-16035071D01*
X11834643Y-15977929D01*
X11820357Y-15949357D01*
X11806071Y-15935071D01*
X11777500Y-15920786D01*
X12020357Y-15792214D02*
X12048928Y-15792214D01*
X12077500Y-15806500D01*
X12091786Y-15820786D01*
X12106071Y-15849357D01*
X12120357Y-15906500D01*
X12120357Y-15977929D01*
X12106071Y-16035071D01*
X12091786Y-16063643D01*
X12077500Y-16077929D01*
X12048928Y-16092214D01*
X12020357Y-16092214D01*
X11991786Y-16077929D01*
X11977500Y-16063643D01*
X11963214Y-16035071D01*
X11948928Y-15977929D01*
X11948928Y-15906500D01*
X11963214Y-15849357D01*
X11977500Y-15820786D01*
X11991786Y-15806500D01*
X12020357Y-15792214D01*
X12306071Y-15792214D02*
X12334643Y-15792214D01*
X12363214Y-15806500D01*
X12377500Y-15820786D01*
X12391786Y-15849357D01*
X12406071Y-15906500D01*
X12406071Y-15977929D01*
X12391786Y-16035071D01*
X12377500Y-16063643D01*
X12363214Y-16077929D01*
X12334643Y-16092214D01*
X12306071Y-16092214D01*
X12277500Y-16077929D01*
X12263214Y-16063643D01*
X12248928Y-16035071D01*
X12234643Y-15977929D01*
X12234643Y-15906500D01*
X12248928Y-15849357D01*
X12263214Y-15820786D01*
X12277500Y-15806500D01*
X12306071Y-15792214D01*
X12534643Y-16092214D02*
X12534643Y-15892214D01*
X12534643Y-15920786D02*
X12548928Y-15906500D01*
X12577500Y-15892214D01*
X12620357Y-15892214D01*
X12648928Y-15906500D01*
X12663214Y-15935071D01*
X12663214Y-16092214D01*
X12663214Y-15935071D02*
X12677500Y-15906500D01*
X12706071Y-15892214D01*
X12748928Y-15892214D01*
X12777500Y-15906500D01*
X12791786Y-15935071D01*
X12791786Y-16092214D01*
X12934643Y-16092214D02*
X12934643Y-15892214D01*
X12934643Y-15920786D02*
X12948928Y-15906500D01*
X12977500Y-15892214D01*
X13020357Y-15892214D01*
X13048928Y-15906500D01*
X13063214Y-15935071D01*
X13063214Y-16092214D01*
X13063214Y-15935071D02*
X13077500Y-15906500D01*
X13106071Y-15892214D01*
X13148928Y-15892214D01*
X13177500Y-15906500D01*
X13191786Y-15935071D01*
X13191786Y-16092214D01*
X13777500Y-15777929D02*
X13520357Y-16163643D01*
X14163214Y-15792214D02*
X14191786Y-15792214D01*
X14220357Y-15806500D01*
X14234643Y-15820786D01*
X14248928Y-15849357D01*
X14263214Y-15906500D01*
X14263214Y-15977929D01*
X14248928Y-16035071D01*
X14234643Y-16063643D01*
X14220357Y-16077929D01*
X14191786Y-16092214D01*
X14163214Y-16092214D01*
X14134643Y-16077929D01*
X14120357Y-16063643D01*
X14106071Y-16035071D01*
X14091786Y-15977929D01*
X14091786Y-15906500D01*
X14106071Y-15849357D01*
X14120357Y-15820786D01*
X14134643Y-15806500D01*
X14163214Y-15792214D01*
X14391786Y-16063643D02*
X14406071Y-16077929D01*
X14391786Y-16092214D01*
X14377500Y-16077929D01*
X14391786Y-16063643D01*
X14391786Y-16092214D01*
X14591786Y-15792214D02*
X14620357Y-15792214D01*
X14648928Y-15806500D01*
X14663214Y-15820786D01*
X14677500Y-15849357D01*
X14691786Y-15906500D01*
X14691786Y-15977929D01*
X14677500Y-16035071D01*
X14663214Y-16063643D01*
X14648928Y-16077929D01*
X14620357Y-16092214D01*
X14591786Y-16092214D01*
X14563214Y-16077929D01*
X14548928Y-16063643D01*
X14534643Y-16035071D01*
X14520357Y-15977929D01*
X14520357Y-15906500D01*
X14534643Y-15849357D01*
X14548928Y-15820786D01*
X14563214Y-15806500D01*
X14591786Y-15792214D01*
X14791786Y-15792214D02*
X14977500Y-15792214D01*
X14877500Y-15906500D01*
X14920357Y-15906500D01*
X14948928Y-15920786D01*
X14963214Y-15935071D01*
X14977500Y-15963643D01*
X14977500Y-16035071D01*
X14963214Y-16063643D01*
X14948928Y-16077929D01*
X14920357Y-16092214D01*
X14834643Y-16092214D01*
X14806071Y-16077929D01*
X14791786Y-16063643D01*
X15263214Y-16092214D02*
X15091786Y-16092214D01*
X15177500Y-16092214D02*
X15177500Y-15792214D01*
X15148928Y-15835071D01*
X15120357Y-15863643D01*
X15091786Y-15877929D01*
X15534643Y-15792214D02*
X15391786Y-15792214D01*
X15377500Y-15935071D01*
X15391786Y-15920786D01*
X15420357Y-15906500D01*
X15491786Y-15906500D01*
X15520357Y-15920786D01*
X15534643Y-15935071D01*
X15548928Y-15963643D01*
X15548928Y-16035071D01*
X15534643Y-16063643D01*
X15520357Y-16077929D01*
X15491786Y-16092214D01*
X15420357Y-16092214D01*
X15391786Y-16077929D01*
X15377500Y-16063643D01*
X15663214Y-15792214D02*
X15663214Y-15849357D01*
X15777500Y-15792214D02*
X15777500Y-15849357D01*
X16220357Y-16206500D02*
X16206071Y-16192214D01*
X16177500Y-16149357D01*
X16163214Y-16120786D01*
X16148928Y-16077929D01*
X16134643Y-16006500D01*
X16134643Y-15949357D01*
X16148928Y-15877929D01*
X16163214Y-15835071D01*
X16177500Y-15806500D01*
X16206071Y-15763643D01*
X16220357Y-15749357D01*
X16463214Y-15892214D02*
X16463214Y-16092214D01*
X16391786Y-15777929D02*
X16320357Y-15992214D01*
X16506071Y-15992214D01*
X16777500Y-16092214D02*
X16606071Y-16092214D01*
X16691786Y-16092214D02*
X16691786Y-15792214D01*
X16663214Y-15835071D01*
X16634643Y-15863643D01*
X16606071Y-15877929D01*
X17134643Y-16092214D02*
X17134643Y-15792214D01*
X17263214Y-16092214D02*
X17263214Y-15935071D01*
X17248928Y-15906500D01*
X17220357Y-15892214D01*
X17177500Y-15892214D01*
X17148928Y-15906500D01*
X17134643Y-15920786D01*
X17448928Y-16092214D02*
X17420357Y-16077929D01*
X17406071Y-16063643D01*
X17391786Y-16035071D01*
X17391786Y-15949357D01*
X17406071Y-15920786D01*
X17420357Y-15906500D01*
X17448928Y-15892214D01*
X17491786Y-15892214D01*
X17520357Y-15906500D01*
X17534643Y-15920786D01*
X17548928Y-15949357D01*
X17548928Y-16035071D01*
X17534643Y-16063643D01*
X17520357Y-16077929D01*
X17491786Y-16092214D01*
X17448928Y-16092214D01*
X17720357Y-16092214D02*
X17691786Y-16077929D01*
X17677500Y-16049357D01*
X17677500Y-15792214D01*
X17948928Y-16077929D02*
X17920357Y-16092214D01*
X17863214Y-16092214D01*
X17834643Y-16077929D01*
X17820357Y-16049357D01*
X17820357Y-15935071D01*
X17834643Y-15906500D01*
X17863214Y-15892214D01*
X17920357Y-15892214D01*
X17948928Y-15906500D01*
X17963214Y-15935071D01*
X17963214Y-15963643D01*
X17820357Y-15992214D01*
X18077500Y-16077929D02*
X18106071Y-16092214D01*
X18163214Y-16092214D01*
X18191786Y-16077929D01*
X18206071Y-16049357D01*
X18206071Y-16035071D01*
X18191786Y-16006500D01*
X18163214Y-15992214D01*
X18120357Y-15992214D01*
X18091786Y-15977929D01*
X18077500Y-15949357D01*
X18077500Y-15935071D01*
X18091786Y-15906500D01*
X18120357Y-15892214D01*
X18163214Y-15892214D01*
X18191786Y-15906500D01*
X18306071Y-16206500D02*
X18320357Y-16192214D01*
X18348928Y-16149357D01*
X18363214Y-16120786D01*
X18377500Y-16077929D01*
X18391786Y-16006500D01*
X18391786Y-15949357D01*
X18377500Y-15877929D01*
X18363214Y-15835071D01*
X18348928Y-15806500D01*
X18320357Y-15763643D01*
X18306071Y-15749357D01*
X10947856Y-16387856D02*
X10947856Y-16317144D01*
X10877144Y-16317144D01*
X10877144Y-16387856D01*
X10947856Y-16387856D01*
X11406071Y-16488214D02*
X11234643Y-16488214D01*
X11320357Y-16488214D02*
X11320357Y-16188214D01*
X11291786Y-16231071D01*
X11263214Y-16259643D01*
X11234643Y-16273929D01*
X11534643Y-16459643D02*
X11548928Y-16473929D01*
X11534643Y-16488214D01*
X11520357Y-16473929D01*
X11534643Y-16459643D01*
X11534643Y-16488214D01*
X11734643Y-16188214D02*
X11763214Y-16188214D01*
X11791786Y-16202500D01*
X11806071Y-16216786D01*
X11820357Y-16245357D01*
X11834643Y-16302500D01*
X11834643Y-16373929D01*
X11820357Y-16431071D01*
X11806071Y-16459643D01*
X11791786Y-16473929D01*
X11763214Y-16488214D01*
X11734643Y-16488214D01*
X11706071Y-16473929D01*
X11691786Y-16459643D01*
X11677500Y-16431071D01*
X11663214Y-16373929D01*
X11663214Y-16302500D01*
X11677500Y-16245357D01*
X11691786Y-16216786D01*
X11706071Y-16202500D01*
X11734643Y-16188214D01*
X12020357Y-16188214D02*
X12048928Y-16188214D01*
X12077500Y-16202500D01*
X12091786Y-16216786D01*
X12106071Y-16245357D01*
X12120357Y-16302500D01*
X12120357Y-16373929D01*
X12106071Y-16431071D01*
X12091786Y-16459643D01*
X12077500Y-16473929D01*
X12048928Y-16488214D01*
X12020357Y-16488214D01*
X11991786Y-16473929D01*
X11977500Y-16459643D01*
X11963214Y-16431071D01*
X11948928Y-16373929D01*
X11948928Y-16302500D01*
X11963214Y-16245357D01*
X11977500Y-16216786D01*
X11991786Y-16202500D01*
X12020357Y-16188214D01*
X12306071Y-16188214D02*
X12334643Y-16188214D01*
X12363214Y-16202500D01*
X12377500Y-16216786D01*
X12391786Y-16245357D01*
X12406071Y-16302500D01*
X12406071Y-16373929D01*
X12391786Y-16431071D01*
X12377500Y-16459643D01*
X12363214Y-16473929D01*
X12334643Y-16488214D01*
X12306071Y-16488214D01*
X12277500Y-16473929D01*
X12263214Y-16459643D01*
X12248928Y-16431071D01*
X12234643Y-16373929D01*
X12234643Y-16302500D01*
X12248928Y-16245357D01*
X12263214Y-16216786D01*
X12277500Y-16202500D01*
X12306071Y-16188214D01*
X12534643Y-16488214D02*
X12534643Y-16288214D01*
X12534643Y-16316786D02*
X12548928Y-16302500D01*
X12577500Y-16288214D01*
X12620357Y-16288214D01*
X12648928Y-16302500D01*
X12663214Y-16331071D01*
X12663214Y-16488214D01*
X12663214Y-16331071D02*
X12677500Y-16302500D01*
X12706071Y-16288214D01*
X12748928Y-16288214D01*
X12777500Y-16302500D01*
X12791786Y-16331071D01*
X12791786Y-16488214D01*
X12934643Y-16488214D02*
X12934643Y-16288214D01*
X12934643Y-16316786D02*
X12948928Y-16302500D01*
X12977500Y-16288214D01*
X13020357Y-16288214D01*
X13048928Y-16302500D01*
X13063214Y-16331071D01*
X13063214Y-16488214D01*
X13063214Y-16331071D02*
X13077500Y-16302500D01*
X13106071Y-16288214D01*
X13148928Y-16288214D01*
X13177500Y-16302500D01*
X13191786Y-16331071D01*
X13191786Y-16488214D01*
X13777500Y-16173929D02*
X13520357Y-16559643D01*
X14163214Y-16188214D02*
X14191786Y-16188214D01*
X14220357Y-16202500D01*
X14234643Y-16216786D01*
X14248928Y-16245357D01*
X14263214Y-16302500D01*
X14263214Y-16373929D01*
X14248928Y-16431071D01*
X14234643Y-16459643D01*
X14220357Y-16473929D01*
X14191786Y-16488214D01*
X14163214Y-16488214D01*
X14134643Y-16473929D01*
X14120357Y-16459643D01*
X14106071Y-16431071D01*
X14091786Y-16373929D01*
X14091786Y-16302500D01*
X14106071Y-16245357D01*
X14120357Y-16216786D01*
X14134643Y-16202500D01*
X14163214Y-16188214D01*
X14391786Y-16459643D02*
X14406071Y-16473929D01*
X14391786Y-16488214D01*
X14377500Y-16473929D01*
X14391786Y-16459643D01*
X14391786Y-16488214D01*
X14591786Y-16188214D02*
X14620357Y-16188214D01*
X14648928Y-16202500D01*
X14663214Y-16216786D01*
X14677500Y-16245357D01*
X14691786Y-16302500D01*
X14691786Y-16373929D01*
X14677500Y-16431071D01*
X14663214Y-16459643D01*
X14648928Y-16473929D01*
X14620357Y-16488214D01*
X14591786Y-16488214D01*
X14563214Y-16473929D01*
X14548928Y-16459643D01*
X14534643Y-16431071D01*
X14520357Y-16373929D01*
X14520357Y-16302500D01*
X14534643Y-16245357D01*
X14548928Y-16216786D01*
X14563214Y-16202500D01*
X14591786Y-16188214D01*
X14791786Y-16188214D02*
X14977500Y-16188214D01*
X14877500Y-16302500D01*
X14920357Y-16302500D01*
X14948928Y-16316786D01*
X14963214Y-16331071D01*
X14977500Y-16359643D01*
X14977500Y-16431071D01*
X14963214Y-16459643D01*
X14948928Y-16473929D01*
X14920357Y-16488214D01*
X14834643Y-16488214D01*
X14806071Y-16473929D01*
X14791786Y-16459643D01*
X15120357Y-16488214D02*
X15177500Y-16488214D01*
X15206071Y-16473929D01*
X15220357Y-16459643D01*
X15248928Y-16416786D01*
X15263214Y-16359643D01*
X15263214Y-16245357D01*
X15248928Y-16216786D01*
X15234643Y-16202500D01*
X15206071Y-16188214D01*
X15148928Y-16188214D01*
X15120357Y-16202500D01*
X15106071Y-16216786D01*
X15091786Y-16245357D01*
X15091786Y-16316786D01*
X15106071Y-16345357D01*
X15120357Y-16359643D01*
X15148928Y-16373929D01*
X15206071Y-16373929D01*
X15234643Y-16359643D01*
X15248928Y-16345357D01*
X15263214Y-16316786D01*
X15520357Y-16288214D02*
X15520357Y-16488214D01*
X15448928Y-16173929D02*
X15377500Y-16388214D01*
X15563214Y-16388214D01*
X15663214Y-16188214D02*
X15663214Y-16245357D01*
X15777500Y-16188214D02*
X15777500Y-16245357D01*
X16220357Y-16602500D02*
X16206071Y-16588214D01*
X16177500Y-16545357D01*
X16163214Y-16516786D01*
X16148928Y-16473929D01*
X16134643Y-16402500D01*
X16134643Y-16345357D01*
X16148928Y-16273929D01*
X16163214Y-16231071D01*
X16177500Y-16202500D01*
X16206071Y-16159643D01*
X16220357Y-16145357D01*
X16463214Y-16288214D02*
X16463214Y-16488214D01*
X16391786Y-16173929D02*
X16320357Y-16388214D01*
X16506071Y-16388214D01*
X16748928Y-16288214D02*
X16748928Y-16488214D01*
X16677500Y-16173929D02*
X16606071Y-16388214D01*
X16791786Y-16388214D01*
X17134643Y-16488214D02*
X17134643Y-16188214D01*
X17263214Y-16488214D02*
X17263214Y-16331071D01*
X17248928Y-16302500D01*
X17220357Y-16288214D01*
X17177500Y-16288214D01*
X17148928Y-16302500D01*
X17134643Y-16316786D01*
X17448928Y-16488214D02*
X17420357Y-16473929D01*
X17406071Y-16459643D01*
X17391786Y-16431071D01*
X17391786Y-16345357D01*
X17406071Y-16316786D01*
X17420357Y-16302500D01*
X17448928Y-16288214D01*
X17491786Y-16288214D01*
X17520357Y-16302500D01*
X17534643Y-16316786D01*
X17548928Y-16345357D01*
X17548928Y-16431071D01*
X17534643Y-16459643D01*
X17520357Y-16473929D01*
X17491786Y-16488214D01*
X17448928Y-16488214D01*
X17720357Y-16488214D02*
X17691786Y-16473929D01*
X17677500Y-16445357D01*
X17677500Y-16188214D01*
X17948928Y-16473929D02*
X17920357Y-16488214D01*
X17863214Y-16488214D01*
X17834643Y-16473929D01*
X17820357Y-16445357D01*
X17820357Y-16331071D01*
X17834643Y-16302500D01*
X17863214Y-16288214D01*
X17920357Y-16288214D01*
X17948928Y-16302500D01*
X17963214Y-16331071D01*
X17963214Y-16359643D01*
X17820357Y-16388214D01*
X18077500Y-16473929D02*
X18106071Y-16488214D01*
X18163214Y-16488214D01*
X18191786Y-16473929D01*
X18206071Y-16445357D01*
X18206071Y-16431071D01*
X18191786Y-16402500D01*
X18163214Y-16388214D01*
X18120357Y-16388214D01*
X18091786Y-16373929D01*
X18077500Y-16345357D01*
X18077500Y-16331071D01*
X18091786Y-16302500D01*
X18120357Y-16288214D01*
X18163214Y-16288214D01*
X18191786Y-16302500D01*
X18563214Y-16373929D02*
X18791786Y-16373929D01*
X18677500Y-16488214D02*
X18677500Y-16259643D01*
X19134643Y-16188214D02*
X19320357Y-16188214D01*
X19220357Y-16302500D01*
X19263214Y-16302500D01*
X19291786Y-16316786D01*
X19306071Y-16331071D01*
X19320357Y-16359643D01*
X19320357Y-16431071D01*
X19306071Y-16459643D01*
X19291786Y-16473929D01*
X19263214Y-16488214D01*
X19177500Y-16488214D01*
X19148928Y-16473929D01*
X19134643Y-16459643D01*
X19663214Y-16473929D02*
X19691786Y-16488214D01*
X19748928Y-16488214D01*
X19777500Y-16473929D01*
X19791786Y-16445357D01*
X19791786Y-16431071D01*
X19777500Y-16402500D01*
X19748928Y-16388214D01*
X19706071Y-16388214D01*
X19677500Y-16373929D01*
X19663214Y-16345357D01*
X19663214Y-16331071D01*
X19677500Y-16302500D01*
X19706071Y-16288214D01*
X19748928Y-16288214D01*
X19777500Y-16302500D01*
X19963214Y-16488214D02*
X19934643Y-16473929D01*
X19920357Y-16445357D01*
X19920357Y-16188214D01*
X20120357Y-16488214D02*
X20091786Y-16473929D01*
X20077500Y-16459643D01*
X20063214Y-16431071D01*
X20063214Y-16345357D01*
X20077500Y-16316786D01*
X20091786Y-16302500D01*
X20120357Y-16288214D01*
X20163214Y-16288214D01*
X20191786Y-16302500D01*
X20206071Y-16316786D01*
X20220357Y-16345357D01*
X20220357Y-16431071D01*
X20206071Y-16459643D01*
X20191786Y-16473929D01*
X20163214Y-16488214D01*
X20120357Y-16488214D01*
X20306071Y-16288214D02*
X20420357Y-16288214D01*
X20348928Y-16188214D02*
X20348928Y-16445357D01*
X20363214Y-16473929D01*
X20391786Y-16488214D01*
X20420357Y-16488214D01*
X20506071Y-16473929D02*
X20534643Y-16488214D01*
X20591786Y-16488214D01*
X20620357Y-16473929D01*
X20634643Y-16445357D01*
X20634643Y-16431071D01*
X20620357Y-16402500D01*
X20591786Y-16388214D01*
X20548928Y-16388214D01*
X20520357Y-16373929D01*
X20506071Y-16345357D01*
X20506071Y-16331071D01*
X20520357Y-16302500D01*
X20548928Y-16288214D01*
X20591786Y-16288214D01*
X20620357Y-16302500D01*
X20734643Y-16602500D02*
X20748928Y-16588214D01*
X20777500Y-16545357D01*
X20791786Y-16516786D01*
X20806071Y-16473929D01*
X20820357Y-16402500D01*
X20820357Y-16345357D01*
X20806071Y-16273929D01*
X20791786Y-16231071D01*
X20777500Y-16202500D01*
X20748928Y-16159643D01*
X20734643Y-16145357D01*
M02*
