M48
; DRILL file {KiCad 5.1.12} date Tue 14 Feb 2023 08:38:04 PM MST
; FORMAT={-:-/ absolute / metric / decimal}
; #@! TF.CreationDate,2023-02-14T20:38:04-07:00
; #@! TF.GenerationSoftware,Kicad,Pcbnew,5.1.12
; #@! TF.FileFunction,Plated,1,2,PTH
FMAT,2
METRIC
T1C0.400
T2C0.762
T3C0.800
T4C1.000
%
G90
G05
T1
X124.714Y-87.249
X131.826Y-85.979
X132.461Y-88.519
X132.461Y-101.981
X133.477Y-89.789
X133.477Y-96.901
X134.112Y-91.059
X134.112Y-100.711
X135.001Y-92.329
X135.001Y-103.632
X138.557Y-96.139
X138.557Y-98.552
X139.319Y-93.599
X139.446Y-115.951
X143.51Y-83.312
X143.51Y-97.409
X144.272Y-82.169
X144.78Y-87.249
X144.78Y-117.475
X146.05Y-113.665
X147.32Y-116.84
X148.082Y-91.059
X148.59Y-118.11
X148.971Y-89.789
X149.86Y-94.869
X149.86Y-114.3
X149.86Y-115.951
X151.13Y-88.519
X151.13Y-120.65
X152.4Y-98.552
X152.4Y-112.395
X153.67Y-92.329
X154.432Y-87.376
X154.94Y-120.65
X155.575Y-83.185
X156.21Y-114.935
X157.48Y-118.11
X160.02Y-115.57
X163.195Y-111.125
X167.64Y-113.665
X168.91Y-120.65
X168.91Y-132.715
X173.355Y-111.125
X173.355Y-118.11
X173.355Y-130.175
X173.99Y-117.475
X173.99Y-135.255
X174.625Y-112.395
X174.625Y-115.57
X174.625Y-116.84
X174.625Y-136.525
X175.26Y-114.3
X175.26Y-132.715
X175.895Y-114.935
X175.895Y-131.445
X182.245Y-128.905
X182.245Y-130.175
X183.515Y-131.445
X184.15Y-132.715
X184.785Y-133.985
X193.04Y-137.795
X194.945Y-136.525
X195.58Y-135.89
T2
X170.18Y-90.805
X170.18Y-93.345
X170.18Y-95.885
X170.18Y-98.425
X170.18Y-100.965
X170.18Y-103.505
X170.18Y-106.045
X170.18Y-108.585
X188.214Y-90.805
X188.214Y-93.345
X188.214Y-95.885
X188.214Y-98.425
X188.214Y-100.965
X188.214Y-103.505
X188.214Y-106.045
X188.214Y-108.585
T3
X127.508Y-80.899
X127.508Y-83.399
X131.064Y-82.209
X131.064Y-84.709
X143.51Y-78.105
X146.01Y-78.105
X149.86Y-80.939
X149.86Y-83.439
X153.035Y-77.978
X153.035Y-85.598
X156.972Y-92.329
X156.972Y-97.409
X159.472Y-97.409
X159.512Y-92.329
X162.052Y-92.329
X164.465Y-89.916
X164.465Y-97.536
X171.45Y-112.395
X171.45Y-120.015
X177.165Y-87.63
X177.84Y-123.825
X180.34Y-123.825
X184.785Y-87.63
X186.055Y-111.76
X186.055Y-114.26
X193.103Y-108.585
X193.103Y-111.125
X193.103Y-113.665
X193.103Y-116.205
X193.103Y-118.745
X193.103Y-121.285
X193.103Y-123.825
X193.103Y-126.365
X200.724Y-108.585
X200.724Y-111.125
X200.724Y-113.665
X200.724Y-116.205
X200.724Y-118.745
X200.724Y-121.285
X200.724Y-123.825
X200.724Y-126.365
T4
X126.365Y-91.805
X126.365Y-94.345
X126.365Y-96.885
X126.365Y-99.425
X126.365Y-101.965
X128.905Y-91.805
X128.905Y-94.345
X128.905Y-96.885
X128.905Y-99.425
X128.905Y-101.965
X142.24Y-102.87
X142.24Y-125.73
X144.78Y-102.87
X144.78Y-125.73
X147.32Y-102.87
X147.32Y-125.73
X149.86Y-102.87
X149.86Y-125.73
X152.4Y-102.87
X152.4Y-125.73
X154.94Y-102.87
X154.94Y-125.73
X157.48Y-102.87
X157.48Y-125.73
X160.02Y-102.87
X160.02Y-125.73
X173.355Y-83.185
X175.895Y-83.185
X205.74Y-84.516
X205.74Y-87.056
X205.74Y-91.12
X205.74Y-93.66
X205.74Y-97.724
X205.74Y-100.264
X205.74Y-104.328
X205.74Y-106.868
X205.74Y-110.932
X205.74Y-113.472
X205.74Y-117.536
X205.74Y-120.076
X205.74Y-124.14
X205.74Y-126.68
X205.74Y-130.744
X205.74Y-133.284
T4
X113.611Y-121.23G85X113.611Y-123.23
G05
X115.61Y-126.929G85X117.61Y-126.929
G05
X119.61Y-121.23G85X119.61Y-123.23
G05
T0
M30
