G04 #@! TF.GenerationSoftware,KiCad,Pcbnew,5.1.12*
G04 #@! TF.CreationDate,2023-02-14T20:37:59-07:00*
G04 #@! TF.ProjectId,RetroWiFiModem,52657472-6f57-4694-9669-4d6f64656d2e,0.3*
G04 #@! TF.SameCoordinates,Original*
G04 #@! TF.FileFunction,Paste,Top*
G04 #@! TF.FilePolarity,Positive*
%FSLAX46Y46*%
G04 Gerber Fmt 4.6, Leading zero omitted, Abs format (unit mm)*
G04 Created by KiCad (PCBNEW 5.1.12) date 2023-02-14 20:37:59*
%MOMM*%
%LPD*%
G01*
G04 APERTURE LIST*
%ADD10R,2.000000X0.600000*%
G04 APERTURE END LIST*
G36*
G01*
X181586000Y-112545000D02*
X181586000Y-112245000D01*
G75*
G02*
X181736000Y-112095000I150000J0D01*
G01*
X183386000Y-112095000D01*
G75*
G02*
X183536000Y-112245000I0J-150000D01*
G01*
X183536000Y-112545000D01*
G75*
G02*
X183386000Y-112695000I-150000J0D01*
G01*
X181736000Y-112695000D01*
G75*
G02*
X181586000Y-112545000I0J150000D01*
G01*
G37*
G36*
G01*
X181586000Y-113815000D02*
X181586000Y-113515000D01*
G75*
G02*
X181736000Y-113365000I150000J0D01*
G01*
X183386000Y-113365000D01*
G75*
G02*
X183536000Y-113515000I0J-150000D01*
G01*
X183536000Y-113815000D01*
G75*
G02*
X183386000Y-113965000I-150000J0D01*
G01*
X181736000Y-113965000D01*
G75*
G02*
X181586000Y-113815000I0J150000D01*
G01*
G37*
G36*
G01*
X181586000Y-115085000D02*
X181586000Y-114785000D01*
G75*
G02*
X181736000Y-114635000I150000J0D01*
G01*
X183386000Y-114635000D01*
G75*
G02*
X183536000Y-114785000I0J-150000D01*
G01*
X183536000Y-115085000D01*
G75*
G02*
X183386000Y-115235000I-150000J0D01*
G01*
X181736000Y-115235000D01*
G75*
G02*
X181586000Y-115085000I0J150000D01*
G01*
G37*
G36*
G01*
X181586000Y-116355000D02*
X181586000Y-116055000D01*
G75*
G02*
X181736000Y-115905000I150000J0D01*
G01*
X183386000Y-115905000D01*
G75*
G02*
X183536000Y-116055000I0J-150000D01*
G01*
X183536000Y-116355000D01*
G75*
G02*
X183386000Y-116505000I-150000J0D01*
G01*
X181736000Y-116505000D01*
G75*
G02*
X181586000Y-116355000I0J150000D01*
G01*
G37*
G36*
G01*
X181586000Y-117625000D02*
X181586000Y-117325000D01*
G75*
G02*
X181736000Y-117175000I150000J0D01*
G01*
X183386000Y-117175000D01*
G75*
G02*
X183536000Y-117325000I0J-150000D01*
G01*
X183536000Y-117625000D01*
G75*
G02*
X183386000Y-117775000I-150000J0D01*
G01*
X181736000Y-117775000D01*
G75*
G02*
X181586000Y-117625000I0J150000D01*
G01*
G37*
G36*
G01*
X181586000Y-118895000D02*
X181586000Y-118595000D01*
G75*
G02*
X181736000Y-118445000I150000J0D01*
G01*
X183386000Y-118445000D01*
G75*
G02*
X183536000Y-118595000I0J-150000D01*
G01*
X183536000Y-118895000D01*
G75*
G02*
X183386000Y-119045000I-150000J0D01*
G01*
X181736000Y-119045000D01*
G75*
G02*
X181586000Y-118895000I0J150000D01*
G01*
G37*
G36*
G01*
X181586000Y-120165000D02*
X181586000Y-119865000D01*
G75*
G02*
X181736000Y-119715000I150000J0D01*
G01*
X183386000Y-119715000D01*
G75*
G02*
X183536000Y-119865000I0J-150000D01*
G01*
X183536000Y-120165000D01*
G75*
G02*
X183386000Y-120315000I-150000J0D01*
G01*
X181736000Y-120315000D01*
G75*
G02*
X181586000Y-120165000I0J150000D01*
G01*
G37*
G36*
G01*
X176636000Y-120165000D02*
X176636000Y-119865000D01*
G75*
G02*
X176786000Y-119715000I150000J0D01*
G01*
X178436000Y-119715000D01*
G75*
G02*
X178586000Y-119865000I0J-150000D01*
G01*
X178586000Y-120165000D01*
G75*
G02*
X178436000Y-120315000I-150000J0D01*
G01*
X176786000Y-120315000D01*
G75*
G02*
X176636000Y-120165000I0J150000D01*
G01*
G37*
G36*
G01*
X176636000Y-118895000D02*
X176636000Y-118595000D01*
G75*
G02*
X176786000Y-118445000I150000J0D01*
G01*
X178436000Y-118445000D01*
G75*
G02*
X178586000Y-118595000I0J-150000D01*
G01*
X178586000Y-118895000D01*
G75*
G02*
X178436000Y-119045000I-150000J0D01*
G01*
X176786000Y-119045000D01*
G75*
G02*
X176636000Y-118895000I0J150000D01*
G01*
G37*
G36*
G01*
X176636000Y-117625000D02*
X176636000Y-117325000D01*
G75*
G02*
X176786000Y-117175000I150000J0D01*
G01*
X178436000Y-117175000D01*
G75*
G02*
X178586000Y-117325000I0J-150000D01*
G01*
X178586000Y-117625000D01*
G75*
G02*
X178436000Y-117775000I-150000J0D01*
G01*
X176786000Y-117775000D01*
G75*
G02*
X176636000Y-117625000I0J150000D01*
G01*
G37*
G36*
G01*
X176636000Y-116355000D02*
X176636000Y-116055000D01*
G75*
G02*
X176786000Y-115905000I150000J0D01*
G01*
X178436000Y-115905000D01*
G75*
G02*
X178586000Y-116055000I0J-150000D01*
G01*
X178586000Y-116355000D01*
G75*
G02*
X178436000Y-116505000I-150000J0D01*
G01*
X176786000Y-116505000D01*
G75*
G02*
X176636000Y-116355000I0J150000D01*
G01*
G37*
G36*
G01*
X176636000Y-115085000D02*
X176636000Y-114785000D01*
G75*
G02*
X176786000Y-114635000I150000J0D01*
G01*
X178436000Y-114635000D01*
G75*
G02*
X178586000Y-114785000I0J-150000D01*
G01*
X178586000Y-115085000D01*
G75*
G02*
X178436000Y-115235000I-150000J0D01*
G01*
X176786000Y-115235000D01*
G75*
G02*
X176636000Y-115085000I0J150000D01*
G01*
G37*
G36*
G01*
X176636000Y-113815000D02*
X176636000Y-113515000D01*
G75*
G02*
X176786000Y-113365000I150000J0D01*
G01*
X178436000Y-113365000D01*
G75*
G02*
X178586000Y-113515000I0J-150000D01*
G01*
X178586000Y-113815000D01*
G75*
G02*
X178436000Y-113965000I-150000J0D01*
G01*
X176786000Y-113965000D01*
G75*
G02*
X176636000Y-113815000I0J150000D01*
G01*
G37*
G36*
G01*
X176636000Y-112545000D02*
X176636000Y-112245000D01*
G75*
G02*
X176786000Y-112095000I150000J0D01*
G01*
X178436000Y-112095000D01*
G75*
G02*
X178586000Y-112245000I0J-150000D01*
G01*
X178586000Y-112545000D01*
G75*
G02*
X178436000Y-112695000I-150000J0D01*
G01*
X176786000Y-112695000D01*
G75*
G02*
X176636000Y-112545000I0J150000D01*
G01*
G37*
G36*
G01*
X179520000Y-126515000D02*
X179520000Y-126215000D01*
G75*
G02*
X179670000Y-126065000I150000J0D01*
G01*
X181420000Y-126065000D01*
G75*
G02*
X181570000Y-126215000I0J-150000D01*
G01*
X181570000Y-126515000D01*
G75*
G02*
X181420000Y-126665000I-150000J0D01*
G01*
X179670000Y-126665000D01*
G75*
G02*
X179520000Y-126515000I0J150000D01*
G01*
G37*
G36*
G01*
X179520000Y-127785000D02*
X179520000Y-127485000D01*
G75*
G02*
X179670000Y-127335000I150000J0D01*
G01*
X181420000Y-127335000D01*
G75*
G02*
X181570000Y-127485000I0J-150000D01*
G01*
X181570000Y-127785000D01*
G75*
G02*
X181420000Y-127935000I-150000J0D01*
G01*
X179670000Y-127935000D01*
G75*
G02*
X179520000Y-127785000I0J150000D01*
G01*
G37*
G36*
G01*
X179520000Y-129055000D02*
X179520000Y-128755000D01*
G75*
G02*
X179670000Y-128605000I150000J0D01*
G01*
X181420000Y-128605000D01*
G75*
G02*
X181570000Y-128755000I0J-150000D01*
G01*
X181570000Y-129055000D01*
G75*
G02*
X181420000Y-129205000I-150000J0D01*
G01*
X179670000Y-129205000D01*
G75*
G02*
X179520000Y-129055000I0J150000D01*
G01*
G37*
G36*
G01*
X179520000Y-130325000D02*
X179520000Y-130025000D01*
G75*
G02*
X179670000Y-129875000I150000J0D01*
G01*
X181420000Y-129875000D01*
G75*
G02*
X181570000Y-130025000I0J-150000D01*
G01*
X181570000Y-130325000D01*
G75*
G02*
X181420000Y-130475000I-150000J0D01*
G01*
X179670000Y-130475000D01*
G75*
G02*
X179520000Y-130325000I0J150000D01*
G01*
G37*
G36*
G01*
X179520000Y-131595000D02*
X179520000Y-131295000D01*
G75*
G02*
X179670000Y-131145000I150000J0D01*
G01*
X181420000Y-131145000D01*
G75*
G02*
X181570000Y-131295000I0J-150000D01*
G01*
X181570000Y-131595000D01*
G75*
G02*
X181420000Y-131745000I-150000J0D01*
G01*
X179670000Y-131745000D01*
G75*
G02*
X179520000Y-131595000I0J150000D01*
G01*
G37*
G36*
G01*
X179520000Y-132865000D02*
X179520000Y-132565000D01*
G75*
G02*
X179670000Y-132415000I150000J0D01*
G01*
X181420000Y-132415000D01*
G75*
G02*
X181570000Y-132565000I0J-150000D01*
G01*
X181570000Y-132865000D01*
G75*
G02*
X181420000Y-133015000I-150000J0D01*
G01*
X179670000Y-133015000D01*
G75*
G02*
X179520000Y-132865000I0J150000D01*
G01*
G37*
G36*
G01*
X179520000Y-134135000D02*
X179520000Y-133835000D01*
G75*
G02*
X179670000Y-133685000I150000J0D01*
G01*
X181420000Y-133685000D01*
G75*
G02*
X181570000Y-133835000I0J-150000D01*
G01*
X181570000Y-134135000D01*
G75*
G02*
X181420000Y-134285000I-150000J0D01*
G01*
X179670000Y-134285000D01*
G75*
G02*
X179520000Y-134135000I0J150000D01*
G01*
G37*
G36*
G01*
X179520000Y-135405000D02*
X179520000Y-135105000D01*
G75*
G02*
X179670000Y-134955000I150000J0D01*
G01*
X181420000Y-134955000D01*
G75*
G02*
X181570000Y-135105000I0J-150000D01*
G01*
X181570000Y-135405000D01*
G75*
G02*
X181420000Y-135555000I-150000J0D01*
G01*
X179670000Y-135555000D01*
G75*
G02*
X179520000Y-135405000I0J150000D01*
G01*
G37*
G36*
G01*
X179520000Y-136675000D02*
X179520000Y-136375000D01*
G75*
G02*
X179670000Y-136225000I150000J0D01*
G01*
X181420000Y-136225000D01*
G75*
G02*
X181570000Y-136375000I0J-150000D01*
G01*
X181570000Y-136675000D01*
G75*
G02*
X181420000Y-136825000I-150000J0D01*
G01*
X179670000Y-136825000D01*
G75*
G02*
X179520000Y-136675000I0J150000D01*
G01*
G37*
G36*
G01*
X179520000Y-137945000D02*
X179520000Y-137645000D01*
G75*
G02*
X179670000Y-137495000I150000J0D01*
G01*
X181420000Y-137495000D01*
G75*
G02*
X181570000Y-137645000I0J-150000D01*
G01*
X181570000Y-137945000D01*
G75*
G02*
X181420000Y-138095000I-150000J0D01*
G01*
X179670000Y-138095000D01*
G75*
G02*
X179520000Y-137945000I0J150000D01*
G01*
G37*
G36*
G01*
X170220000Y-137945000D02*
X170220000Y-137645000D01*
G75*
G02*
X170370000Y-137495000I150000J0D01*
G01*
X172120000Y-137495000D01*
G75*
G02*
X172270000Y-137645000I0J-150000D01*
G01*
X172270000Y-137945000D01*
G75*
G02*
X172120000Y-138095000I-150000J0D01*
G01*
X170370000Y-138095000D01*
G75*
G02*
X170220000Y-137945000I0J150000D01*
G01*
G37*
G36*
G01*
X170220000Y-136675000D02*
X170220000Y-136375000D01*
G75*
G02*
X170370000Y-136225000I150000J0D01*
G01*
X172120000Y-136225000D01*
G75*
G02*
X172270000Y-136375000I0J-150000D01*
G01*
X172270000Y-136675000D01*
G75*
G02*
X172120000Y-136825000I-150000J0D01*
G01*
X170370000Y-136825000D01*
G75*
G02*
X170220000Y-136675000I0J150000D01*
G01*
G37*
G36*
G01*
X170220000Y-135405000D02*
X170220000Y-135105000D01*
G75*
G02*
X170370000Y-134955000I150000J0D01*
G01*
X172120000Y-134955000D01*
G75*
G02*
X172270000Y-135105000I0J-150000D01*
G01*
X172270000Y-135405000D01*
G75*
G02*
X172120000Y-135555000I-150000J0D01*
G01*
X170370000Y-135555000D01*
G75*
G02*
X170220000Y-135405000I0J150000D01*
G01*
G37*
G36*
G01*
X170220000Y-134135000D02*
X170220000Y-133835000D01*
G75*
G02*
X170370000Y-133685000I150000J0D01*
G01*
X172120000Y-133685000D01*
G75*
G02*
X172270000Y-133835000I0J-150000D01*
G01*
X172270000Y-134135000D01*
G75*
G02*
X172120000Y-134285000I-150000J0D01*
G01*
X170370000Y-134285000D01*
G75*
G02*
X170220000Y-134135000I0J150000D01*
G01*
G37*
G36*
G01*
X170220000Y-132865000D02*
X170220000Y-132565000D01*
G75*
G02*
X170370000Y-132415000I150000J0D01*
G01*
X172120000Y-132415000D01*
G75*
G02*
X172270000Y-132565000I0J-150000D01*
G01*
X172270000Y-132865000D01*
G75*
G02*
X172120000Y-133015000I-150000J0D01*
G01*
X170370000Y-133015000D01*
G75*
G02*
X170220000Y-132865000I0J150000D01*
G01*
G37*
G36*
G01*
X170220000Y-131595000D02*
X170220000Y-131295000D01*
G75*
G02*
X170370000Y-131145000I150000J0D01*
G01*
X172120000Y-131145000D01*
G75*
G02*
X172270000Y-131295000I0J-150000D01*
G01*
X172270000Y-131595000D01*
G75*
G02*
X172120000Y-131745000I-150000J0D01*
G01*
X170370000Y-131745000D01*
G75*
G02*
X170220000Y-131595000I0J150000D01*
G01*
G37*
G36*
G01*
X170220000Y-130325000D02*
X170220000Y-130025000D01*
G75*
G02*
X170370000Y-129875000I150000J0D01*
G01*
X172120000Y-129875000D01*
G75*
G02*
X172270000Y-130025000I0J-150000D01*
G01*
X172270000Y-130325000D01*
G75*
G02*
X172120000Y-130475000I-150000J0D01*
G01*
X170370000Y-130475000D01*
G75*
G02*
X170220000Y-130325000I0J150000D01*
G01*
G37*
G36*
G01*
X170220000Y-129055000D02*
X170220000Y-128755000D01*
G75*
G02*
X170370000Y-128605000I150000J0D01*
G01*
X172120000Y-128605000D01*
G75*
G02*
X172270000Y-128755000I0J-150000D01*
G01*
X172270000Y-129055000D01*
G75*
G02*
X172120000Y-129205000I-150000J0D01*
G01*
X170370000Y-129205000D01*
G75*
G02*
X170220000Y-129055000I0J150000D01*
G01*
G37*
G36*
G01*
X170220000Y-127785000D02*
X170220000Y-127485000D01*
G75*
G02*
X170370000Y-127335000I150000J0D01*
G01*
X172120000Y-127335000D01*
G75*
G02*
X172270000Y-127485000I0J-150000D01*
G01*
X172270000Y-127785000D01*
G75*
G02*
X172120000Y-127935000I-150000J0D01*
G01*
X170370000Y-127935000D01*
G75*
G02*
X170220000Y-127785000I0J150000D01*
G01*
G37*
G36*
G01*
X170220000Y-126515000D02*
X170220000Y-126215000D01*
G75*
G02*
X170370000Y-126065000I150000J0D01*
G01*
X172120000Y-126065000D01*
G75*
G02*
X172270000Y-126215000I0J-150000D01*
G01*
X172270000Y-126515000D01*
G75*
G02*
X172120000Y-126665000I-150000J0D01*
G01*
X170370000Y-126665000D01*
G75*
G02*
X170220000Y-126515000I0J150000D01*
G01*
G37*
D10*
X136778000Y-80899000D03*
X136778000Y-82169000D03*
X136778000Y-83439000D03*
X136778000Y-84709000D03*
X136778000Y-85979000D03*
X136778000Y-87249000D03*
X136778000Y-88519000D03*
X136778000Y-89789000D03*
X136778000Y-91059000D03*
X136778000Y-92329000D03*
X136778000Y-93599000D03*
X136778000Y-94869000D03*
X136778000Y-96139000D03*
X136778000Y-97409000D03*
X146178000Y-97409000D03*
X146178000Y-96139000D03*
X146178000Y-94869000D03*
X146178000Y-93599000D03*
X146178000Y-92329000D03*
X146178000Y-91059000D03*
X146178000Y-89789000D03*
X146178000Y-88519000D03*
X146178000Y-87249000D03*
X146178000Y-85979000D03*
X146178000Y-84709000D03*
X146178000Y-83439000D03*
X146178000Y-82169000D03*
X146178000Y-80899000D03*
M02*
