%TF.GenerationSoftware,KiCad,Pcbnew,6.0.8+dfsg-1~bpo11+1+rpt1*%
%TF.CreationDate,2024-04-17T15:14:39-06:00*%
%TF.ProjectId,RetroWiFiModem,52657472-6f57-4694-9669-4d6f64656d2e,0.3*%
%TF.SameCoordinates,Original*%
%TF.FileFunction,Drillmap*%
%TF.FilePolarity,Positive*%
%FSLAX45Y45*%
G04 Gerber Fmt 4.5, Leading zero omitted, Abs format (unit mm)*
G04 Created by KiCad (PCBNEW 6.0.8+dfsg-1~bpo11+1+rpt1) date 2024-04-17 15:14:39*
%MOMM*%
%LPD*%
G01*
G04 APERTURE LIST*
%ADD10C,0.150000*%
%ADD11C,0.200000*%
%ADD12C,0.040000*%
%ADD13C,0.076200*%
%ADD14C,0.080000*%
%ADD15C,0.100000*%
G04 APERTURE END LIST*
D10*
X20970000Y-7583000D02*
X20970000Y-14197000D01*
X16248500Y-14197000D02*
X10970000Y-14197000D01*
X16911500Y-13682500D02*
G75*
G03*
X16248500Y-13682500I-331500J0D01*
G01*
X16911500Y-14197000D02*
X16911500Y-13682500D01*
X11198060Y-8114100D02*
X10970000Y-8114100D01*
X10970000Y-8114100D02*
X10970000Y-7583000D01*
X11683200Y-8727110D02*
X11198060Y-8727110D01*
X16248500Y-8097500D02*
G75*
G03*
X16911500Y-8097500I331500J0D01*
G01*
X16911500Y-8097500D02*
X16911500Y-7583000D01*
X11198060Y-8727110D02*
X11198060Y-8114100D01*
X11198060Y-10649890D02*
X11683200Y-10649890D01*
X11198060Y-11262900D02*
X11198060Y-10649890D01*
X16911500Y-7583000D02*
X20970000Y-7583000D01*
X16248500Y-13682500D02*
X16248500Y-14197000D01*
X16248500Y-7583000D02*
X16248500Y-8097500D01*
X20970000Y-14197000D02*
X16911500Y-14197000D01*
X10970000Y-7583000D02*
X16248500Y-7583000D01*
X11683200Y-10649890D02*
X11683200Y-8727110D01*
X10970000Y-14197000D02*
X10970000Y-11262900D01*
X10970000Y-11262900D02*
X11198060Y-11262900D01*
D11*
D12*
X12451400Y-8704900D02*
X12491400Y-8744900D01*
X12491400Y-8704900D02*
X12451400Y-8744900D01*
X13162600Y-8577900D02*
X13202600Y-8617900D01*
X13202600Y-8577900D02*
X13162600Y-8617900D01*
X13226100Y-8831900D02*
X13266100Y-8871900D01*
X13266100Y-8831900D02*
X13226100Y-8871900D01*
X13226100Y-10178100D02*
X13266100Y-10218100D01*
X13266100Y-10178100D02*
X13226100Y-10218100D01*
X13327700Y-8958900D02*
X13367700Y-8998900D01*
X13367700Y-8958900D02*
X13327700Y-8998900D01*
X13327700Y-9670100D02*
X13367700Y-9710100D01*
X13367700Y-9670100D02*
X13327700Y-9710100D01*
X13391200Y-9085900D02*
X13431200Y-9125900D01*
X13431200Y-9085900D02*
X13391200Y-9125900D01*
X13391200Y-10051100D02*
X13431200Y-10091100D01*
X13431200Y-10051100D02*
X13391200Y-10091100D01*
X13480100Y-9212900D02*
X13520100Y-9252900D01*
X13520100Y-9212900D02*
X13480100Y-9252900D01*
X13480100Y-10343200D02*
X13520100Y-10383200D01*
X13520100Y-10343200D02*
X13480100Y-10383200D01*
X13835700Y-9593900D02*
X13875700Y-9633900D01*
X13875700Y-9593900D02*
X13835700Y-9633900D01*
X13835700Y-9835200D02*
X13875700Y-9875200D01*
X13875700Y-9835200D02*
X13835700Y-9875200D01*
X13911900Y-9339900D02*
X13951900Y-9379900D01*
X13951900Y-9339900D02*
X13911900Y-9379900D01*
X13924600Y-11575100D02*
X13964600Y-11615100D01*
X13964600Y-11575100D02*
X13924600Y-11615100D01*
X14331000Y-8311200D02*
X14371000Y-8351200D01*
X14371000Y-8311200D02*
X14331000Y-8351200D01*
X14331000Y-9720900D02*
X14371000Y-9760900D01*
X14371000Y-9720900D02*
X14331000Y-9760900D01*
X14407200Y-8196900D02*
X14447200Y-8236900D01*
X14447200Y-8196900D02*
X14407200Y-8236900D01*
X14458000Y-8704900D02*
X14498000Y-8744900D01*
X14498000Y-8704900D02*
X14458000Y-8744900D01*
X14458000Y-11727500D02*
X14498000Y-11767500D01*
X14498000Y-11727500D02*
X14458000Y-11767500D01*
X14585000Y-11346500D02*
X14625000Y-11386500D01*
X14625000Y-11346500D02*
X14585000Y-11386500D01*
X14712000Y-11664000D02*
X14752000Y-11704000D01*
X14752000Y-11664000D02*
X14712000Y-11704000D01*
X14788200Y-9085900D02*
X14828200Y-9125900D01*
X14828200Y-9085900D02*
X14788200Y-9125900D01*
X14839000Y-11791000D02*
X14879000Y-11831000D01*
X14879000Y-11791000D02*
X14839000Y-11831000D01*
X14877100Y-8958900D02*
X14917100Y-8998900D01*
X14917100Y-8958900D02*
X14877100Y-8998900D01*
X14966000Y-9466900D02*
X15006000Y-9506900D01*
X15006000Y-9466900D02*
X14966000Y-9506900D01*
X14966000Y-11410000D02*
X15006000Y-11450000D01*
X15006000Y-11410000D02*
X14966000Y-11450000D01*
X14966000Y-11575100D02*
X15006000Y-11615100D01*
X15006000Y-11575100D02*
X14966000Y-11615100D01*
X15093000Y-8831900D02*
X15133000Y-8871900D01*
X15133000Y-8831900D02*
X15093000Y-8871900D01*
X15093000Y-12045000D02*
X15133000Y-12085000D01*
X15133000Y-12045000D02*
X15093000Y-12085000D01*
X15220000Y-9835200D02*
X15260000Y-9875200D01*
X15260000Y-9835200D02*
X15220000Y-9875200D01*
X15220000Y-11219500D02*
X15260000Y-11259500D01*
X15260000Y-11219500D02*
X15220000Y-11259500D01*
X15347000Y-9212900D02*
X15387000Y-9252900D01*
X15387000Y-9212900D02*
X15347000Y-9252900D01*
X15423200Y-8717600D02*
X15463200Y-8757600D01*
X15463200Y-8717600D02*
X15423200Y-8757600D01*
X15474000Y-12045000D02*
X15514000Y-12085000D01*
X15514000Y-12045000D02*
X15474000Y-12085000D01*
X15537500Y-8298500D02*
X15577500Y-8338500D01*
X15577500Y-8298500D02*
X15537500Y-8338500D01*
X15601000Y-11473500D02*
X15641000Y-11513500D01*
X15641000Y-11473500D02*
X15601000Y-11513500D01*
X15728000Y-11791000D02*
X15768000Y-11831000D01*
X15768000Y-11791000D02*
X15728000Y-11831000D01*
X15982000Y-11537000D02*
X16022000Y-11577000D01*
X16022000Y-11537000D02*
X15982000Y-11577000D01*
X16299500Y-11092500D02*
X16339500Y-11132500D01*
X16339500Y-11092500D02*
X16299500Y-11132500D01*
X16744000Y-11346500D02*
X16784000Y-11386500D01*
X16784000Y-11346500D02*
X16744000Y-11386500D01*
X16871000Y-12045000D02*
X16911000Y-12085000D01*
X16911000Y-12045000D02*
X16871000Y-12085000D01*
X16871000Y-13251500D02*
X16911000Y-13291500D01*
X16911000Y-13251500D02*
X16871000Y-13291500D01*
X17315500Y-11092500D02*
X17355500Y-11132500D01*
X17355500Y-11092500D02*
X17315500Y-11132500D01*
X17315500Y-11791000D02*
X17355500Y-11831000D01*
X17355500Y-11791000D02*
X17315500Y-11831000D01*
X17315500Y-12997500D02*
X17355500Y-13037500D01*
X17355500Y-12997500D02*
X17315500Y-13037500D01*
X17379000Y-11727500D02*
X17419000Y-11767500D01*
X17419000Y-11727500D02*
X17379000Y-11767500D01*
X17379000Y-13505500D02*
X17419000Y-13545500D01*
X17419000Y-13505500D02*
X17379000Y-13545500D01*
X17442500Y-11219500D02*
X17482500Y-11259500D01*
X17482500Y-11219500D02*
X17442500Y-11259500D01*
X17442500Y-11537000D02*
X17482500Y-11577000D01*
X17482500Y-11537000D02*
X17442500Y-11577000D01*
X17442500Y-11664000D02*
X17482500Y-11704000D01*
X17482500Y-11664000D02*
X17442500Y-11704000D01*
X17442500Y-13632500D02*
X17482500Y-13672500D01*
X17482500Y-13632500D02*
X17442500Y-13672500D01*
X17506000Y-11410000D02*
X17546000Y-11450000D01*
X17546000Y-11410000D02*
X17506000Y-11450000D01*
X17506000Y-13251500D02*
X17546000Y-13291500D01*
X17546000Y-13251500D02*
X17506000Y-13291500D01*
X17569500Y-11473500D02*
X17609500Y-11513500D01*
X17609500Y-11473500D02*
X17569500Y-11513500D01*
X17569500Y-13124500D02*
X17609500Y-13164500D01*
X17609500Y-13124500D02*
X17569500Y-13164500D01*
X18204500Y-12870500D02*
X18244500Y-12910500D01*
X18244500Y-12870500D02*
X18204500Y-12910500D01*
X18204500Y-12997500D02*
X18244500Y-13037500D01*
X18244500Y-12997500D02*
X18204500Y-13037500D01*
X18331500Y-13124500D02*
X18371500Y-13164500D01*
X18371500Y-13124500D02*
X18331500Y-13164500D01*
X18395000Y-13251500D02*
X18435000Y-13291500D01*
X18435000Y-13251500D02*
X18395000Y-13291500D01*
X18458500Y-13378500D02*
X18498500Y-13418500D01*
X18498500Y-13378500D02*
X18458500Y-13418500D01*
X19284000Y-13759500D02*
X19324000Y-13799500D01*
X19324000Y-13759500D02*
X19284000Y-13799500D01*
X19474500Y-13632500D02*
X19514500Y-13672500D01*
X19514500Y-13632500D02*
X19474500Y-13672500D01*
X19538000Y-13569000D02*
X19578000Y-13609000D01*
X19578000Y-13569000D02*
X19538000Y-13609000D01*
D13*
X17056100Y-9080500D02*
G75*
G03*
X17056100Y-9080500I-38100J0D01*
G01*
X17056100Y-9334500D02*
G75*
G03*
X17056100Y-9334500I-38100J0D01*
G01*
X17056100Y-9588500D02*
G75*
G03*
X17056100Y-9588500I-38100J0D01*
G01*
X17056100Y-9842500D02*
G75*
G03*
X17056100Y-9842500I-38100J0D01*
G01*
X17056100Y-10096500D02*
G75*
G03*
X17056100Y-10096500I-38100J0D01*
G01*
X17056100Y-10350500D02*
G75*
G03*
X17056100Y-10350500I-38100J0D01*
G01*
X17056100Y-10604500D02*
G75*
G03*
X17056100Y-10604500I-38100J0D01*
G01*
X17056100Y-10858500D02*
G75*
G03*
X17056100Y-10858500I-38100J0D01*
G01*
X18859500Y-9080500D02*
G75*
G03*
X18859500Y-9080500I-38100J0D01*
G01*
X18859500Y-9334500D02*
G75*
G03*
X18859500Y-9334500I-38100J0D01*
G01*
X18859500Y-9588500D02*
G75*
G03*
X18859500Y-9588500I-38100J0D01*
G01*
X18859500Y-9842500D02*
G75*
G03*
X18859500Y-9842500I-38100J0D01*
G01*
X18859500Y-10096500D02*
G75*
G03*
X18859500Y-10096500I-38100J0D01*
G01*
X18859500Y-10350500D02*
G75*
G03*
X18859500Y-10350500I-38100J0D01*
G01*
X18859500Y-10604500D02*
G75*
G03*
X18859500Y-10604500I-38100J0D01*
G01*
X18859500Y-10858500D02*
G75*
G03*
X18859500Y-10858500I-38100J0D01*
G01*
D14*
X12750800Y-8049900D02*
X12750800Y-8129900D01*
X12710800Y-8089900D02*
X12790800Y-8089900D01*
X12750800Y-8299900D02*
X12750800Y-8379900D01*
X12710800Y-8339900D02*
X12790800Y-8339900D01*
X13106400Y-8180900D02*
X13106400Y-8260900D01*
X13066400Y-8220900D02*
X13146400Y-8220900D01*
X13106400Y-8430900D02*
X13106400Y-8510900D01*
X13066400Y-8470900D02*
X13146400Y-8470900D01*
X14351000Y-7770500D02*
X14351000Y-7850500D01*
X14311000Y-7810500D02*
X14391000Y-7810500D01*
X14601000Y-7770500D02*
X14601000Y-7850500D01*
X14561000Y-7810500D02*
X14641000Y-7810500D01*
X14986000Y-8053900D02*
X14986000Y-8133900D01*
X14946000Y-8093900D02*
X15026000Y-8093900D01*
X14986000Y-8303900D02*
X14986000Y-8383900D01*
X14946000Y-8343900D02*
X15026000Y-8343900D01*
X15303500Y-7757800D02*
X15303500Y-7837800D01*
X15263500Y-7797800D02*
X15343500Y-7797800D01*
X15303500Y-8519800D02*
X15303500Y-8599800D01*
X15263500Y-8559800D02*
X15343500Y-8559800D01*
X15697200Y-9192900D02*
X15697200Y-9272900D01*
X15657200Y-9232900D02*
X15737200Y-9232900D01*
X15697200Y-9700900D02*
X15697200Y-9780900D01*
X15657200Y-9740900D02*
X15737200Y-9740900D01*
X15947200Y-9700900D02*
X15947200Y-9780900D01*
X15907200Y-9740900D02*
X15987200Y-9740900D01*
X15951200Y-9192900D02*
X15951200Y-9272900D01*
X15911200Y-9232900D02*
X15991200Y-9232900D01*
X16205200Y-9192900D02*
X16205200Y-9272900D01*
X16165200Y-9232900D02*
X16245200Y-9232900D01*
X16446500Y-8951600D02*
X16446500Y-9031600D01*
X16406500Y-8991600D02*
X16486500Y-8991600D01*
X16446500Y-9713600D02*
X16446500Y-9793600D01*
X16406500Y-9753600D02*
X16486500Y-9753600D01*
X17145000Y-11199500D02*
X17145000Y-11279500D01*
X17105000Y-11239500D02*
X17185000Y-11239500D01*
X17145000Y-11961500D02*
X17145000Y-12041500D01*
X17105000Y-12001500D02*
X17185000Y-12001500D01*
X17716500Y-8723000D02*
X17716500Y-8803000D01*
X17676500Y-8763000D02*
X17756500Y-8763000D01*
X17784000Y-12342500D02*
X17784000Y-12422500D01*
X17744000Y-12382500D02*
X17824000Y-12382500D01*
X18034000Y-12342500D02*
X18034000Y-12422500D01*
X17994000Y-12382500D02*
X18074000Y-12382500D01*
X18478500Y-8723000D02*
X18478500Y-8803000D01*
X18438500Y-8763000D02*
X18518500Y-8763000D01*
X18605500Y-11136000D02*
X18605500Y-11216000D01*
X18565500Y-11176000D02*
X18645500Y-11176000D01*
X18605500Y-11386000D02*
X18605500Y-11466000D01*
X18565500Y-11426000D02*
X18645500Y-11426000D01*
X19310350Y-10818500D02*
X19310350Y-10898500D01*
X19270350Y-10858500D02*
X19350350Y-10858500D01*
X19310350Y-11072500D02*
X19310350Y-11152500D01*
X19270350Y-11112500D02*
X19350350Y-11112500D01*
X19310350Y-11326500D02*
X19310350Y-11406500D01*
X19270350Y-11366500D02*
X19350350Y-11366500D01*
X19310350Y-11580500D02*
X19310350Y-11660500D01*
X19270350Y-11620500D02*
X19350350Y-11620500D01*
X19310350Y-11834500D02*
X19310350Y-11914500D01*
X19270350Y-11874500D02*
X19350350Y-11874500D01*
X19310350Y-12088500D02*
X19310350Y-12168500D01*
X19270350Y-12128500D02*
X19350350Y-12128500D01*
X19310350Y-12342500D02*
X19310350Y-12422500D01*
X19270350Y-12382500D02*
X19350350Y-12382500D01*
X19310350Y-12596500D02*
X19310350Y-12676500D01*
X19270350Y-12636500D02*
X19350350Y-12636500D01*
X20072350Y-10818500D02*
X20072350Y-10898500D01*
X20032350Y-10858500D02*
X20112350Y-10858500D01*
X20072350Y-11072500D02*
X20072350Y-11152500D01*
X20032350Y-11112500D02*
X20112350Y-11112500D01*
X20072350Y-11326500D02*
X20072350Y-11406500D01*
X20032350Y-11366500D02*
X20112350Y-11366500D01*
X20072350Y-11580500D02*
X20072350Y-11660500D01*
X20032350Y-11620500D02*
X20112350Y-11620500D01*
X20072350Y-11834500D02*
X20072350Y-11914500D01*
X20032350Y-11874500D02*
X20112350Y-11874500D01*
X20072350Y-12088500D02*
X20072350Y-12168500D01*
X20032350Y-12128500D02*
X20112350Y-12128500D01*
X20072350Y-12342500D02*
X20072350Y-12422500D01*
X20032350Y-12382500D02*
X20112350Y-12382500D01*
X20072350Y-12596500D02*
X20072350Y-12676500D01*
X20032350Y-12636500D02*
X20112350Y-12636500D01*
D15*
X11401856Y-12258606D02*
X11401856Y-12187894D01*
X11331144Y-12187894D01*
X11331144Y-12258606D01*
X11401856Y-12258606D01*
D11*
X11316500Y-12123250D02*
X11316500Y-12323250D01*
X11416500Y-12123250D02*
X11416500Y-12323250D01*
X11316500Y-12323250D02*
G75*
G03*
X11416500Y-12323250I50000J0D01*
G01*
X11416500Y-12123250D02*
G75*
G03*
X11316500Y-12123250I-50000J0D01*
G01*
D15*
X11701856Y-12728606D02*
X11701856Y-12657894D01*
X11631144Y-12657894D01*
X11631144Y-12728606D01*
X11701856Y-12728606D01*
D11*
X11566500Y-12743250D02*
X11766500Y-12743250D01*
X11566500Y-12643250D02*
X11766500Y-12643250D01*
X11766500Y-12743250D02*
G75*
G03*
X11766500Y-12643250I0J50000D01*
G01*
X11566500Y-12643250D02*
G75*
G03*
X11566500Y-12743250I0J-50000D01*
G01*
D15*
X12001856Y-12258606D02*
X12001856Y-12187894D01*
X11931144Y-12187894D01*
X11931144Y-12258606D01*
X12001856Y-12258606D01*
D11*
X11916500Y-12123250D02*
X11916500Y-12323250D01*
X12016500Y-12123250D02*
X12016500Y-12323250D01*
X11916500Y-12323250D02*
G75*
G03*
X12016500Y-12323250I50000J0D01*
G01*
X12016500Y-12123250D02*
G75*
G03*
X11916500Y-12123250I-50000J0D01*
G01*
D15*
X12671856Y-9215856D02*
X12671856Y-9145144D01*
X12601144Y-9145144D01*
X12601144Y-9215856D01*
X12671856Y-9215856D01*
X12671856Y-9469856D02*
X12671856Y-9399144D01*
X12601144Y-9399144D01*
X12601144Y-9469856D01*
X12671856Y-9469856D01*
X12671856Y-9723856D02*
X12671856Y-9653144D01*
X12601144Y-9653144D01*
X12601144Y-9723856D01*
X12671856Y-9723856D01*
X12671856Y-9977856D02*
X12671856Y-9907144D01*
X12601144Y-9907144D01*
X12601144Y-9977856D01*
X12671856Y-9977856D01*
X12671856Y-10231856D02*
X12671856Y-10161144D01*
X12601144Y-10161144D01*
X12601144Y-10231856D01*
X12671856Y-10231856D01*
X12925856Y-9215856D02*
X12925856Y-9145144D01*
X12855144Y-9145144D01*
X12855144Y-9215856D01*
X12925856Y-9215856D01*
X12925856Y-9469856D02*
X12925856Y-9399144D01*
X12855144Y-9399144D01*
X12855144Y-9469856D01*
X12925856Y-9469856D01*
X12925856Y-9723856D02*
X12925856Y-9653144D01*
X12855144Y-9653144D01*
X12855144Y-9723856D01*
X12925856Y-9723856D01*
X12925856Y-9977856D02*
X12925856Y-9907144D01*
X12855144Y-9907144D01*
X12855144Y-9977856D01*
X12925856Y-9977856D01*
X12925856Y-10231856D02*
X12925856Y-10161144D01*
X12855144Y-10161144D01*
X12855144Y-10231856D01*
X12925856Y-10231856D01*
X14259356Y-10322356D02*
X14259356Y-10251644D01*
X14188644Y-10251644D01*
X14188644Y-10322356D01*
X14259356Y-10322356D01*
X14259356Y-12608356D02*
X14259356Y-12537644D01*
X14188644Y-12537644D01*
X14188644Y-12608356D01*
X14259356Y-12608356D01*
X14513356Y-10322356D02*
X14513356Y-10251644D01*
X14442644Y-10251644D01*
X14442644Y-10322356D01*
X14513356Y-10322356D01*
X14513356Y-12608356D02*
X14513356Y-12537644D01*
X14442644Y-12537644D01*
X14442644Y-12608356D01*
X14513356Y-12608356D01*
X14767356Y-10322356D02*
X14767356Y-10251644D01*
X14696644Y-10251644D01*
X14696644Y-10322356D01*
X14767356Y-10322356D01*
X14767356Y-12608356D02*
X14767356Y-12537644D01*
X14696644Y-12537644D01*
X14696644Y-12608356D01*
X14767356Y-12608356D01*
X15021356Y-10322356D02*
X15021356Y-10251644D01*
X14950644Y-10251644D01*
X14950644Y-10322356D01*
X15021356Y-10322356D01*
X15021356Y-12608356D02*
X15021356Y-12537644D01*
X14950644Y-12537644D01*
X14950644Y-12608356D01*
X15021356Y-12608356D01*
X15275356Y-10322356D02*
X15275356Y-10251644D01*
X15204644Y-10251644D01*
X15204644Y-10322356D01*
X15275356Y-10322356D01*
X15275356Y-12608356D02*
X15275356Y-12537644D01*
X15204644Y-12537644D01*
X15204644Y-12608356D01*
X15275356Y-12608356D01*
X15529356Y-10322356D02*
X15529356Y-10251644D01*
X15458644Y-10251644D01*
X15458644Y-10322356D01*
X15529356Y-10322356D01*
X15529356Y-12608356D02*
X15529356Y-12537644D01*
X15458644Y-12537644D01*
X15458644Y-12608356D01*
X15529356Y-12608356D01*
X15783356Y-10322356D02*
X15783356Y-10251644D01*
X15712644Y-10251644D01*
X15712644Y-10322356D01*
X15783356Y-10322356D01*
X15783356Y-12608356D02*
X15783356Y-12537644D01*
X15712644Y-12537644D01*
X15712644Y-12608356D01*
X15783356Y-12608356D01*
X16037356Y-10322356D02*
X16037356Y-10251644D01*
X15966644Y-10251644D01*
X15966644Y-10322356D01*
X16037356Y-10322356D01*
X16037356Y-12608356D02*
X16037356Y-12537644D01*
X15966644Y-12537644D01*
X15966644Y-12608356D01*
X16037356Y-12608356D01*
X17370856Y-8353856D02*
X17370856Y-8283144D01*
X17300144Y-8283144D01*
X17300144Y-8353856D01*
X17370856Y-8353856D01*
X17624856Y-8353856D02*
X17624856Y-8283144D01*
X17554144Y-8283144D01*
X17554144Y-8353856D01*
X17624856Y-8353856D01*
X20609356Y-8486956D02*
X20609356Y-8416244D01*
X20538644Y-8416244D01*
X20538644Y-8486956D01*
X20609356Y-8486956D01*
X20609356Y-8740956D02*
X20609356Y-8670244D01*
X20538644Y-8670244D01*
X20538644Y-8740956D01*
X20609356Y-8740956D01*
X20609356Y-9147356D02*
X20609356Y-9076644D01*
X20538644Y-9076644D01*
X20538644Y-9147356D01*
X20609356Y-9147356D01*
X20609356Y-9401356D02*
X20609356Y-9330644D01*
X20538644Y-9330644D01*
X20538644Y-9401356D01*
X20609356Y-9401356D01*
X20609356Y-9807756D02*
X20609356Y-9737044D01*
X20538644Y-9737044D01*
X20538644Y-9807756D01*
X20609356Y-9807756D01*
X20609356Y-10061756D02*
X20609356Y-9991044D01*
X20538644Y-9991044D01*
X20538644Y-10061756D01*
X20609356Y-10061756D01*
X20609356Y-10468156D02*
X20609356Y-10397444D01*
X20538644Y-10397444D01*
X20538644Y-10468156D01*
X20609356Y-10468156D01*
X20609356Y-10722156D02*
X20609356Y-10651444D01*
X20538644Y-10651444D01*
X20538644Y-10722156D01*
X20609356Y-10722156D01*
X20609356Y-11128556D02*
X20609356Y-11057844D01*
X20538644Y-11057844D01*
X20538644Y-11128556D01*
X20609356Y-11128556D01*
X20609356Y-11382556D02*
X20609356Y-11311844D01*
X20538644Y-11311844D01*
X20538644Y-11382556D01*
X20609356Y-11382556D01*
X20609356Y-11788956D02*
X20609356Y-11718244D01*
X20538644Y-11718244D01*
X20538644Y-11788956D01*
X20609356Y-11788956D01*
X20609356Y-12042956D02*
X20609356Y-11972244D01*
X20538644Y-11972244D01*
X20538644Y-12042956D01*
X20609356Y-12042956D01*
X20609356Y-12449356D02*
X20609356Y-12378644D01*
X20538644Y-12378644D01*
X20538644Y-12449356D01*
X20609356Y-12449356D01*
X20609356Y-12703356D02*
X20609356Y-12632644D01*
X20538644Y-12632644D01*
X20538644Y-12703356D01*
X20609356Y-12703356D01*
X20609356Y-13109756D02*
X20609356Y-13039044D01*
X20538644Y-13039044D01*
X20538644Y-13109756D01*
X20609356Y-13109756D01*
X20609356Y-13363756D02*
X20609356Y-13293044D01*
X20538644Y-13293044D01*
X20538644Y-13363756D01*
X20609356Y-13363756D01*
D11*
X11220119Y-14514976D02*
X11220119Y-14314976D01*
X11267738Y-14314976D01*
X11296309Y-14324500D01*
X11315357Y-14343548D01*
X11324881Y-14362595D01*
X11334405Y-14400690D01*
X11334405Y-14429262D01*
X11324881Y-14467357D01*
X11315357Y-14486405D01*
X11296309Y-14505452D01*
X11267738Y-14514976D01*
X11220119Y-14514976D01*
X11420119Y-14514976D02*
X11420119Y-14381643D01*
X11420119Y-14419738D02*
X11429643Y-14400690D01*
X11439167Y-14391167D01*
X11458214Y-14381643D01*
X11477262Y-14381643D01*
X11543928Y-14514976D02*
X11543928Y-14381643D01*
X11543928Y-14314976D02*
X11534405Y-14324500D01*
X11543928Y-14334024D01*
X11553452Y-14324500D01*
X11543928Y-14314976D01*
X11543928Y-14334024D01*
X11667738Y-14514976D02*
X11648690Y-14505452D01*
X11639167Y-14486405D01*
X11639167Y-14314976D01*
X11772500Y-14514976D02*
X11753452Y-14505452D01*
X11743928Y-14486405D01*
X11743928Y-14314976D01*
X12001071Y-14514976D02*
X12001071Y-14314976D01*
X12067738Y-14457833D01*
X12134405Y-14314976D01*
X12134405Y-14514976D01*
X12315357Y-14514976D02*
X12315357Y-14410214D01*
X12305833Y-14391167D01*
X12286786Y-14381643D01*
X12248690Y-14381643D01*
X12229643Y-14391167D01*
X12315357Y-14505452D02*
X12296309Y-14514976D01*
X12248690Y-14514976D01*
X12229643Y-14505452D01*
X12220119Y-14486405D01*
X12220119Y-14467357D01*
X12229643Y-14448309D01*
X12248690Y-14438786D01*
X12296309Y-14438786D01*
X12315357Y-14429262D01*
X12410595Y-14381643D02*
X12410595Y-14581643D01*
X12410595Y-14391167D02*
X12429643Y-14381643D01*
X12467738Y-14381643D01*
X12486786Y-14391167D01*
X12496309Y-14400690D01*
X12505833Y-14419738D01*
X12505833Y-14476881D01*
X12496309Y-14495928D01*
X12486786Y-14505452D01*
X12467738Y-14514976D01*
X12429643Y-14514976D01*
X12410595Y-14505452D01*
X12591548Y-14495928D02*
X12601071Y-14505452D01*
X12591548Y-14514976D01*
X12582024Y-14505452D01*
X12591548Y-14495928D01*
X12591548Y-14514976D01*
X12591548Y-14391167D02*
X12601071Y-14400690D01*
X12591548Y-14410214D01*
X12582024Y-14400690D01*
X12591548Y-14391167D01*
X12591548Y-14410214D01*
D12*
X10922500Y-14824500D02*
X10962500Y-14864500D01*
X10962500Y-14824500D02*
X10922500Y-14864500D01*
D11*
X11258214Y-14734976D02*
X11277262Y-14734976D01*
X11296309Y-14744500D01*
X11305833Y-14754024D01*
X11315357Y-14773071D01*
X11324881Y-14811167D01*
X11324881Y-14858786D01*
X11315357Y-14896881D01*
X11305833Y-14915928D01*
X11296309Y-14925452D01*
X11277262Y-14934976D01*
X11258214Y-14934976D01*
X11239167Y-14925452D01*
X11229643Y-14915928D01*
X11220119Y-14896881D01*
X11210595Y-14858786D01*
X11210595Y-14811167D01*
X11220119Y-14773071D01*
X11229643Y-14754024D01*
X11239167Y-14744500D01*
X11258214Y-14734976D01*
X11410595Y-14915928D02*
X11420119Y-14925452D01*
X11410595Y-14934976D01*
X11401071Y-14925452D01*
X11410595Y-14915928D01*
X11410595Y-14934976D01*
X11591548Y-14801643D02*
X11591548Y-14934976D01*
X11543928Y-14725452D02*
X11496309Y-14868309D01*
X11620119Y-14868309D01*
X11734405Y-14734976D02*
X11753452Y-14734976D01*
X11772500Y-14744500D01*
X11782024Y-14754024D01*
X11791548Y-14773071D01*
X11801071Y-14811167D01*
X11801071Y-14858786D01*
X11791548Y-14896881D01*
X11782024Y-14915928D01*
X11772500Y-14925452D01*
X11753452Y-14934976D01*
X11734405Y-14934976D01*
X11715357Y-14925452D01*
X11705833Y-14915928D01*
X11696309Y-14896881D01*
X11686786Y-14858786D01*
X11686786Y-14811167D01*
X11696309Y-14773071D01*
X11705833Y-14754024D01*
X11715357Y-14744500D01*
X11734405Y-14734976D01*
X11924881Y-14734976D02*
X11943928Y-14734976D01*
X11962976Y-14744500D01*
X11972500Y-14754024D01*
X11982024Y-14773071D01*
X11991548Y-14811167D01*
X11991548Y-14858786D01*
X11982024Y-14896881D01*
X11972500Y-14915928D01*
X11962976Y-14925452D01*
X11943928Y-14934976D01*
X11924881Y-14934976D01*
X11905833Y-14925452D01*
X11896309Y-14915928D01*
X11886786Y-14896881D01*
X11877262Y-14858786D01*
X11877262Y-14811167D01*
X11886786Y-14773071D01*
X11896309Y-14754024D01*
X11905833Y-14744500D01*
X11924881Y-14734976D01*
X12077262Y-14934976D02*
X12077262Y-14801643D01*
X12077262Y-14820690D02*
X12086786Y-14811167D01*
X12105833Y-14801643D01*
X12134405Y-14801643D01*
X12153452Y-14811167D01*
X12162976Y-14830214D01*
X12162976Y-14934976D01*
X12162976Y-14830214D02*
X12172500Y-14811167D01*
X12191548Y-14801643D01*
X12220119Y-14801643D01*
X12239167Y-14811167D01*
X12248690Y-14830214D01*
X12248690Y-14934976D01*
X12343928Y-14934976D02*
X12343928Y-14801643D01*
X12343928Y-14820690D02*
X12353452Y-14811167D01*
X12372500Y-14801643D01*
X12401071Y-14801643D01*
X12420119Y-14811167D01*
X12429643Y-14830214D01*
X12429643Y-14934976D01*
X12429643Y-14830214D02*
X12439167Y-14811167D01*
X12458214Y-14801643D01*
X12486786Y-14801643D01*
X12505833Y-14811167D01*
X12515357Y-14830214D01*
X12515357Y-14934976D01*
X12905833Y-14725452D02*
X12734405Y-14982595D01*
X13162976Y-14734976D02*
X13182024Y-14734976D01*
X13201071Y-14744500D01*
X13210595Y-14754024D01*
X13220119Y-14773071D01*
X13229643Y-14811167D01*
X13229643Y-14858786D01*
X13220119Y-14896881D01*
X13210595Y-14915928D01*
X13201071Y-14925452D01*
X13182024Y-14934976D01*
X13162976Y-14934976D01*
X13143928Y-14925452D01*
X13134405Y-14915928D01*
X13124881Y-14896881D01*
X13115357Y-14858786D01*
X13115357Y-14811167D01*
X13124881Y-14773071D01*
X13134405Y-14754024D01*
X13143928Y-14744500D01*
X13162976Y-14734976D01*
X13315357Y-14915928D02*
X13324881Y-14925452D01*
X13315357Y-14934976D01*
X13305833Y-14925452D01*
X13315357Y-14915928D01*
X13315357Y-14934976D01*
X13448690Y-14734976D02*
X13467738Y-14734976D01*
X13486786Y-14744500D01*
X13496309Y-14754024D01*
X13505833Y-14773071D01*
X13515357Y-14811167D01*
X13515357Y-14858786D01*
X13505833Y-14896881D01*
X13496309Y-14915928D01*
X13486786Y-14925452D01*
X13467738Y-14934976D01*
X13448690Y-14934976D01*
X13429643Y-14925452D01*
X13420119Y-14915928D01*
X13410595Y-14896881D01*
X13401071Y-14858786D01*
X13401071Y-14811167D01*
X13410595Y-14773071D01*
X13420119Y-14754024D01*
X13429643Y-14744500D01*
X13448690Y-14734976D01*
X13705833Y-14934976D02*
X13591548Y-14934976D01*
X13648690Y-14934976D02*
X13648690Y-14734976D01*
X13629643Y-14763548D01*
X13610595Y-14782595D01*
X13591548Y-14792119D01*
X13886786Y-14734976D02*
X13791548Y-14734976D01*
X13782024Y-14830214D01*
X13791548Y-14820690D01*
X13810595Y-14811167D01*
X13858214Y-14811167D01*
X13877262Y-14820690D01*
X13886786Y-14830214D01*
X13896309Y-14849262D01*
X13896309Y-14896881D01*
X13886786Y-14915928D01*
X13877262Y-14925452D01*
X13858214Y-14934976D01*
X13810595Y-14934976D01*
X13791548Y-14925452D01*
X13782024Y-14915928D01*
X13962976Y-14734976D02*
X14096309Y-14734976D01*
X14010595Y-14934976D01*
X14162976Y-14734976D02*
X14162976Y-14773071D01*
X14239167Y-14734976D02*
X14239167Y-14773071D01*
X14534405Y-15011167D02*
X14524881Y-15001643D01*
X14505833Y-14973071D01*
X14496309Y-14954024D01*
X14486786Y-14925452D01*
X14477262Y-14877833D01*
X14477262Y-14839738D01*
X14486786Y-14792119D01*
X14496309Y-14763548D01*
X14505833Y-14744500D01*
X14524881Y-14715928D01*
X14534405Y-14706405D01*
X14696309Y-14734976D02*
X14658214Y-14734976D01*
X14639167Y-14744500D01*
X14629643Y-14754024D01*
X14610595Y-14782595D01*
X14601071Y-14820690D01*
X14601071Y-14896881D01*
X14610595Y-14915928D01*
X14620119Y-14925452D01*
X14639167Y-14934976D01*
X14677262Y-14934976D01*
X14696309Y-14925452D01*
X14705833Y-14915928D01*
X14715357Y-14896881D01*
X14715357Y-14849262D01*
X14705833Y-14830214D01*
X14696309Y-14820690D01*
X14677262Y-14811167D01*
X14639167Y-14811167D01*
X14620119Y-14820690D01*
X14610595Y-14830214D01*
X14601071Y-14849262D01*
X14782024Y-14734976D02*
X14905833Y-14734976D01*
X14839167Y-14811167D01*
X14867738Y-14811167D01*
X14886786Y-14820690D01*
X14896309Y-14830214D01*
X14905833Y-14849262D01*
X14905833Y-14896881D01*
X14896309Y-14915928D01*
X14886786Y-14925452D01*
X14867738Y-14934976D01*
X14810595Y-14934976D01*
X14791548Y-14925452D01*
X14782024Y-14915928D01*
X15143928Y-14934976D02*
X15143928Y-14734976D01*
X15229643Y-14934976D02*
X15229643Y-14830214D01*
X15220119Y-14811167D01*
X15201071Y-14801643D01*
X15172500Y-14801643D01*
X15153452Y-14811167D01*
X15143928Y-14820690D01*
X15353452Y-14934976D02*
X15334405Y-14925452D01*
X15324881Y-14915928D01*
X15315357Y-14896881D01*
X15315357Y-14839738D01*
X15324881Y-14820690D01*
X15334405Y-14811167D01*
X15353452Y-14801643D01*
X15382024Y-14801643D01*
X15401071Y-14811167D01*
X15410595Y-14820690D01*
X15420119Y-14839738D01*
X15420119Y-14896881D01*
X15410595Y-14915928D01*
X15401071Y-14925452D01*
X15382024Y-14934976D01*
X15353452Y-14934976D01*
X15534405Y-14934976D02*
X15515357Y-14925452D01*
X15505833Y-14906405D01*
X15505833Y-14734976D01*
X15686786Y-14925452D02*
X15667738Y-14934976D01*
X15629643Y-14934976D01*
X15610595Y-14925452D01*
X15601071Y-14906405D01*
X15601071Y-14830214D01*
X15610595Y-14811167D01*
X15629643Y-14801643D01*
X15667738Y-14801643D01*
X15686786Y-14811167D01*
X15696309Y-14830214D01*
X15696309Y-14849262D01*
X15601071Y-14868309D01*
X15772500Y-14925452D02*
X15791548Y-14934976D01*
X15829643Y-14934976D01*
X15848690Y-14925452D01*
X15858214Y-14906405D01*
X15858214Y-14896881D01*
X15848690Y-14877833D01*
X15829643Y-14868309D01*
X15801071Y-14868309D01*
X15782024Y-14858786D01*
X15772500Y-14839738D01*
X15772500Y-14830214D01*
X15782024Y-14811167D01*
X15801071Y-14801643D01*
X15829643Y-14801643D01*
X15848690Y-14811167D01*
X15924881Y-15011167D02*
X15934405Y-15001643D01*
X15953452Y-14973071D01*
X15962976Y-14954024D01*
X15972500Y-14925452D01*
X15982024Y-14877833D01*
X15982024Y-14839738D01*
X15972500Y-14792119D01*
X15962976Y-14763548D01*
X15953452Y-14744500D01*
X15934405Y-14715928D01*
X15924881Y-14706405D01*
D13*
X10962500Y-15108500D02*
G75*
G03*
X10962500Y-15108500I-38100J0D01*
G01*
D11*
X11258214Y-14998976D02*
X11277262Y-14998976D01*
X11296309Y-15008500D01*
X11305833Y-15018024D01*
X11315357Y-15037071D01*
X11324881Y-15075167D01*
X11324881Y-15122786D01*
X11315357Y-15160881D01*
X11305833Y-15179928D01*
X11296309Y-15189452D01*
X11277262Y-15198976D01*
X11258214Y-15198976D01*
X11239167Y-15189452D01*
X11229643Y-15179928D01*
X11220119Y-15160881D01*
X11210595Y-15122786D01*
X11210595Y-15075167D01*
X11220119Y-15037071D01*
X11229643Y-15018024D01*
X11239167Y-15008500D01*
X11258214Y-14998976D01*
X11410595Y-15179928D02*
X11420119Y-15189452D01*
X11410595Y-15198976D01*
X11401071Y-15189452D01*
X11410595Y-15179928D01*
X11410595Y-15198976D01*
X11486786Y-14998976D02*
X11620119Y-14998976D01*
X11534405Y-15198976D01*
X11782024Y-14998976D02*
X11743928Y-14998976D01*
X11724881Y-15008500D01*
X11715357Y-15018024D01*
X11696309Y-15046595D01*
X11686786Y-15084690D01*
X11686786Y-15160881D01*
X11696309Y-15179928D01*
X11705833Y-15189452D01*
X11724881Y-15198976D01*
X11762976Y-15198976D01*
X11782024Y-15189452D01*
X11791548Y-15179928D01*
X11801071Y-15160881D01*
X11801071Y-15113262D01*
X11791548Y-15094214D01*
X11782024Y-15084690D01*
X11762976Y-15075167D01*
X11724881Y-15075167D01*
X11705833Y-15084690D01*
X11696309Y-15094214D01*
X11686786Y-15113262D01*
X11877262Y-15018024D02*
X11886786Y-15008500D01*
X11905833Y-14998976D01*
X11953452Y-14998976D01*
X11972500Y-15008500D01*
X11982024Y-15018024D01*
X11991548Y-15037071D01*
X11991548Y-15056119D01*
X11982024Y-15084690D01*
X11867738Y-15198976D01*
X11991548Y-15198976D01*
X12077262Y-15198976D02*
X12077262Y-15065643D01*
X12077262Y-15084690D02*
X12086786Y-15075167D01*
X12105833Y-15065643D01*
X12134405Y-15065643D01*
X12153452Y-15075167D01*
X12162976Y-15094214D01*
X12162976Y-15198976D01*
X12162976Y-15094214D02*
X12172500Y-15075167D01*
X12191548Y-15065643D01*
X12220119Y-15065643D01*
X12239167Y-15075167D01*
X12248690Y-15094214D01*
X12248690Y-15198976D01*
X12343928Y-15198976D02*
X12343928Y-15065643D01*
X12343928Y-15084690D02*
X12353452Y-15075167D01*
X12372500Y-15065643D01*
X12401071Y-15065643D01*
X12420119Y-15075167D01*
X12429643Y-15094214D01*
X12429643Y-15198976D01*
X12429643Y-15094214D02*
X12439167Y-15075167D01*
X12458214Y-15065643D01*
X12486786Y-15065643D01*
X12505833Y-15075167D01*
X12515357Y-15094214D01*
X12515357Y-15198976D01*
X12905833Y-14989452D02*
X12734405Y-15246595D01*
X13162976Y-14998976D02*
X13182024Y-14998976D01*
X13201071Y-15008500D01*
X13210595Y-15018024D01*
X13220119Y-15037071D01*
X13229643Y-15075167D01*
X13229643Y-15122786D01*
X13220119Y-15160881D01*
X13210595Y-15179928D01*
X13201071Y-15189452D01*
X13182024Y-15198976D01*
X13162976Y-15198976D01*
X13143928Y-15189452D01*
X13134405Y-15179928D01*
X13124881Y-15160881D01*
X13115357Y-15122786D01*
X13115357Y-15075167D01*
X13124881Y-15037071D01*
X13134405Y-15018024D01*
X13143928Y-15008500D01*
X13162976Y-14998976D01*
X13315357Y-15179928D02*
X13324881Y-15189452D01*
X13315357Y-15198976D01*
X13305833Y-15189452D01*
X13315357Y-15179928D01*
X13315357Y-15198976D01*
X13448690Y-14998976D02*
X13467738Y-14998976D01*
X13486786Y-15008500D01*
X13496309Y-15018024D01*
X13505833Y-15037071D01*
X13515357Y-15075167D01*
X13515357Y-15122786D01*
X13505833Y-15160881D01*
X13496309Y-15179928D01*
X13486786Y-15189452D01*
X13467738Y-15198976D01*
X13448690Y-15198976D01*
X13429643Y-15189452D01*
X13420119Y-15179928D01*
X13410595Y-15160881D01*
X13401071Y-15122786D01*
X13401071Y-15075167D01*
X13410595Y-15037071D01*
X13420119Y-15018024D01*
X13429643Y-15008500D01*
X13448690Y-14998976D01*
X13582024Y-14998976D02*
X13705833Y-14998976D01*
X13639167Y-15075167D01*
X13667738Y-15075167D01*
X13686786Y-15084690D01*
X13696309Y-15094214D01*
X13705833Y-15113262D01*
X13705833Y-15160881D01*
X13696309Y-15179928D01*
X13686786Y-15189452D01*
X13667738Y-15198976D01*
X13610595Y-15198976D01*
X13591548Y-15189452D01*
X13582024Y-15179928D01*
X13829643Y-14998976D02*
X13848690Y-14998976D01*
X13867738Y-15008500D01*
X13877262Y-15018024D01*
X13886786Y-15037071D01*
X13896309Y-15075167D01*
X13896309Y-15122786D01*
X13886786Y-15160881D01*
X13877262Y-15179928D01*
X13867738Y-15189452D01*
X13848690Y-15198976D01*
X13829643Y-15198976D01*
X13810595Y-15189452D01*
X13801071Y-15179928D01*
X13791548Y-15160881D01*
X13782024Y-15122786D01*
X13782024Y-15075167D01*
X13791548Y-15037071D01*
X13801071Y-15018024D01*
X13810595Y-15008500D01*
X13829643Y-14998976D01*
X14020119Y-14998976D02*
X14039167Y-14998976D01*
X14058214Y-15008500D01*
X14067738Y-15018024D01*
X14077262Y-15037071D01*
X14086786Y-15075167D01*
X14086786Y-15122786D01*
X14077262Y-15160881D01*
X14067738Y-15179928D01*
X14058214Y-15189452D01*
X14039167Y-15198976D01*
X14020119Y-15198976D01*
X14001071Y-15189452D01*
X13991548Y-15179928D01*
X13982024Y-15160881D01*
X13972500Y-15122786D01*
X13972500Y-15075167D01*
X13982024Y-15037071D01*
X13991548Y-15018024D01*
X14001071Y-15008500D01*
X14020119Y-14998976D01*
X14162976Y-14998976D02*
X14162976Y-15037071D01*
X14239167Y-14998976D02*
X14239167Y-15037071D01*
X14534405Y-15275167D02*
X14524881Y-15265643D01*
X14505833Y-15237071D01*
X14496309Y-15218024D01*
X14486786Y-15189452D01*
X14477262Y-15141833D01*
X14477262Y-15103738D01*
X14486786Y-15056119D01*
X14496309Y-15027548D01*
X14505833Y-15008500D01*
X14524881Y-14979928D01*
X14534405Y-14970405D01*
X14715357Y-15198976D02*
X14601071Y-15198976D01*
X14658214Y-15198976D02*
X14658214Y-14998976D01*
X14639167Y-15027548D01*
X14620119Y-15046595D01*
X14601071Y-15056119D01*
X14886786Y-14998976D02*
X14848690Y-14998976D01*
X14829643Y-15008500D01*
X14820119Y-15018024D01*
X14801071Y-15046595D01*
X14791548Y-15084690D01*
X14791548Y-15160881D01*
X14801071Y-15179928D01*
X14810595Y-15189452D01*
X14829643Y-15198976D01*
X14867738Y-15198976D01*
X14886786Y-15189452D01*
X14896309Y-15179928D01*
X14905833Y-15160881D01*
X14905833Y-15113262D01*
X14896309Y-15094214D01*
X14886786Y-15084690D01*
X14867738Y-15075167D01*
X14829643Y-15075167D01*
X14810595Y-15084690D01*
X14801071Y-15094214D01*
X14791548Y-15113262D01*
X15143928Y-15198976D02*
X15143928Y-14998976D01*
X15229643Y-15198976D02*
X15229643Y-15094214D01*
X15220119Y-15075167D01*
X15201071Y-15065643D01*
X15172500Y-15065643D01*
X15153452Y-15075167D01*
X15143928Y-15084690D01*
X15353452Y-15198976D02*
X15334405Y-15189452D01*
X15324881Y-15179928D01*
X15315357Y-15160881D01*
X15315357Y-15103738D01*
X15324881Y-15084690D01*
X15334405Y-15075167D01*
X15353452Y-15065643D01*
X15382024Y-15065643D01*
X15401071Y-15075167D01*
X15410595Y-15084690D01*
X15420119Y-15103738D01*
X15420119Y-15160881D01*
X15410595Y-15179928D01*
X15401071Y-15189452D01*
X15382024Y-15198976D01*
X15353452Y-15198976D01*
X15534405Y-15198976D02*
X15515357Y-15189452D01*
X15505833Y-15170405D01*
X15505833Y-14998976D01*
X15686786Y-15189452D02*
X15667738Y-15198976D01*
X15629643Y-15198976D01*
X15610595Y-15189452D01*
X15601071Y-15170405D01*
X15601071Y-15094214D01*
X15610595Y-15075167D01*
X15629643Y-15065643D01*
X15667738Y-15065643D01*
X15686786Y-15075167D01*
X15696309Y-15094214D01*
X15696309Y-15113262D01*
X15601071Y-15132309D01*
X15772500Y-15189452D02*
X15791548Y-15198976D01*
X15829643Y-15198976D01*
X15848690Y-15189452D01*
X15858214Y-15170405D01*
X15858214Y-15160881D01*
X15848690Y-15141833D01*
X15829643Y-15132309D01*
X15801071Y-15132309D01*
X15782024Y-15122786D01*
X15772500Y-15103738D01*
X15772500Y-15094214D01*
X15782024Y-15075167D01*
X15801071Y-15065643D01*
X15829643Y-15065643D01*
X15848690Y-15075167D01*
X15924881Y-15275167D02*
X15934405Y-15265643D01*
X15953452Y-15237071D01*
X15962976Y-15218024D01*
X15972500Y-15189452D01*
X15982024Y-15141833D01*
X15982024Y-15103738D01*
X15972500Y-15056119D01*
X15962976Y-15027548D01*
X15953452Y-15008500D01*
X15934405Y-14979928D01*
X15924881Y-14970405D01*
D14*
X10922500Y-15332500D02*
X10922500Y-15412500D01*
X10882500Y-15372500D02*
X10962500Y-15372500D01*
D11*
X11258214Y-15262976D02*
X11277262Y-15262976D01*
X11296309Y-15272500D01*
X11305833Y-15282024D01*
X11315357Y-15301071D01*
X11324881Y-15339167D01*
X11324881Y-15386786D01*
X11315357Y-15424881D01*
X11305833Y-15443928D01*
X11296309Y-15453452D01*
X11277262Y-15462976D01*
X11258214Y-15462976D01*
X11239167Y-15453452D01*
X11229643Y-15443928D01*
X11220119Y-15424881D01*
X11210595Y-15386786D01*
X11210595Y-15339167D01*
X11220119Y-15301071D01*
X11229643Y-15282024D01*
X11239167Y-15272500D01*
X11258214Y-15262976D01*
X11410595Y-15443928D02*
X11420119Y-15453452D01*
X11410595Y-15462976D01*
X11401071Y-15453452D01*
X11410595Y-15443928D01*
X11410595Y-15462976D01*
X11534405Y-15348690D02*
X11515357Y-15339167D01*
X11505833Y-15329643D01*
X11496309Y-15310595D01*
X11496309Y-15301071D01*
X11505833Y-15282024D01*
X11515357Y-15272500D01*
X11534405Y-15262976D01*
X11572500Y-15262976D01*
X11591548Y-15272500D01*
X11601071Y-15282024D01*
X11610595Y-15301071D01*
X11610595Y-15310595D01*
X11601071Y-15329643D01*
X11591548Y-15339167D01*
X11572500Y-15348690D01*
X11534405Y-15348690D01*
X11515357Y-15358214D01*
X11505833Y-15367738D01*
X11496309Y-15386786D01*
X11496309Y-15424881D01*
X11505833Y-15443928D01*
X11515357Y-15453452D01*
X11534405Y-15462976D01*
X11572500Y-15462976D01*
X11591548Y-15453452D01*
X11601071Y-15443928D01*
X11610595Y-15424881D01*
X11610595Y-15386786D01*
X11601071Y-15367738D01*
X11591548Y-15358214D01*
X11572500Y-15348690D01*
X11734405Y-15262976D02*
X11753452Y-15262976D01*
X11772500Y-15272500D01*
X11782024Y-15282024D01*
X11791548Y-15301071D01*
X11801071Y-15339167D01*
X11801071Y-15386786D01*
X11791548Y-15424881D01*
X11782024Y-15443928D01*
X11772500Y-15453452D01*
X11753452Y-15462976D01*
X11734405Y-15462976D01*
X11715357Y-15453452D01*
X11705833Y-15443928D01*
X11696309Y-15424881D01*
X11686786Y-15386786D01*
X11686786Y-15339167D01*
X11696309Y-15301071D01*
X11705833Y-15282024D01*
X11715357Y-15272500D01*
X11734405Y-15262976D01*
X11924881Y-15262976D02*
X11943928Y-15262976D01*
X11962976Y-15272500D01*
X11972500Y-15282024D01*
X11982024Y-15301071D01*
X11991548Y-15339167D01*
X11991548Y-15386786D01*
X11982024Y-15424881D01*
X11972500Y-15443928D01*
X11962976Y-15453452D01*
X11943928Y-15462976D01*
X11924881Y-15462976D01*
X11905833Y-15453452D01*
X11896309Y-15443928D01*
X11886786Y-15424881D01*
X11877262Y-15386786D01*
X11877262Y-15339167D01*
X11886786Y-15301071D01*
X11896309Y-15282024D01*
X11905833Y-15272500D01*
X11924881Y-15262976D01*
X12077262Y-15462976D02*
X12077262Y-15329643D01*
X12077262Y-15348690D02*
X12086786Y-15339167D01*
X12105833Y-15329643D01*
X12134405Y-15329643D01*
X12153452Y-15339167D01*
X12162976Y-15358214D01*
X12162976Y-15462976D01*
X12162976Y-15358214D02*
X12172500Y-15339167D01*
X12191548Y-15329643D01*
X12220119Y-15329643D01*
X12239167Y-15339167D01*
X12248690Y-15358214D01*
X12248690Y-15462976D01*
X12343928Y-15462976D02*
X12343928Y-15329643D01*
X12343928Y-15348690D02*
X12353452Y-15339167D01*
X12372500Y-15329643D01*
X12401071Y-15329643D01*
X12420119Y-15339167D01*
X12429643Y-15358214D01*
X12429643Y-15462976D01*
X12429643Y-15358214D02*
X12439167Y-15339167D01*
X12458214Y-15329643D01*
X12486786Y-15329643D01*
X12505833Y-15339167D01*
X12515357Y-15358214D01*
X12515357Y-15462976D01*
X12905833Y-15253452D02*
X12734405Y-15510595D01*
X13162976Y-15262976D02*
X13182024Y-15262976D01*
X13201071Y-15272500D01*
X13210595Y-15282024D01*
X13220119Y-15301071D01*
X13229643Y-15339167D01*
X13229643Y-15386786D01*
X13220119Y-15424881D01*
X13210595Y-15443928D01*
X13201071Y-15453452D01*
X13182024Y-15462976D01*
X13162976Y-15462976D01*
X13143928Y-15453452D01*
X13134405Y-15443928D01*
X13124881Y-15424881D01*
X13115357Y-15386786D01*
X13115357Y-15339167D01*
X13124881Y-15301071D01*
X13134405Y-15282024D01*
X13143928Y-15272500D01*
X13162976Y-15262976D01*
X13315357Y-15443928D02*
X13324881Y-15453452D01*
X13315357Y-15462976D01*
X13305833Y-15453452D01*
X13315357Y-15443928D01*
X13315357Y-15462976D01*
X13448690Y-15262976D02*
X13467738Y-15262976D01*
X13486786Y-15272500D01*
X13496309Y-15282024D01*
X13505833Y-15301071D01*
X13515357Y-15339167D01*
X13515357Y-15386786D01*
X13505833Y-15424881D01*
X13496309Y-15443928D01*
X13486786Y-15453452D01*
X13467738Y-15462976D01*
X13448690Y-15462976D01*
X13429643Y-15453452D01*
X13420119Y-15443928D01*
X13410595Y-15424881D01*
X13401071Y-15386786D01*
X13401071Y-15339167D01*
X13410595Y-15301071D01*
X13420119Y-15282024D01*
X13429643Y-15272500D01*
X13448690Y-15262976D01*
X13582024Y-15262976D02*
X13705833Y-15262976D01*
X13639167Y-15339167D01*
X13667738Y-15339167D01*
X13686786Y-15348690D01*
X13696309Y-15358214D01*
X13705833Y-15377262D01*
X13705833Y-15424881D01*
X13696309Y-15443928D01*
X13686786Y-15453452D01*
X13667738Y-15462976D01*
X13610595Y-15462976D01*
X13591548Y-15453452D01*
X13582024Y-15443928D01*
X13896309Y-15462976D02*
X13782024Y-15462976D01*
X13839167Y-15462976D02*
X13839167Y-15262976D01*
X13820119Y-15291548D01*
X13801071Y-15310595D01*
X13782024Y-15320119D01*
X14077262Y-15262976D02*
X13982024Y-15262976D01*
X13972500Y-15358214D01*
X13982024Y-15348690D01*
X14001071Y-15339167D01*
X14048690Y-15339167D01*
X14067738Y-15348690D01*
X14077262Y-15358214D01*
X14086786Y-15377262D01*
X14086786Y-15424881D01*
X14077262Y-15443928D01*
X14067738Y-15453452D01*
X14048690Y-15462976D01*
X14001071Y-15462976D01*
X13982024Y-15453452D01*
X13972500Y-15443928D01*
X14162976Y-15262976D02*
X14162976Y-15301071D01*
X14239167Y-15262976D02*
X14239167Y-15301071D01*
X14534405Y-15539167D02*
X14524881Y-15529643D01*
X14505833Y-15501071D01*
X14496309Y-15482024D01*
X14486786Y-15453452D01*
X14477262Y-15405833D01*
X14477262Y-15367738D01*
X14486786Y-15320119D01*
X14496309Y-15291548D01*
X14505833Y-15272500D01*
X14524881Y-15243928D01*
X14534405Y-15234405D01*
X14696309Y-15329643D02*
X14696309Y-15462976D01*
X14648690Y-15253452D02*
X14601071Y-15396309D01*
X14724881Y-15396309D01*
X14905833Y-15462976D02*
X14791548Y-15462976D01*
X14848690Y-15462976D02*
X14848690Y-15262976D01*
X14829643Y-15291548D01*
X14810595Y-15310595D01*
X14791548Y-15320119D01*
X15143928Y-15462976D02*
X15143928Y-15262976D01*
X15229643Y-15462976D02*
X15229643Y-15358214D01*
X15220119Y-15339167D01*
X15201071Y-15329643D01*
X15172500Y-15329643D01*
X15153452Y-15339167D01*
X15143928Y-15348690D01*
X15353452Y-15462976D02*
X15334405Y-15453452D01*
X15324881Y-15443928D01*
X15315357Y-15424881D01*
X15315357Y-15367738D01*
X15324881Y-15348690D01*
X15334405Y-15339167D01*
X15353452Y-15329643D01*
X15382024Y-15329643D01*
X15401071Y-15339167D01*
X15410595Y-15348690D01*
X15420119Y-15367738D01*
X15420119Y-15424881D01*
X15410595Y-15443928D01*
X15401071Y-15453452D01*
X15382024Y-15462976D01*
X15353452Y-15462976D01*
X15534405Y-15462976D02*
X15515357Y-15453452D01*
X15505833Y-15434405D01*
X15505833Y-15262976D01*
X15686786Y-15453452D02*
X15667738Y-15462976D01*
X15629643Y-15462976D01*
X15610595Y-15453452D01*
X15601071Y-15434405D01*
X15601071Y-15358214D01*
X15610595Y-15339167D01*
X15629643Y-15329643D01*
X15667738Y-15329643D01*
X15686786Y-15339167D01*
X15696309Y-15358214D01*
X15696309Y-15377262D01*
X15601071Y-15396309D01*
X15772500Y-15453452D02*
X15791548Y-15462976D01*
X15829643Y-15462976D01*
X15848690Y-15453452D01*
X15858214Y-15434405D01*
X15858214Y-15424881D01*
X15848690Y-15405833D01*
X15829643Y-15396309D01*
X15801071Y-15396309D01*
X15782024Y-15386786D01*
X15772500Y-15367738D01*
X15772500Y-15358214D01*
X15782024Y-15339167D01*
X15801071Y-15329643D01*
X15829643Y-15329643D01*
X15848690Y-15339167D01*
X15924881Y-15539167D02*
X15934405Y-15529643D01*
X15953452Y-15501071D01*
X15962976Y-15482024D01*
X15972500Y-15453452D01*
X15982024Y-15405833D01*
X15982024Y-15367738D01*
X15972500Y-15320119D01*
X15962976Y-15291548D01*
X15953452Y-15272500D01*
X15934405Y-15243928D01*
X15924881Y-15234405D01*
D15*
X10947856Y-15671856D02*
X10947856Y-15601144D01*
X10877144Y-15601144D01*
X10877144Y-15671856D01*
X10947856Y-15671856D01*
D11*
X11324881Y-15726976D02*
X11210595Y-15726976D01*
X11267738Y-15726976D02*
X11267738Y-15526976D01*
X11248690Y-15555548D01*
X11229643Y-15574595D01*
X11210595Y-15584119D01*
X11410595Y-15707928D02*
X11420119Y-15717452D01*
X11410595Y-15726976D01*
X11401071Y-15717452D01*
X11410595Y-15707928D01*
X11410595Y-15726976D01*
X11543928Y-15526976D02*
X11562976Y-15526976D01*
X11582024Y-15536500D01*
X11591548Y-15546024D01*
X11601071Y-15565071D01*
X11610595Y-15603167D01*
X11610595Y-15650786D01*
X11601071Y-15688881D01*
X11591548Y-15707928D01*
X11582024Y-15717452D01*
X11562976Y-15726976D01*
X11543928Y-15726976D01*
X11524881Y-15717452D01*
X11515357Y-15707928D01*
X11505833Y-15688881D01*
X11496309Y-15650786D01*
X11496309Y-15603167D01*
X11505833Y-15565071D01*
X11515357Y-15546024D01*
X11524881Y-15536500D01*
X11543928Y-15526976D01*
X11734405Y-15526976D02*
X11753452Y-15526976D01*
X11772500Y-15536500D01*
X11782024Y-15546024D01*
X11791548Y-15565071D01*
X11801071Y-15603167D01*
X11801071Y-15650786D01*
X11791548Y-15688881D01*
X11782024Y-15707928D01*
X11772500Y-15717452D01*
X11753452Y-15726976D01*
X11734405Y-15726976D01*
X11715357Y-15717452D01*
X11705833Y-15707928D01*
X11696309Y-15688881D01*
X11686786Y-15650786D01*
X11686786Y-15603167D01*
X11696309Y-15565071D01*
X11705833Y-15546024D01*
X11715357Y-15536500D01*
X11734405Y-15526976D01*
X11924881Y-15526976D02*
X11943928Y-15526976D01*
X11962976Y-15536500D01*
X11972500Y-15546024D01*
X11982024Y-15565071D01*
X11991548Y-15603167D01*
X11991548Y-15650786D01*
X11982024Y-15688881D01*
X11972500Y-15707928D01*
X11962976Y-15717452D01*
X11943928Y-15726976D01*
X11924881Y-15726976D01*
X11905833Y-15717452D01*
X11896309Y-15707928D01*
X11886786Y-15688881D01*
X11877262Y-15650786D01*
X11877262Y-15603167D01*
X11886786Y-15565071D01*
X11896309Y-15546024D01*
X11905833Y-15536500D01*
X11924881Y-15526976D01*
X12077262Y-15726976D02*
X12077262Y-15593643D01*
X12077262Y-15612690D02*
X12086786Y-15603167D01*
X12105833Y-15593643D01*
X12134405Y-15593643D01*
X12153452Y-15603167D01*
X12162976Y-15622214D01*
X12162976Y-15726976D01*
X12162976Y-15622214D02*
X12172500Y-15603167D01*
X12191548Y-15593643D01*
X12220119Y-15593643D01*
X12239167Y-15603167D01*
X12248690Y-15622214D01*
X12248690Y-15726976D01*
X12343928Y-15726976D02*
X12343928Y-15593643D01*
X12343928Y-15612690D02*
X12353452Y-15603167D01*
X12372500Y-15593643D01*
X12401071Y-15593643D01*
X12420119Y-15603167D01*
X12429643Y-15622214D01*
X12429643Y-15726976D01*
X12429643Y-15622214D02*
X12439167Y-15603167D01*
X12458214Y-15593643D01*
X12486786Y-15593643D01*
X12505833Y-15603167D01*
X12515357Y-15622214D01*
X12515357Y-15726976D01*
X12905833Y-15517452D02*
X12734405Y-15774595D01*
X13162976Y-15526976D02*
X13182024Y-15526976D01*
X13201071Y-15536500D01*
X13210595Y-15546024D01*
X13220119Y-15565071D01*
X13229643Y-15603167D01*
X13229643Y-15650786D01*
X13220119Y-15688881D01*
X13210595Y-15707928D01*
X13201071Y-15717452D01*
X13182024Y-15726976D01*
X13162976Y-15726976D01*
X13143928Y-15717452D01*
X13134405Y-15707928D01*
X13124881Y-15688881D01*
X13115357Y-15650786D01*
X13115357Y-15603167D01*
X13124881Y-15565071D01*
X13134405Y-15546024D01*
X13143928Y-15536500D01*
X13162976Y-15526976D01*
X13315357Y-15707928D02*
X13324881Y-15717452D01*
X13315357Y-15726976D01*
X13305833Y-15717452D01*
X13315357Y-15707928D01*
X13315357Y-15726976D01*
X13448690Y-15526976D02*
X13467738Y-15526976D01*
X13486786Y-15536500D01*
X13496309Y-15546024D01*
X13505833Y-15565071D01*
X13515357Y-15603167D01*
X13515357Y-15650786D01*
X13505833Y-15688881D01*
X13496309Y-15707928D01*
X13486786Y-15717452D01*
X13467738Y-15726976D01*
X13448690Y-15726976D01*
X13429643Y-15717452D01*
X13420119Y-15707928D01*
X13410595Y-15688881D01*
X13401071Y-15650786D01*
X13401071Y-15603167D01*
X13410595Y-15565071D01*
X13420119Y-15546024D01*
X13429643Y-15536500D01*
X13448690Y-15526976D01*
X13582024Y-15526976D02*
X13705833Y-15526976D01*
X13639167Y-15603167D01*
X13667738Y-15603167D01*
X13686786Y-15612690D01*
X13696309Y-15622214D01*
X13705833Y-15641262D01*
X13705833Y-15688881D01*
X13696309Y-15707928D01*
X13686786Y-15717452D01*
X13667738Y-15726976D01*
X13610595Y-15726976D01*
X13591548Y-15717452D01*
X13582024Y-15707928D01*
X13801071Y-15726976D02*
X13839167Y-15726976D01*
X13858214Y-15717452D01*
X13867738Y-15707928D01*
X13886786Y-15679357D01*
X13896309Y-15641262D01*
X13896309Y-15565071D01*
X13886786Y-15546024D01*
X13877262Y-15536500D01*
X13858214Y-15526976D01*
X13820119Y-15526976D01*
X13801071Y-15536500D01*
X13791548Y-15546024D01*
X13782024Y-15565071D01*
X13782024Y-15612690D01*
X13791548Y-15631738D01*
X13801071Y-15641262D01*
X13820119Y-15650786D01*
X13858214Y-15650786D01*
X13877262Y-15641262D01*
X13886786Y-15631738D01*
X13896309Y-15612690D01*
X14067738Y-15593643D02*
X14067738Y-15726976D01*
X14020119Y-15517452D02*
X13972500Y-15660309D01*
X14096309Y-15660309D01*
X14162976Y-15526976D02*
X14162976Y-15565071D01*
X14239167Y-15526976D02*
X14239167Y-15565071D01*
X14534405Y-15803167D02*
X14524881Y-15793643D01*
X14505833Y-15765071D01*
X14496309Y-15746024D01*
X14486786Y-15717452D01*
X14477262Y-15669833D01*
X14477262Y-15631738D01*
X14486786Y-15584119D01*
X14496309Y-15555548D01*
X14505833Y-15536500D01*
X14524881Y-15507928D01*
X14534405Y-15498405D01*
X14696309Y-15593643D02*
X14696309Y-15726976D01*
X14648690Y-15517452D02*
X14601071Y-15660309D01*
X14724881Y-15660309D01*
X14886786Y-15593643D02*
X14886786Y-15726976D01*
X14839167Y-15517452D02*
X14791548Y-15660309D01*
X14915357Y-15660309D01*
X15143928Y-15726976D02*
X15143928Y-15526976D01*
X15229643Y-15726976D02*
X15229643Y-15622214D01*
X15220119Y-15603167D01*
X15201071Y-15593643D01*
X15172500Y-15593643D01*
X15153452Y-15603167D01*
X15143928Y-15612690D01*
X15353452Y-15726976D02*
X15334405Y-15717452D01*
X15324881Y-15707928D01*
X15315357Y-15688881D01*
X15315357Y-15631738D01*
X15324881Y-15612690D01*
X15334405Y-15603167D01*
X15353452Y-15593643D01*
X15382024Y-15593643D01*
X15401071Y-15603167D01*
X15410595Y-15612690D01*
X15420119Y-15631738D01*
X15420119Y-15688881D01*
X15410595Y-15707928D01*
X15401071Y-15717452D01*
X15382024Y-15726976D01*
X15353452Y-15726976D01*
X15534405Y-15726976D02*
X15515357Y-15717452D01*
X15505833Y-15698405D01*
X15505833Y-15526976D01*
X15686786Y-15717452D02*
X15667738Y-15726976D01*
X15629643Y-15726976D01*
X15610595Y-15717452D01*
X15601071Y-15698405D01*
X15601071Y-15622214D01*
X15610595Y-15603167D01*
X15629643Y-15593643D01*
X15667738Y-15593643D01*
X15686786Y-15603167D01*
X15696309Y-15622214D01*
X15696309Y-15641262D01*
X15601071Y-15660309D01*
X15772500Y-15717452D02*
X15791548Y-15726976D01*
X15829643Y-15726976D01*
X15848690Y-15717452D01*
X15858214Y-15698405D01*
X15858214Y-15688881D01*
X15848690Y-15669833D01*
X15829643Y-15660309D01*
X15801071Y-15660309D01*
X15782024Y-15650786D01*
X15772500Y-15631738D01*
X15772500Y-15622214D01*
X15782024Y-15603167D01*
X15801071Y-15593643D01*
X15829643Y-15593643D01*
X15848690Y-15603167D01*
X16096309Y-15650786D02*
X16248690Y-15650786D01*
X16172500Y-15726976D02*
X16172500Y-15574595D01*
X16477262Y-15526976D02*
X16601071Y-15526976D01*
X16534405Y-15603167D01*
X16562976Y-15603167D01*
X16582024Y-15612690D01*
X16591548Y-15622214D01*
X16601071Y-15641262D01*
X16601071Y-15688881D01*
X16591548Y-15707928D01*
X16582024Y-15717452D01*
X16562976Y-15726976D01*
X16505833Y-15726976D01*
X16486786Y-15717452D01*
X16477262Y-15707928D01*
X16829643Y-15717452D02*
X16848690Y-15726976D01*
X16886786Y-15726976D01*
X16905833Y-15717452D01*
X16915357Y-15698405D01*
X16915357Y-15688881D01*
X16905833Y-15669833D01*
X16886786Y-15660309D01*
X16858214Y-15660309D01*
X16839167Y-15650786D01*
X16829643Y-15631738D01*
X16829643Y-15622214D01*
X16839167Y-15603167D01*
X16858214Y-15593643D01*
X16886786Y-15593643D01*
X16905833Y-15603167D01*
X17029643Y-15726976D02*
X17010595Y-15717452D01*
X17001071Y-15698405D01*
X17001071Y-15526976D01*
X17134405Y-15726976D02*
X17115357Y-15717452D01*
X17105833Y-15707928D01*
X17096310Y-15688881D01*
X17096310Y-15631738D01*
X17105833Y-15612690D01*
X17115357Y-15603167D01*
X17134405Y-15593643D01*
X17162976Y-15593643D01*
X17182024Y-15603167D01*
X17191548Y-15612690D01*
X17201071Y-15631738D01*
X17201071Y-15688881D01*
X17191548Y-15707928D01*
X17182024Y-15717452D01*
X17162976Y-15726976D01*
X17134405Y-15726976D01*
X17258214Y-15593643D02*
X17334405Y-15593643D01*
X17286786Y-15526976D02*
X17286786Y-15698405D01*
X17296310Y-15717452D01*
X17315357Y-15726976D01*
X17334405Y-15726976D01*
X17391548Y-15717452D02*
X17410595Y-15726976D01*
X17448690Y-15726976D01*
X17467738Y-15717452D01*
X17477262Y-15698405D01*
X17477262Y-15688881D01*
X17467738Y-15669833D01*
X17448690Y-15660309D01*
X17420119Y-15660309D01*
X17401071Y-15650786D01*
X17391548Y-15631738D01*
X17391548Y-15622214D01*
X17401071Y-15603167D01*
X17420119Y-15593643D01*
X17448690Y-15593643D01*
X17467738Y-15603167D01*
X17543929Y-15803167D02*
X17553452Y-15793643D01*
X17572500Y-15765071D01*
X17582024Y-15746024D01*
X17591548Y-15717452D01*
X17601071Y-15669833D01*
X17601071Y-15631738D01*
X17591548Y-15584119D01*
X17582024Y-15555548D01*
X17572500Y-15536500D01*
X17553452Y-15507928D01*
X17543929Y-15498405D01*
M02*
