%TF.GenerationSoftware,KiCad,Pcbnew,6.0.8+dfsg-1~bpo11+1+rpt1*%
%TF.CreationDate,2024-04-17T15:14:39-06:00*%
%TF.ProjectId,RetroWiFiModem,52657472-6f57-4694-9669-4d6f64656d2e,0.3*%
%TF.SameCoordinates,Original*%
%TF.FileFunction,Drillmap*%
%TF.FilePolarity,Positive*%
%FSLAX45Y45*%
G04 Gerber Fmt 4.5, Leading zero omitted, Abs format (unit mm)*
G04 Created by KiCad (PCBNEW 6.0.8+dfsg-1~bpo11+1+rpt1) date 2024-04-17 15:14:39*
%MOMM*%
%LPD*%
G01*
G04 APERTURE LIST*
%ADD10C,0.150000*%
%ADD11C,0.200000*%
%ADD12C,0.320000*%
G04 APERTURE END LIST*
D10*
X20970000Y-7583000D02*
X20970000Y-14197000D01*
X16248500Y-14197000D02*
X10970000Y-14197000D01*
X16911500Y-13682500D02*
G75*
G03*
X16248500Y-13682500I-331500J0D01*
G01*
X16911500Y-14197000D02*
X16911500Y-13682500D01*
X11198060Y-8114100D02*
X10970000Y-8114100D01*
X10970000Y-8114100D02*
X10970000Y-7583000D01*
X11683200Y-8727110D02*
X11198060Y-8727110D01*
X16248500Y-8097500D02*
G75*
G03*
X16911500Y-8097500I331500J0D01*
G01*
X16911500Y-8097500D02*
X16911500Y-7583000D01*
X11198060Y-8727110D02*
X11198060Y-8114100D01*
X11198060Y-10649890D02*
X11683200Y-10649890D01*
X11198060Y-11262900D02*
X11198060Y-10649890D01*
X16911500Y-7583000D02*
X20970000Y-7583000D01*
X16248500Y-13682500D02*
X16248500Y-14197000D01*
X16248500Y-7583000D02*
X16248500Y-8097500D01*
X20970000Y-14197000D02*
X16911500Y-14197000D01*
X10970000Y-7583000D02*
X16248500Y-7583000D01*
X11683200Y-10649890D02*
X11683200Y-8727110D01*
X10970000Y-14197000D02*
X10970000Y-11262900D01*
X10970000Y-11262900D02*
X11198060Y-11262900D01*
D11*
D12*
X11785000Y-8417000D02*
X12105000Y-8737000D01*
X12105000Y-8417000D02*
X11785000Y-8737000D01*
X11785000Y-13042000D02*
X12105000Y-13362000D01*
X12105000Y-13042000D02*
X11785000Y-13362000D01*
X15785000Y-8417000D02*
X16105000Y-8737000D01*
X16105000Y-8417000D02*
X15785000Y-8737000D01*
X15785000Y-13042000D02*
X16105000Y-13362000D01*
X16105000Y-13042000D02*
X15785000Y-13362000D01*
X18785000Y-8417000D02*
X19105000Y-8737000D01*
X19105000Y-8417000D02*
X18785000Y-8737000D01*
X18785000Y-13042000D02*
X19105000Y-13362000D01*
X19105000Y-13042000D02*
X18785000Y-13362000D01*
D11*
X11220119Y-14514976D02*
X11220119Y-14314976D01*
X11267738Y-14314976D01*
X11296309Y-14324500D01*
X11315357Y-14343548D01*
X11324881Y-14362595D01*
X11334405Y-14400690D01*
X11334405Y-14429262D01*
X11324881Y-14467357D01*
X11315357Y-14486405D01*
X11296309Y-14505452D01*
X11267738Y-14514976D01*
X11220119Y-14514976D01*
X11420119Y-14514976D02*
X11420119Y-14381643D01*
X11420119Y-14419738D02*
X11429643Y-14400690D01*
X11439167Y-14391167D01*
X11458214Y-14381643D01*
X11477262Y-14381643D01*
X11543928Y-14514976D02*
X11543928Y-14381643D01*
X11543928Y-14314976D02*
X11534405Y-14324500D01*
X11543928Y-14334024D01*
X11553452Y-14324500D01*
X11543928Y-14314976D01*
X11543928Y-14334024D01*
X11667738Y-14514976D02*
X11648690Y-14505452D01*
X11639167Y-14486405D01*
X11639167Y-14314976D01*
X11772500Y-14514976D02*
X11753452Y-14505452D01*
X11743928Y-14486405D01*
X11743928Y-14314976D01*
X12001071Y-14514976D02*
X12001071Y-14314976D01*
X12067738Y-14457833D01*
X12134405Y-14314976D01*
X12134405Y-14514976D01*
X12315357Y-14514976D02*
X12315357Y-14410214D01*
X12305833Y-14391167D01*
X12286786Y-14381643D01*
X12248690Y-14381643D01*
X12229643Y-14391167D01*
X12315357Y-14505452D02*
X12296309Y-14514976D01*
X12248690Y-14514976D01*
X12229643Y-14505452D01*
X12220119Y-14486405D01*
X12220119Y-14467357D01*
X12229643Y-14448309D01*
X12248690Y-14438786D01*
X12296309Y-14438786D01*
X12315357Y-14429262D01*
X12410595Y-14381643D02*
X12410595Y-14581643D01*
X12410595Y-14391167D02*
X12429643Y-14381643D01*
X12467738Y-14381643D01*
X12486786Y-14391167D01*
X12496309Y-14400690D01*
X12505833Y-14419738D01*
X12505833Y-14476881D01*
X12496309Y-14495928D01*
X12486786Y-14505452D01*
X12467738Y-14514976D01*
X12429643Y-14514976D01*
X12410595Y-14505452D01*
X12591548Y-14495928D02*
X12601071Y-14505452D01*
X12591548Y-14514976D01*
X12582024Y-14505452D01*
X12591548Y-14495928D01*
X12591548Y-14514976D01*
X12591548Y-14391167D02*
X12601071Y-14400690D01*
X12591548Y-14410214D01*
X12582024Y-14400690D01*
X12591548Y-14391167D01*
X12591548Y-14410214D01*
X10762500Y-14744500D02*
X10962500Y-14944500D01*
X10962500Y-14744500D02*
X10762500Y-14944500D01*
X11201071Y-14734976D02*
X11324881Y-14734976D01*
X11258214Y-14811167D01*
X11286786Y-14811167D01*
X11305833Y-14820690D01*
X11315357Y-14830214D01*
X11324881Y-14849262D01*
X11324881Y-14896881D01*
X11315357Y-14915928D01*
X11305833Y-14925452D01*
X11286786Y-14934976D01*
X11229643Y-14934976D01*
X11210595Y-14925452D01*
X11201071Y-14915928D01*
X11410595Y-14915928D02*
X11420119Y-14925452D01*
X11410595Y-14934976D01*
X11401071Y-14925452D01*
X11410595Y-14915928D01*
X11410595Y-14934976D01*
X11496309Y-14754024D02*
X11505833Y-14744500D01*
X11524881Y-14734976D01*
X11572500Y-14734976D01*
X11591548Y-14744500D01*
X11601071Y-14754024D01*
X11610595Y-14773071D01*
X11610595Y-14792119D01*
X11601071Y-14820690D01*
X11486786Y-14934976D01*
X11610595Y-14934976D01*
X11734405Y-14734976D02*
X11753452Y-14734976D01*
X11772500Y-14744500D01*
X11782024Y-14754024D01*
X11791548Y-14773071D01*
X11801071Y-14811167D01*
X11801071Y-14858786D01*
X11791548Y-14896881D01*
X11782024Y-14915928D01*
X11772500Y-14925452D01*
X11753452Y-14934976D01*
X11734405Y-14934976D01*
X11715357Y-14925452D01*
X11705833Y-14915928D01*
X11696309Y-14896881D01*
X11686786Y-14858786D01*
X11686786Y-14811167D01*
X11696309Y-14773071D01*
X11705833Y-14754024D01*
X11715357Y-14744500D01*
X11734405Y-14734976D01*
X11924881Y-14734976D02*
X11943928Y-14734976D01*
X11962976Y-14744500D01*
X11972500Y-14754024D01*
X11982024Y-14773071D01*
X11991548Y-14811167D01*
X11991548Y-14858786D01*
X11982024Y-14896881D01*
X11972500Y-14915928D01*
X11962976Y-14925452D01*
X11943928Y-14934976D01*
X11924881Y-14934976D01*
X11905833Y-14925452D01*
X11896309Y-14915928D01*
X11886786Y-14896881D01*
X11877262Y-14858786D01*
X11877262Y-14811167D01*
X11886786Y-14773071D01*
X11896309Y-14754024D01*
X11905833Y-14744500D01*
X11924881Y-14734976D01*
X12077262Y-14934976D02*
X12077262Y-14801643D01*
X12077262Y-14820690D02*
X12086786Y-14811167D01*
X12105833Y-14801643D01*
X12134405Y-14801643D01*
X12153452Y-14811167D01*
X12162976Y-14830214D01*
X12162976Y-14934976D01*
X12162976Y-14830214D02*
X12172500Y-14811167D01*
X12191548Y-14801643D01*
X12220119Y-14801643D01*
X12239167Y-14811167D01*
X12248690Y-14830214D01*
X12248690Y-14934976D01*
X12343928Y-14934976D02*
X12343928Y-14801643D01*
X12343928Y-14820690D02*
X12353452Y-14811167D01*
X12372500Y-14801643D01*
X12401071Y-14801643D01*
X12420119Y-14811167D01*
X12429643Y-14830214D01*
X12429643Y-14934976D01*
X12429643Y-14830214D02*
X12439167Y-14811167D01*
X12458214Y-14801643D01*
X12486786Y-14801643D01*
X12505833Y-14811167D01*
X12515357Y-14830214D01*
X12515357Y-14934976D01*
X12905833Y-14725452D02*
X12734405Y-14982595D01*
X13162976Y-14734976D02*
X13182024Y-14734976D01*
X13201071Y-14744500D01*
X13210595Y-14754024D01*
X13220119Y-14773071D01*
X13229643Y-14811167D01*
X13229643Y-14858786D01*
X13220119Y-14896881D01*
X13210595Y-14915928D01*
X13201071Y-14925452D01*
X13182024Y-14934976D01*
X13162976Y-14934976D01*
X13143928Y-14925452D01*
X13134405Y-14915928D01*
X13124881Y-14896881D01*
X13115357Y-14858786D01*
X13115357Y-14811167D01*
X13124881Y-14773071D01*
X13134405Y-14754024D01*
X13143928Y-14744500D01*
X13162976Y-14734976D01*
X13315357Y-14915928D02*
X13324881Y-14925452D01*
X13315357Y-14934976D01*
X13305833Y-14925452D01*
X13315357Y-14915928D01*
X13315357Y-14934976D01*
X13515357Y-14934976D02*
X13401071Y-14934976D01*
X13458214Y-14934976D02*
X13458214Y-14734976D01*
X13439167Y-14763548D01*
X13420119Y-14782595D01*
X13401071Y-14792119D01*
X13591548Y-14754024D02*
X13601071Y-14744500D01*
X13620119Y-14734976D01*
X13667738Y-14734976D01*
X13686786Y-14744500D01*
X13696309Y-14754024D01*
X13705833Y-14773071D01*
X13705833Y-14792119D01*
X13696309Y-14820690D01*
X13582024Y-14934976D01*
X13705833Y-14934976D01*
X13877262Y-14734976D02*
X13839167Y-14734976D01*
X13820119Y-14744500D01*
X13810595Y-14754024D01*
X13791548Y-14782595D01*
X13782024Y-14820690D01*
X13782024Y-14896881D01*
X13791548Y-14915928D01*
X13801071Y-14925452D01*
X13820119Y-14934976D01*
X13858214Y-14934976D01*
X13877262Y-14925452D01*
X13886786Y-14915928D01*
X13896309Y-14896881D01*
X13896309Y-14849262D01*
X13886786Y-14830214D01*
X13877262Y-14820690D01*
X13858214Y-14811167D01*
X13820119Y-14811167D01*
X13801071Y-14820690D01*
X13791548Y-14830214D01*
X13782024Y-14849262D01*
X14020119Y-14734976D02*
X14039167Y-14734976D01*
X14058214Y-14744500D01*
X14067738Y-14754024D01*
X14077262Y-14773071D01*
X14086786Y-14811167D01*
X14086786Y-14858786D01*
X14077262Y-14896881D01*
X14067738Y-14915928D01*
X14058214Y-14925452D01*
X14039167Y-14934976D01*
X14020119Y-14934976D01*
X14001071Y-14925452D01*
X13991548Y-14915928D01*
X13982024Y-14896881D01*
X13972500Y-14858786D01*
X13972500Y-14811167D01*
X13982024Y-14773071D01*
X13991548Y-14754024D01*
X14001071Y-14744500D01*
X14020119Y-14734976D01*
X14162976Y-14734976D02*
X14162976Y-14773071D01*
X14239167Y-14734976D02*
X14239167Y-14773071D01*
X14534405Y-15011167D02*
X14524881Y-15001643D01*
X14505833Y-14973071D01*
X14496309Y-14954024D01*
X14486786Y-14925452D01*
X14477262Y-14877833D01*
X14477262Y-14839738D01*
X14486786Y-14792119D01*
X14496309Y-14763548D01*
X14505833Y-14744500D01*
X14524881Y-14715928D01*
X14534405Y-14706405D01*
X14696309Y-14734976D02*
X14658214Y-14734976D01*
X14639167Y-14744500D01*
X14629643Y-14754024D01*
X14610595Y-14782595D01*
X14601071Y-14820690D01*
X14601071Y-14896881D01*
X14610595Y-14915928D01*
X14620119Y-14925452D01*
X14639167Y-14934976D01*
X14677262Y-14934976D01*
X14696309Y-14925452D01*
X14705833Y-14915928D01*
X14715357Y-14896881D01*
X14715357Y-14849262D01*
X14705833Y-14830214D01*
X14696309Y-14820690D01*
X14677262Y-14811167D01*
X14639167Y-14811167D01*
X14620119Y-14820690D01*
X14610595Y-14830214D01*
X14601071Y-14849262D01*
X14953452Y-14934976D02*
X14953452Y-14734976D01*
X15039167Y-14934976D02*
X15039167Y-14830214D01*
X15029643Y-14811167D01*
X15010595Y-14801643D01*
X14982024Y-14801643D01*
X14962976Y-14811167D01*
X14953452Y-14820690D01*
X15162976Y-14934976D02*
X15143928Y-14925452D01*
X15134405Y-14915928D01*
X15124881Y-14896881D01*
X15124881Y-14839738D01*
X15134405Y-14820690D01*
X15143928Y-14811167D01*
X15162976Y-14801643D01*
X15191548Y-14801643D01*
X15210595Y-14811167D01*
X15220119Y-14820690D01*
X15229643Y-14839738D01*
X15229643Y-14896881D01*
X15220119Y-14915928D01*
X15210595Y-14925452D01*
X15191548Y-14934976D01*
X15162976Y-14934976D01*
X15343928Y-14934976D02*
X15324881Y-14925452D01*
X15315357Y-14906405D01*
X15315357Y-14734976D01*
X15496309Y-14925452D02*
X15477262Y-14934976D01*
X15439167Y-14934976D01*
X15420119Y-14925452D01*
X15410595Y-14906405D01*
X15410595Y-14830214D01*
X15420119Y-14811167D01*
X15439167Y-14801643D01*
X15477262Y-14801643D01*
X15496309Y-14811167D01*
X15505833Y-14830214D01*
X15505833Y-14849262D01*
X15410595Y-14868309D01*
X15582024Y-14925452D02*
X15601071Y-14934976D01*
X15639167Y-14934976D01*
X15658214Y-14925452D01*
X15667738Y-14906405D01*
X15667738Y-14896881D01*
X15658214Y-14877833D01*
X15639167Y-14868309D01*
X15610595Y-14868309D01*
X15591548Y-14858786D01*
X15582024Y-14839738D01*
X15582024Y-14830214D01*
X15591548Y-14811167D01*
X15610595Y-14801643D01*
X15639167Y-14801643D01*
X15658214Y-14811167D01*
X15734405Y-15011167D02*
X15743928Y-15001643D01*
X15762976Y-14973071D01*
X15772500Y-14954024D01*
X15782024Y-14925452D01*
X15791548Y-14877833D01*
X15791548Y-14839738D01*
X15782024Y-14792119D01*
X15772500Y-14763548D01*
X15762976Y-14744500D01*
X15743928Y-14715928D01*
X15734405Y-14706405D01*
X16096309Y-15011167D02*
X16086786Y-15001643D01*
X16067738Y-14973071D01*
X16058214Y-14954024D01*
X16048690Y-14925452D01*
X16039167Y-14877833D01*
X16039167Y-14839738D01*
X16048690Y-14792119D01*
X16058214Y-14763548D01*
X16067738Y-14744500D01*
X16086786Y-14715928D01*
X16096309Y-14706405D01*
X16172500Y-14801643D02*
X16172500Y-14934976D01*
X16172500Y-14820690D02*
X16182024Y-14811167D01*
X16201071Y-14801643D01*
X16229643Y-14801643D01*
X16248690Y-14811167D01*
X16258214Y-14830214D01*
X16258214Y-14934976D01*
X16382024Y-14934976D02*
X16362976Y-14925452D01*
X16353452Y-14915928D01*
X16343928Y-14896881D01*
X16343928Y-14839738D01*
X16353452Y-14820690D01*
X16362976Y-14811167D01*
X16382024Y-14801643D01*
X16410595Y-14801643D01*
X16429643Y-14811167D01*
X16439167Y-14820690D01*
X16448690Y-14839738D01*
X16448690Y-14896881D01*
X16439167Y-14915928D01*
X16429643Y-14925452D01*
X16410595Y-14934976D01*
X16382024Y-14934976D01*
X16505833Y-14801643D02*
X16582024Y-14801643D01*
X16534405Y-14734976D02*
X16534405Y-14906405D01*
X16543928Y-14925452D01*
X16562976Y-14934976D01*
X16582024Y-14934976D01*
X16801071Y-14801643D02*
X16801071Y-15001643D01*
X16801071Y-14811167D02*
X16820119Y-14801643D01*
X16858214Y-14801643D01*
X16877262Y-14811167D01*
X16886786Y-14820690D01*
X16896310Y-14839738D01*
X16896310Y-14896881D01*
X16886786Y-14915928D01*
X16877262Y-14925452D01*
X16858214Y-14934976D01*
X16820119Y-14934976D01*
X16801071Y-14925452D01*
X17010595Y-14934976D02*
X16991548Y-14925452D01*
X16982024Y-14906405D01*
X16982024Y-14734976D01*
X17172500Y-14934976D02*
X17172500Y-14830214D01*
X17162976Y-14811167D01*
X17143929Y-14801643D01*
X17105833Y-14801643D01*
X17086786Y-14811167D01*
X17172500Y-14925452D02*
X17153452Y-14934976D01*
X17105833Y-14934976D01*
X17086786Y-14925452D01*
X17077262Y-14906405D01*
X17077262Y-14887357D01*
X17086786Y-14868309D01*
X17105833Y-14858786D01*
X17153452Y-14858786D01*
X17172500Y-14849262D01*
X17239167Y-14801643D02*
X17315357Y-14801643D01*
X17267738Y-14734976D02*
X17267738Y-14906405D01*
X17277262Y-14925452D01*
X17296310Y-14934976D01*
X17315357Y-14934976D01*
X17458214Y-14925452D02*
X17439167Y-14934976D01*
X17401071Y-14934976D01*
X17382024Y-14925452D01*
X17372500Y-14906405D01*
X17372500Y-14830214D01*
X17382024Y-14811167D01*
X17401071Y-14801643D01*
X17439167Y-14801643D01*
X17458214Y-14811167D01*
X17467738Y-14830214D01*
X17467738Y-14849262D01*
X17372500Y-14868309D01*
X17639167Y-14934976D02*
X17639167Y-14734976D01*
X17639167Y-14925452D02*
X17620119Y-14934976D01*
X17582024Y-14934976D01*
X17562976Y-14925452D01*
X17553452Y-14915928D01*
X17543929Y-14896881D01*
X17543929Y-14839738D01*
X17553452Y-14820690D01*
X17562976Y-14811167D01*
X17582024Y-14801643D01*
X17620119Y-14801643D01*
X17639167Y-14811167D01*
X17715357Y-15011167D02*
X17724881Y-15001643D01*
X17743929Y-14973071D01*
X17753452Y-14954024D01*
X17762976Y-14925452D01*
X17772500Y-14877833D01*
X17772500Y-14839738D01*
X17762976Y-14792119D01*
X17753452Y-14763548D01*
X17743929Y-14744500D01*
X17724881Y-14715928D01*
X17715357Y-14706405D01*
M02*
