G04 #@! TF.GenerationSoftware,KiCad,Pcbnew,5.1.12*
G04 #@! TF.CreationDate,2023-02-14T20:37:59-07:00*
G04 #@! TF.ProjectId,RetroWiFiModem,52657472-6f57-4694-9669-4d6f64656d2e,0.3*
G04 #@! TF.SameCoordinates,Original*
G04 #@! TF.FileFunction,Soldermask,Bot*
G04 #@! TF.FilePolarity,Negative*
%FSLAX46Y46*%
G04 Gerber Fmt 4.6, Leading zero omitted, Abs format (unit mm)*
G04 Created by KiCad (PCBNEW 5.1.12) date 2023-02-14 20:37:59*
%MOMM*%
%LPD*%
G01*
G04 APERTURE LIST*
%ADD10C,1.524000*%
%ADD11C,1.300000*%
%ADD12R,1.300000X1.300000*%
%ADD13C,1.397000*%
%ADD14C,1.800000*%
%ADD15O,1.727200X1.727200*%
%ADD16R,1.727200X1.727200*%
%ADD17R,3.500120X3.500120*%
%ADD18C,2.000000*%
%ADD19R,2.000000X2.000000*%
%ADD20R,1.700000X1.700000*%
%ADD21O,1.700000X1.700000*%
%ADD22O,2.400000X1.600000*%
%ADD23R,2.400000X1.600000*%
%ADD24C,3.200000*%
%ADD25R,1.600000X1.600000*%
%ADD26O,1.600000X1.600000*%
G04 APERTURE END LIST*
D10*
X188214000Y-90805000D03*
X188214000Y-93345000D03*
X188214000Y-95885000D03*
X188214000Y-98425000D03*
X188214000Y-100965000D03*
X188214000Y-103505000D03*
X188214000Y-106045000D03*
X188214000Y-108585000D03*
X170180000Y-108585000D03*
X170180000Y-106045000D03*
X170180000Y-103505000D03*
X170180000Y-100965000D03*
X170180000Y-98425000D03*
X170180000Y-95885000D03*
X170180000Y-93345000D03*
X170180000Y-90805000D03*
D11*
X186055000Y-114260000D03*
D12*
X186055000Y-111760000D03*
D11*
X159472000Y-97409000D03*
D12*
X156972000Y-97409000D03*
D11*
X177840000Y-123825000D03*
D12*
X180340000Y-123825000D03*
D11*
X149860000Y-80939000D03*
D12*
X149860000Y-83439000D03*
D11*
X146010000Y-78105000D03*
D12*
X143510000Y-78105000D03*
D11*
X131064000Y-82209000D03*
D12*
X131064000Y-84709000D03*
D11*
X127508000Y-83399000D03*
D12*
X127508000Y-80899000D03*
D13*
X171450000Y-112395000D03*
X171450000Y-120015000D03*
X153035000Y-85598000D03*
X153035000Y-77978000D03*
X164465000Y-97536000D03*
X164465000Y-89916000D03*
D14*
X160020000Y-125730000D03*
X160020000Y-102870000D03*
X157480000Y-125730000D03*
X157480000Y-102870000D03*
X154940000Y-125730000D03*
X154940000Y-102870000D03*
X152400000Y-125730000D03*
X152400000Y-102870000D03*
X149860000Y-125730000D03*
X149860000Y-102870000D03*
X147320000Y-125730000D03*
X147320000Y-102870000D03*
X144780000Y-125730000D03*
X144780000Y-102870000D03*
X142240000Y-125730000D03*
X142240000Y-102870000D03*
D15*
X126365000Y-91805000D03*
X128905000Y-91805000D03*
X126365000Y-94345000D03*
X128905000Y-94345000D03*
X126365000Y-96885000D03*
X128905000Y-96885000D03*
X126365000Y-99425000D03*
X128905000Y-99425000D03*
X126365000Y-101965000D03*
D16*
X128905000Y-101965000D03*
D17*
X116610400Y-126929000D03*
X113610660Y-122230000D03*
X119610140Y-122230000D03*
D18*
X205740000Y-133284000D03*
D19*
X205740000Y-130744000D03*
D18*
X205740000Y-126680000D03*
D19*
X205740000Y-124140000D03*
D18*
X205740000Y-120076000D03*
D19*
X205740000Y-117536000D03*
D18*
X205740000Y-113472000D03*
D19*
X205740000Y-110932000D03*
D18*
X205740000Y-106868000D03*
D19*
X205740000Y-104328000D03*
D18*
X205740000Y-100264000D03*
D19*
X205740000Y-97724000D03*
D18*
X205740000Y-93660000D03*
D19*
X205740000Y-91120000D03*
D18*
X205740000Y-87056000D03*
D19*
X205740000Y-84516000D03*
D20*
X175895000Y-83185000D03*
D21*
X173355000Y-83185000D03*
D22*
X200723500Y-108585000D03*
X193103500Y-126365000D03*
X200723500Y-111125000D03*
X193103500Y-123825000D03*
X200723500Y-113665000D03*
X193103500Y-121285000D03*
X200723500Y-116205000D03*
X193103500Y-118745000D03*
X200723500Y-118745000D03*
X193103500Y-116205000D03*
X200723500Y-121285000D03*
X193103500Y-113665000D03*
X200723500Y-123825000D03*
X193103500Y-111125000D03*
X200723500Y-126365000D03*
D23*
X193103500Y-108585000D03*
D10*
X156972000Y-92329000D03*
X162052000Y-92329000D03*
X159512000Y-92329000D03*
D24*
X119450000Y-85770000D03*
X119450000Y-132020000D03*
X159450000Y-132020000D03*
X159450000Y-85770000D03*
X189450000Y-85770000D03*
X189450000Y-132020000D03*
D25*
X184785000Y-87630000D03*
D26*
X177165000Y-87630000D03*
M02*
